<?xml version="1.0" encoding="utf-8" standalone="no"?>
<!DOCTYPE svg PUBLIC "-//W3C//DTD SVG 1.1//EN"
  "http://www.w3.org/Graphics/SVG/1.1/DTD/svg11.dtd">
<svg xmlns:xlink="http://www.w3.org/1999/xlink" width="612pt" height="374.4pt" viewBox="0 0 612 374.4" xmlns="http://www.w3.org/2000/svg" version="1.1">
 <metadata>
  <rdf:RDF xmlns:dc="http://purl.org/dc/elements/1.1/" xmlns:cc="http://creativecommons.org/ns#" xmlns:rdf="http://www.w3.org/1999/02/22-rdf-syntax-ns#">
   <cc:Work>
    <dc:type rdf:resource="http://purl.org/dc/dcmitype/StillImage"/>
    <dc:date>2026-09-08T02:50:06.473752</dc:date>
    <dc:format>image/svg+xml</dc:format>
    <dc:creator>
     <cc:Agent>
      <dc:title>Matplotlib v3.9.4, https://matplotlib.org/</dc:title>
     </cc:Agent>
    </dc:creator>
   </cc:Work>
  </rdf:RDF>
 </metadata>
 <defs>
  <style type="text/css">*{stroke-linejoin: round; stroke-linecap: butt}</style>
 </defs>
 <g id="figure_1">
  <g id="patch_1">
   <path d="M 0 374.4 
L 612 374.4 
L 612 0 
L 0 0 
z
" style="fill: #ffffff"/>
  </g>
  <g id="axes_1">
   <g id="patch_2">
    <path d="M 63.66125 324.52 
L 599.04 324.52 
L 599.04 29.76 
L 63.66125 29.76 
z
" style="fill: #ffffff"/>
   </g>
   <g id="PolyCollection_1">
    <defs>
     <path id="m4b7df6125c" d="M 87.996648 -81.142424 
L 87.996648 -71.784964 
L 103.206271 -63.278182 
L 118.415895 -81.142424 
L 133.625518 -85.395815 
L 148.835142 -82.843781 
L 164.044766 -77.739711 
L 179.254389 -73.48632 
L 194.464013 -141.540577 
L 209.673636 -146.644646 
L 224.88326 -150.047359 
L 240.092884 -130.48176 
L 255.302507 -137.287186 
L 270.512131 -132.183117 
L 285.721754 -142.391255 
L 300.931378 -135.58583 
L 316.141001 -137.287186 
L 331.350625 -149.196681 
L 422.608366 -156.852785 
L 437.81799 -148.346003 
L 453.027614 -137.287186 
L 544.285355 -142.391255 
L 559.494979 -78.59039 
L 574.704602 -92.201241 
L 574.704602 -99.006667 
L 574.704602 -99.006667 
L 559.494979 -88.798528 
L 544.285355 -148.346003 
L 453.027614 -154.30075 
L 437.81799 -161.956854 
L 422.608366 -174.717027 
L 331.350625 -164.508889 
L 316.141001 -156.002107 
L 300.931378 -161.956854 
L 285.721754 -156.852785 
L 270.512131 -145.793968 
L 255.302507 -161.106176 
L 240.092884 -137.287186 
L 224.88326 -156.852785 
L 209.673636 -164.508889 
L 194.464013 -157.703463 
L 179.254389 -81.142424 
L 164.044766 -86.246494 
L 148.835142 -88.798528 
L 133.625518 -94.753276 
L 118.415895 -88.798528 
L 103.206271 -71.784964 
L 87.996648 -81.142424 
z
" style="stroke: #b2b2b2; stroke-opacity: 0.25"/>
    </defs>
    <g clip-path="url(#p074144c878)">
     <use xlink:href="#m4b7df6125c" x="0" y="374.4" style="fill: #b2b2b2; fill-opacity: 0.25; stroke: #b2b2b2; stroke-opacity: 0.25"/>
    </g>
   </g>
   <g id="PolyCollection_2">
    <defs>
     <path id="m495fa1ecb7" d="M 87.996648 -292.11062 
L 87.996648 -288.707908 
L 103.206271 -288.707908 
L 118.415895 -288.707908 
L 133.625518 -294.662655 
L 148.835142 -294.662655 
L 164.044766 -294.662655 
L 179.254389 -293.811977 
L 194.464013 -321.03368 
L 209.673636 -322.735036 
L 224.88326 -322.735036 
L 240.092884 -321.03368 
L 255.302507 -321.884358 
L 270.512131 -321.884358 
L 285.721754 -321.884358 
L 300.931378 -321.884358 
L 316.141001 -326.988427 
L 331.350625 -326.988427 
L 422.608366 -326.988427 
L 437.81799 -327.839105 
L 453.027614 -326.988427 
L 544.285355 -326.137749 
L 559.494979 -326.137749 
L 574.704602 -326.137749 
L 574.704602 -331.241818 
L 574.704602 -331.241818 
L 559.494979 -331.241818 
L 544.285355 -329.540462 
L 453.027614 -330.39114 
L 437.81799 -330.39114 
L 422.608366 -329.540462 
L 331.350625 -329.540462 
L 316.141001 -329.540462 
L 300.931378 -324.436392 
L 285.721754 -324.436392 
L 270.512131 -324.436392 
L 255.302507 -324.436392 
L 240.092884 -324.436392 
L 224.88326 -324.436392 
L 209.673636 -324.436392 
L 194.464013 -324.436392 
L 179.254389 -297.21469 
L 164.044766 -298.065368 
L 148.835142 -298.065368 
L 133.625518 -296.364012 
L 118.415895 -292.11062 
L 103.206271 -291.259942 
L 87.996648 -292.11062 
z
" style="stroke: #b2b2b2; stroke-opacity: 0.25"/>
    </defs>
    <g clip-path="url(#p074144c878)">
     <use xlink:href="#m495fa1ecb7" x="0" y="374.4" style="fill: #b2b2b2; fill-opacity: 0.25; stroke: #b2b2b2; stroke-opacity: 0.25"/>
    </g>
   </g>
   <g id="matplotlib.axis_1">
    <g id="xtick_1">
     <g id="line2d_1">
      <defs>
       <path id="mc4bc36eb71" d="M 0 0 
L 0 3.5 
" style="stroke: #000000; stroke-width: 0.8"/>
      </defs>
      <g>
       <use xlink:href="#mc4bc36eb71" x="72.787024" y="324.52" style="stroke: #000000; stroke-width: 0.8"/>
      </g>
     </g>
     <g id="text_1">
      <text style="font: 12px 'DejaVu Sans', 'Bitstream Vera Sans', 'Computer Modern Sans Serif', 'Lucida Grande', 'Verdana', 'Geneva', 'Lucid', 'Arial', 'Helvetica', 'Avant Garde', sans-serif; text-anchor: middle" x="72.787024" y="340.638125" transform="rotate(-0 72.787024 340.638125)">0</text>
     </g>
    </g>
    <g id="xtick_2">
     <g id="line2d_2">
      <g>
       <use xlink:href="#mc4bc36eb71" x="167.847172" y="324.52" style="stroke: #000000; stroke-width: 0.8"/>
      </g>
     </g>
     <g id="text_2">
      <text style="font: 12px 'DejaVu Sans', 'Bitstream Vera Sans', 'Computer Modern Sans Serif', 'Lucida Grande', 'Verdana', 'Geneva', 'Lucid', 'Arial', 'Helvetica', 'Avant Garde', sans-serif; text-anchor: middle" x="167.847172" y="340.638125" transform="rotate(-0 167.847172 340.638125)">50</text>
     </g>
    </g>
    <g id="xtick_3">
     <g id="line2d_3">
      <g>
       <use xlink:href="#mc4bc36eb71" x="262.907319" y="324.52" style="stroke: #000000; stroke-width: 0.8"/>
      </g>
     </g>
     <g id="text_3">
      <text style="font: 12px 'DejaVu Sans', 'Bitstream Vera Sans', 'Computer Modern Sans Serif', 'Lucida Grande', 'Verdana', 'Geneva', 'Lucid', 'Arial', 'Helvetica', 'Avant Garde', sans-serif; text-anchor: middle" x="262.907319" y="340.638125" transform="rotate(-0 262.907319 340.638125)">100</text>
     </g>
    </g>
    <g id="xtick_4">
     <g id="line2d_4">
      <g>
       <use xlink:href="#mc4bc36eb71" x="357.967466" y="324.52" style="stroke: #000000; stroke-width: 0.8"/>
      </g>
     </g>
     <g id="text_4">
      <text style="font: 12px 'DejaVu Sans', 'Bitstream Vera Sans', 'Computer Modern Sans Serif', 'Lucida Grande', 'Verdana', 'Geneva', 'Lucid', 'Arial', 'Helvetica', 'Avant Garde', sans-serif; text-anchor: middle" x="357.967466" y="340.638125" transform="rotate(-0 357.967466 340.638125)">150</text>
     </g>
    </g>
    <g id="xtick_5">
     <g id="line2d_5">
      <g>
       <use xlink:href="#mc4bc36eb71" x="453.027614" y="324.52" style="stroke: #000000; stroke-width: 0.8"/>
      </g>
     </g>
     <g id="text_5">
      <text style="font: 12px 'DejaVu Sans', 'Bitstream Vera Sans', 'Computer Modern Sans Serif', 'Lucida Grande', 'Verdana', 'Geneva', 'Lucid', 'Arial', 'Helvetica', 'Avant Garde', sans-serif; text-anchor: middle" x="453.027614" y="340.638125" transform="rotate(-0 453.027614 340.638125)">200</text>
     </g>
    </g>
    <g id="xtick_6">
     <g id="line2d_6">
      <g>
       <use xlink:href="#mc4bc36eb71" x="548.087761" y="324.52" style="stroke: #000000; stroke-width: 0.8"/>
      </g>
     </g>
     <g id="text_6">
      <text style="font: 12px 'DejaVu Sans', 'Bitstream Vera Sans', 'Computer Modern Sans Serif', 'Lucida Grande', 'Verdana', 'Geneva', 'Lucid', 'Arial', 'Helvetica', 'Avant Garde', sans-serif; text-anchor: middle" x="548.087761" y="340.638125" transform="rotate(-0 548.087761 340.638125)">250</text>
     </g>
    </g>
    <g id="text_7">
     <text style="font: 12px 'DejaVu Sans', 'Bitstream Vera Sans', 'Computer Modern Sans Serif', 'Lucida Grande', 'Verdana', 'Geneva', 'Lucid', 'Arial', 'Helvetica', 'Avant Garde', sans-serif; text-anchor: middle" x="331.350625" y="356.251875" transform="rotate(-0 331.350625 356.251875)">Paired-access byte offset</text>
    </g>
   </g>
   <g id="matplotlib.axis_2">
    <g id="ytick_1">
     <g id="line2d_7">
      <defs>
       <path id="m87477d2ad8" d="M 0 0 
L -3.5 0 
" style="stroke: #000000; stroke-width: 0.8"/>
      </defs>
      <g>
       <use xlink:href="#m87477d2ad8" x="63.66125" y="303.63585" style="stroke: #000000; stroke-width: 0.8"/>
      </g>
     </g>
     <g id="text_8">
      <text style="font: 12px 'DejaVu Sans', 'Bitstream Vera Sans', 'Computer Modern Sans Serif', 'Lucida Grande', 'Verdana', 'Geneva', 'Lucid', 'Arial', 'Helvetica', 'Avant Garde', sans-serif; text-anchor: end" x="56.66125" y="308.194912" transform="rotate(-0 56.66125 308.194912)">0.20</text>
     </g>
    </g>
    <g id="ytick_2">
     <g id="line2d_8">
      <g>
       <use xlink:href="#m87477d2ad8" x="63.66125" y="260.081126" style="stroke: #000000; stroke-width: 0.8"/>
      </g>
     </g>
     <g id="text_9">
      <text style="font: 12px 'DejaVu Sans', 'Bitstream Vera Sans', 'Computer Modern Sans Serif', 'Lucida Grande', 'Verdana', 'Geneva', 'Lucid', 'Arial', 'Helvetica', 'Avant Garde', sans-serif; text-anchor: end" x="56.66125" y="264.640188" transform="rotate(-0 56.66125 264.640188)">0.25</text>
     </g>
    </g>
    <g id="ytick_3">
     <g id="line2d_9">
      <g>
       <use xlink:href="#m87477d2ad8" x="63.66125" y="216.526401" style="stroke: #000000; stroke-width: 0.8"/>
      </g>
     </g>
     <g id="text_10">
      <text style="font: 12px 'DejaVu Sans', 'Bitstream Vera Sans', 'Computer Modern Sans Serif', 'Lucida Grande', 'Verdana', 'Geneva', 'Lucid', 'Arial', 'Helvetica', 'Avant Garde', sans-serif; text-anchor: end" x="56.66125" y="221.085464" transform="rotate(-0 56.66125 221.085464)">0.30</text>
     </g>
    </g>
    <g id="ytick_4">
     <g id="line2d_10">
      <g>
       <use xlink:href="#m87477d2ad8" x="63.66125" y="172.971677" style="stroke: #000000; stroke-width: 0.8"/>
      </g>
     </g>
     <g id="text_11">
      <text style="font: 12px 'DejaVu Sans', 'Bitstream Vera Sans', 'Computer Modern Sans Serif', 'Lucida Grande', 'Verdana', 'Geneva', 'Lucid', 'Arial', 'Helvetica', 'Avant Garde', sans-serif; text-anchor: end" x="56.66125" y="177.530739" transform="rotate(-0 56.66125 177.530739)">0.35</text>
     </g>
    </g>
    <g id="ytick_5">
     <g id="line2d_11">
      <g>
       <use xlink:href="#m87477d2ad8" x="63.66125" y="129.416952" style="stroke: #000000; stroke-width: 0.8"/>
      </g>
     </g>
     <g id="text_12">
      <text style="font: 12px 'DejaVu Sans', 'Bitstream Vera Sans', 'Computer Modern Sans Serif', 'Lucida Grande', 'Verdana', 'Geneva', 'Lucid', 'Arial', 'Helvetica', 'Avant Garde', sans-serif; text-anchor: end" x="56.66125" y="133.976015" transform="rotate(-0 56.66125 133.976015)">0.40</text>
     </g>
    </g>
    <g id="ytick_6">
     <g id="line2d_12">
      <g>
       <use xlink:href="#m87477d2ad8" x="63.66125" y="85.862228" style="stroke: #000000; stroke-width: 0.8"/>
      </g>
     </g>
     <g id="text_13">
      <text style="font: 12px 'DejaVu Sans', 'Bitstream Vera Sans', 'Computer Modern Sans Serif', 'Lucida Grande', 'Verdana', 'Geneva', 'Lucid', 'Arial', 'Helvetica', 'Avant Garde', sans-serif; text-anchor: end" x="56.66125" y="90.42129" transform="rotate(-0 56.66125 90.42129)">0.45</text>
     </g>
    </g>
    <g id="ytick_7">
     <g id="line2d_13">
      <g>
       <use xlink:href="#m87477d2ad8" x="63.66125" y="42.307504" style="stroke: #000000; stroke-width: 0.8"/>
      </g>
     </g>
     <g id="text_14">
      <text style="font: 12px 'DejaVu Sans', 'Bitstream Vera Sans', 'Computer Modern Sans Serif', 'Lucida Grande', 'Verdana', 'Geneva', 'Lucid', 'Arial', 'Helvetica', 'Avant Garde', sans-serif; text-anchor: end" x="56.66125" y="46.866566" transform="rotate(-0 56.66125 46.866566)">0.50</text>
     </g>
    </g>
    <g id="text_15">
     <text style="font: 12px 'DejaVu Sans', 'Bitstream Vera Sans', 'Computer Modern Sans Serif', 'Lucida Grande', 'Verdana', 'Geneva', 'Lucid', 'Arial', 'Helvetica', 'Avant Garde', sans-serif; text-anchor: middle" x="23.113125" y="177.14" transform="rotate(-90 23.113125 177.14)">CNTVCT_ticks/access (batch averages)</text>
    </g>
   </g>
   <g id="line2d_14">
    <path d="M 87.996648 297.510967 
L 103.206271 304.316392 
L 118.415895 288.153506 
L 133.625518 285.601472 
L 148.835142 288.153506 
L 164.044766 290.705541 
L 179.254389 298.361645 
L 194.464013 224.352641 
L 209.673636 217.547215 
L 224.88326 220.949928 
L 240.092884 241.366205 
L 255.302507 223.501962 
L 270.512131 233.710101 
L 285.721754 222.651284 
L 300.931378 230.307388 
L 316.141001 229.45671 
L 331.350625 215.845859 
L 422.608366 207.339076 
L 437.81799 217.547215 
L 453.027614 226.904675 
L 544.285355 229.45671 
L 559.494979 289.004185 
L 574.704602 277.945368 
" clip-path="url(#p074144c878)" style="fill: none; stroke: #000000; stroke-width: 1.7; stroke-linecap: square"/>
    <defs>
     <path id="me04bb4c0bf" d="M 0 3 
C 0.795609 3 1.55874 2.683901 2.12132 2.12132 
C 2.683901 1.55874 3 0.795609 3 0 
C 3 -0.795609 2.683901 -1.55874 2.12132 -2.12132 
C 1.55874 -2.683901 0.795609 -3 0 -3 
C -0.795609 -3 -1.55874 -2.683901 -2.12132 -2.12132 
C -2.683901 -1.55874 -3 -0.795609 -3 0 
C -3 0.795609 -2.683901 1.55874 -2.12132 2.12132 
C -1.55874 2.683901 -0.795609 3 0 3 
z
" style="stroke: #000000"/>
    </defs>
    <g clip-path="url(#p074144c878)">
     <use xlink:href="#me04bb4c0bf" x="87.996648" y="297.510967" style="stroke: #000000"/>
     <use xlink:href="#me04bb4c0bf" x="103.206271" y="304.316392" style="stroke: #000000"/>
     <use xlink:href="#me04bb4c0bf" x="118.415895" y="288.153506" style="stroke: #000000"/>
     <use xlink:href="#me04bb4c0bf" x="133.625518" y="285.601472" style="stroke: #000000"/>
     <use xlink:href="#me04bb4c0bf" x="148.835142" y="288.153506" style="stroke: #000000"/>
     <use xlink:href="#me04bb4c0bf" x="164.044766" y="290.705541" style="stroke: #000000"/>
     <use xlink:href="#me04bb4c0bf" x="179.254389" y="298.361645" style="stroke: #000000"/>
     <use xlink:href="#me04bb4c0bf" x="194.464013" y="224.352641" style="stroke: #000000"/>
     <use xlink:href="#me04bb4c0bf" x="209.673636" y="217.547215" style="stroke: #000000"/>
     <use xlink:href="#me04bb4c0bf" x="224.88326" y="220.949928" style="stroke: #000000"/>
     <use xlink:href="#me04bb4c0bf" x="240.092884" y="241.366205" style="stroke: #000000"/>
     <use xlink:href="#me04bb4c0bf" x="255.302507" y="223.501962" style="stroke: #000000"/>
     <use xlink:href="#me04bb4c0bf" x="270.512131" y="233.710101" style="stroke: #000000"/>
     <use xlink:href="#me04bb4c0bf" x="285.721754" y="222.651284" style="stroke: #000000"/>
     <use xlink:href="#me04bb4c0bf" x="300.931378" y="230.307388" style="stroke: #000000"/>
     <use xlink:href="#me04bb4c0bf" x="316.141001" y="229.45671" style="stroke: #000000"/>
     <use xlink:href="#me04bb4c0bf" x="331.350625" y="215.845859" style="stroke: #000000"/>
     <use xlink:href="#me04bb4c0bf" x="422.608366" y="207.339076" style="stroke: #000000"/>
     <use xlink:href="#me04bb4c0bf" x="437.81799" y="217.547215" style="stroke: #000000"/>
     <use xlink:href="#me04bb4c0bf" x="453.027614" y="226.904675" style="stroke: #000000"/>
     <use xlink:href="#me04bb4c0bf" x="544.285355" y="229.45671" style="stroke: #000000"/>
     <use xlink:href="#me04bb4c0bf" x="559.494979" y="289.004185" style="stroke: #000000"/>
     <use xlink:href="#me04bb4c0bf" x="574.704602" y="277.945368" style="stroke: #000000"/>
    </g>
   </g>
   <g id="line2d_15">
    <path d="M 87.996648 83.990736 
L 103.206271 84.841414 
L 118.415895 83.990736 
L 133.625518 78.035988 
L 148.835142 78.886667 
L 164.044766 78.035988 
L 179.254389 79.737345 
L 194.464013 51.664964 
L 209.673636 50.814286 
L 224.88326 50.814286 
L 240.092884 50.814286 
L 255.302507 50.814286 
L 270.512131 50.814286 
L 285.721754 50.814286 
L 300.931378 51.664964 
L 316.141001 46.560895 
L 331.350625 45.710216 
L 422.608366 45.710216 
L 437.81799 44.859538 
L 453.027614 45.710216 
L 544.285355 46.560895 
L 559.494979 46.560895 
L 574.704602 46.560895 
" clip-path="url(#p074144c878)" style="fill: none; stroke: #2e2e2e; stroke-width: 1.7; stroke-linecap: square"/>
    <defs>
     <path id="meeea61e3a1" d="M -3 3 
L 3 3 
L 3 -3 
L -3 -3 
z
" style="stroke: #2e2e2e; stroke-linejoin: miter"/>
    </defs>
    <g clip-path="url(#p074144c878)">
     <use xlink:href="#meeea61e3a1" x="87.996648" y="83.990736" style="fill: #2e2e2e; stroke: #2e2e2e; stroke-linejoin: miter"/>
     <use xlink:href="#meeea61e3a1" x="103.206271" y="84.841414" style="fill: #2e2e2e; stroke: #2e2e2e; stroke-linejoin: miter"/>
     <use xlink:href="#meeea61e3a1" x="118.415895" y="83.990736" style="fill: #2e2e2e; stroke: #2e2e2e; stroke-linejoin: miter"/>
     <use xlink:href="#meeea61e3a1" x="133.625518" y="78.035988" style="fill: #2e2e2e; stroke: #2e2e2e; stroke-linejoin: miter"/>
     <use xlink:href="#meeea61e3a1" x="148.835142" y="78.886667" style="fill: #2e2e2e; stroke: #2e2e2e; stroke-linejoin: miter"/>
     <use xlink:href="#meeea61e3a1" x="164.044766" y="78.035988" style="fill: #2e2e2e; stroke: #2e2e2e; stroke-linejoin: miter"/>
     <use xlink:href="#meeea61e3a1" x="179.254389" y="79.737345" style="fill: #2e2e2e; stroke: #2e2e2e; stroke-linejoin: miter"/>
     <use xlink:href="#meeea61e3a1" x="194.464013" y="51.664964" style="fill: #2e2e2e; stroke: #2e2e2e; stroke-linejoin: miter"/>
     <use xlink:href="#meeea61e3a1" x="209.673636" y="50.814286" style="fill: #2e2e2e; stroke: #2e2e2e; stroke-linejoin: miter"/>
     <use xlink:href="#meeea61e3a1" x="224.88326" y="50.814286" style="fill: #2e2e2e; stroke: #2e2e2e; stroke-linejoin: miter"/>
     <use xlink:href="#meeea61e3a1" x="240.092884" y="50.814286" style="fill: #2e2e2e; stroke: #2e2e2e; stroke-linejoin: miter"/>
     <use xlink:href="#meeea61e3a1" x="255.302507" y="50.814286" style="fill: #2e2e2e; stroke: #2e2e2e; stroke-linejoin: miter"/>
     <use xlink:href="#meeea61e3a1" x="270.512131" y="50.814286" style="fill: #2e2e2e; stroke: #2e2e2e; stroke-linejoin: miter"/>
     <use xlink:href="#meeea61e3a1" x="285.721754" y="50.814286" style="fill: #2e2e2e; stroke: #2e2e2e; stroke-linejoin: miter"/>
     <use xlink:href="#meeea61e3a1" x="300.931378" y="51.664964" style="fill: #2e2e2e; stroke: #2e2e2e; stroke-linejoin: miter"/>
     <use xlink:href="#meeea61e3a1" x="316.141001" y="46.560895" style="fill: #2e2e2e; stroke: #2e2e2e; stroke-linejoin: miter"/>
     <use xlink:href="#meeea61e3a1" x="331.350625" y="45.710216" style="fill: #2e2e2e; stroke: #2e2e2e; stroke-linejoin: miter"/>
     <use xlink:href="#meeea61e3a1" x="422.608366" y="45.710216" style="fill: #2e2e2e; stroke: #2e2e2e; stroke-linejoin: miter"/>
     <use xlink:href="#meeea61e3a1" x="437.81799" y="44.859538" style="fill: #2e2e2e; stroke: #2e2e2e; stroke-linejoin: miter"/>
     <use xlink:href="#meeea61e3a1" x="453.027614" y="45.710216" style="fill: #2e2e2e; stroke: #2e2e2e; stroke-linejoin: miter"/>
     <use xlink:href="#meeea61e3a1" x="544.285355" y="46.560895" style="fill: #2e2e2e; stroke: #2e2e2e; stroke-linejoin: miter"/>
     <use xlink:href="#meeea61e3a1" x="559.494979" y="46.560895" style="fill: #2e2e2e; stroke: #2e2e2e; stroke-linejoin: miter"/>
     <use xlink:href="#meeea61e3a1" x="574.704602" y="46.560895" style="fill: #2e2e2e; stroke: #2e2e2e; stroke-linejoin: miter"/>
    </g>
   </g>
   <g id="patch_3">
    <path d="M 63.66125 324.52 
L 63.66125 29.76 
" style="fill: none; stroke: #000000; stroke-width: 0.8; stroke-linejoin: miter; stroke-linecap: square"/>
   </g>
   <g id="patch_4">
    <path d="M 63.66125 324.52 
L 599.04 324.52 
" style="fill: none; stroke: #000000; stroke-width: 0.8; stroke-linejoin: miter; stroke-linecap: square"/>
   </g>
   <g id="text_16">
    <text style="font: 14.4px 'DejaVu Sans', 'Bitstream Vera Sans', 'Computer Modern Sans Serif', 'Lucida Grande', 'Verdana', 'Geneva', 'Lucid', 'Arial', 'Helvetica', 'Avant Garde', sans-serif; text-anchor: middle" x="331.350625" y="23.76" transform="rotate(-0 331.350625 23.76)">thunderbird — line size</text>
   </g>
   <g id="legend_1">
    <g id="patch_5">
     <path d="M 468.234844 191.700313 
L 592.74 191.700313 
Q 594.54 191.700313 594.54 189.900313 
L 594.54 164.379688 
Q 594.54 162.579688 592.74 162.579688 
L 468.234844 162.579688 
Q 466.434844 162.579688 466.434844 164.379688 
L 466.434844 189.900313 
Q 466.434844 191.700313 468.234844 191.700313 
z
" style="fill: #ffffff; opacity: 0.8; stroke: #cccccc; stroke-linejoin: miter"/>
    </g>
    <g id="line2d_16">
     <path d="M 470.034844 169.868281 
L 479.034844 169.868281 
L 488.034844 169.868281 
" style="fill: none; stroke: #000000; stroke-width: 1.7; stroke-linecap: square"/>
     <g>
      <use xlink:href="#me04bb4c0bf" x="479.034844" y="169.868281" style="stroke: #000000"/>
     </g>
    </g>
    <g id="text_17">
     <text style="font: 9px 'DejaVu Sans', 'Bitstream Vera Sans', 'Computer Modern Sans Serif', 'Lucida Grande', 'Verdana', 'Geneva', 'Lucid', 'Arial', 'Helvetica', 'Avant Garde', sans-serif; text-anchor: start" x="495.234844" y="173.018281" transform="rotate(-0 495.234844 173.018281)">allocation 1048576 B</text>
    </g>
    <g id="line2d_17">
     <path d="M 470.034844 183.078594 
L 479.034844 183.078594 
L 488.034844 183.078594 
" style="fill: none; stroke: #2e2e2e; stroke-width: 1.7; stroke-linecap: square"/>
     <g>
      <use xlink:href="#meeea61e3a1" x="479.034844" y="183.078594" style="fill: #2e2e2e; stroke: #2e2e2e; stroke-linejoin: miter"/>
     </g>
    </g>
    <g id="text_18">
     <text style="font: 9px 'DejaVu Sans', 'Bitstream Vera Sans', 'Computer Modern Sans Serif', 'Lucida Grande', 'Verdana', 'Geneva', 'Lucid', 'Arial', 'Helvetica', 'Avant Garde', sans-serif; text-anchor: start" x="495.234844" y="186.228594" transform="rotate(-0 495.234844 186.228594)">allocation 4194304 B</text>
    </g>
   </g>
  </g>
 </g>
 <defs>
  <clipPath id="p074144c878">
   <rect x="63.66125" y="29.76" width="535.37875" height="294.76"/>
  </clipPath>
 </defs>
</svg>
