<?xml version="1.0" encoding="utf-8" standalone="no"?>
<!DOCTYPE svg PUBLIC "-//W3C//DTD SVG 1.1//EN"
  "http://www.w3.org/Graphics/SVG/1.1/DTD/svg11.dtd">
<svg xmlns:xlink="http://www.w3.org/1999/xlink" width="612pt" height="374.4pt" viewBox="0 0 612 374.4" xmlns="http://www.w3.org/2000/svg" version="1.1">
 <metadata>
  <rdf:RDF xmlns:dc="http://purl.org/dc/elements/1.1/" xmlns:cc="http://creativecommons.org/ns#" xmlns:rdf="http://www.w3.org/1999/02/22-rdf-syntax-ns#">
   <cc:Work>
    <dc:type rdf:resource="http://purl.org/dc/dcmitype/StillImage"/>
    <dc:date>2026-09-08T02:54:12.001232</dc:date>
    <dc:format>image/svg+xml</dc:format>
    <dc:creator>
     <cc:Agent>
      <dc:title>Matplotlib v3.9.4, https://matplotlib.org/</dc:title>
     </cc:Agent>
    </dc:creator>
   </cc:Work>
  </rdf:RDF>
 </metadata>
 <defs>
  <style type="text/css">*{stroke-linejoin: round; stroke-linecap: butt}</style>
 </defs>
 <g id="figure_1">
  <g id="patch_1">
   <path d="M 0 374.4 
L 612 374.4 
L 612 0 
L 0 0 
z
" style="fill: #ffffff"/>
  </g>
  <g id="axes_1">
   <g id="patch_2">
    <path d="M 52.41125 324.52 
L 599.04 324.52 
L 599.04 29.76 
L 52.41125 29.76 
z
" style="fill: #ffffff"/>
   </g>
   <g id="PolyCollection_1">
    <defs>
     <path id="m6f2e810401" d="M 77.258011 -97.500745 
L 77.258011 -95.07705 
L 92.787237 -109.5869 
L 108.316463 -109.069845 
L 123.845689 -96.628215 
L 139.374915 -95.658737 
L 154.904141 -95.464841 
L 170.433366 -109.74848 
L 185.962592 -190.053549 
L 201.491818 -188.69628 
L 217.021044 -188.437753 
L 232.55027 -188.954808 
L 248.079496 -188.502385 
L 263.608722 -174.865065 
L 279.137947 -188.243857 
L 294.667173 -189.148703 
L 310.196399 -312.886374 
L 325.725625 -285.191627 
L 418.90098 -285.062364 
L 434.430206 -318.153869 
L 449.959432 -290.071332 
L 543.134787 -319.41419 
L 558.664013 -316.24723 
L 574.193239 -317.184392 
L 574.193239 -321.417777 
L 574.193239 -321.417777 
L 558.664013 -323.033574 
L 543.134787 -331.241818 
L 449.959432 -298.796631 
L 434.430206 -326.297482 
L 418.90098 -292.236499 
L 325.725625 -293.33524 
L 310.196399 -322.064096 
L 294.667173 -194.812069 
L 279.137947 -192.671139 
L 263.608722 -183.493417 
L 248.079496 -193.996092 
L 232.55027 -193.349773 
L 217.021044 -193.349773 
L 201.491818 -194.286935 
L 185.962592 -198.778848 
L 170.433366 -114.272709 
L 154.904141 -98.793382 
L 139.374915 -98.340959 
L 123.845689 -102.574345 
L 108.316463 -113.367863 
L 92.787237 -111.687435 
L 77.258011 -97.500745 
z
" style="stroke: #b2b2b2; stroke-opacity: 0.25"/>
    </defs>
    <g clip-path="url(#p3d64248608)">
     <use xlink:href="#m6f2e810401" x="0" y="374.4" style="fill: #b2b2b2; fill-opacity: 0.25; stroke: #b2b2b2; stroke-opacity: 0.25"/>
    </g>
   </g>
   <g id="PolyCollection_2">
    <defs>
     <path id="m0809124a5e" d="M 77.258011 -93.396622 
L 77.258011 -89.2925 
L 92.787237 -64.279975 
L 108.316463 -63.278182 
L 123.845689 -75.267389 
L 139.374915 -76.592342 
L 154.904141 -70.646212 
L 170.433366 -78.725193 
L 185.962592 -162.908173 
L 201.491818 -147.655058 
L 217.021044 -147.234951 
L 232.55027 -141.61198 
L 248.079496 -152.211603 
L 263.608722 -170.631679 
L 279.137947 -150.692754 
L 294.667173 -158.57784 
L 310.196399 -223.145055 
L 325.725625 -255.52561 
L 418.90098 -239.787755 
L 434.430206 -244.538196 
L 449.959432 -259.662048 
L 543.134787 -260.049839 
L 558.664013 -263.475327 
L 574.193239 -274.915164 
L 574.193239 -280.764346 
L 574.193239 -280.764346 
L 558.664013 -280.311923 
L 543.134787 -277.56507 
L 449.959432 -268.193452 
L 434.430206 -250.516642 
L 418.90098 -259.209625 
L 325.725625 -265.381966 
L 310.196399 -240.692601 
L 294.667173 -165.07334 
L 279.137947 -155.540143 
L 263.608722 -175.123593 
L 248.079496 -157.479098 
L 232.55027 -149.400118 
L 217.021044 -154.05361 
L 201.491818 -156.251093 
L 185.962592 -173.249269 
L 170.433366 -83.34637 
L 154.904141 -76.107603 
L 139.374915 -83.637214 
L 123.845689 -82.570788 
L 108.316463 -66.412826 
L 92.787237 -68.545677 
L 77.258011 -93.396622 
z
" style="stroke: #b2b2b2; stroke-opacity: 0.25"/>
    </defs>
    <g clip-path="url(#p3d64248608)">
     <use xlink:href="#m0809124a5e" x="0" y="374.4" style="fill: #b2b2b2; fill-opacity: 0.25; stroke: #b2b2b2; stroke-opacity: 0.25"/>
    </g>
   </g>
   <g id="matplotlib.axis_1">
    <g id="xtick_1">
     <g id="line2d_1">
      <defs>
       <path id="m3b35403861" d="M 0 0 
L 0 3.5 
" style="stroke: #000000; stroke-width: 0.8"/>
      </defs>
      <g>
       <use xlink:href="#m3b35403861" x="61.728786" y="324.52" style="stroke: #000000; stroke-width: 0.8"/>
      </g>
     </g>
     <g id="text_1">
      <text style="font: 12px 'DejaVu Sans', 'Bitstream Vera Sans', 'Computer Modern Sans Serif', 'Lucida Grande', 'Verdana', 'Geneva', 'Lucid', 'Arial', 'Helvetica', 'Avant Garde', sans-serif; text-anchor: middle" x="61.728786" y="340.638125" transform="rotate(-0 61.728786 340.638125)">0</text>
     </g>
    </g>
    <g id="xtick_2">
     <g id="line2d_2">
      <g>
       <use xlink:href="#m3b35403861" x="158.786447" y="324.52" style="stroke: #000000; stroke-width: 0.8"/>
      </g>
     </g>
     <g id="text_2">
      <text style="font: 12px 'DejaVu Sans', 'Bitstream Vera Sans', 'Computer Modern Sans Serif', 'Lucida Grande', 'Verdana', 'Geneva', 'Lucid', 'Arial', 'Helvetica', 'Avant Garde', sans-serif; text-anchor: middle" x="158.786447" y="340.638125" transform="rotate(-0 158.786447 340.638125)">50</text>
     </g>
    </g>
    <g id="xtick_3">
     <g id="line2d_3">
      <g>
       <use xlink:href="#m3b35403861" x="255.844109" y="324.52" style="stroke: #000000; stroke-width: 0.8"/>
      </g>
     </g>
     <g id="text_3">
      <text style="font: 12px 'DejaVu Sans', 'Bitstream Vera Sans', 'Computer Modern Sans Serif', 'Lucida Grande', 'Verdana', 'Geneva', 'Lucid', 'Arial', 'Helvetica', 'Avant Garde', sans-serif; text-anchor: middle" x="255.844109" y="340.638125" transform="rotate(-0 255.844109 340.638125)">100</text>
     </g>
    </g>
    <g id="xtick_4">
     <g id="line2d_4">
      <g>
       <use xlink:href="#m3b35403861" x="352.90177" y="324.52" style="stroke: #000000; stroke-width: 0.8"/>
      </g>
     </g>
     <g id="text_4">
      <text style="font: 12px 'DejaVu Sans', 'Bitstream Vera Sans', 'Computer Modern Sans Serif', 'Lucida Grande', 'Verdana', 'Geneva', 'Lucid', 'Arial', 'Helvetica', 'Avant Garde', sans-serif; text-anchor: middle" x="352.90177" y="340.638125" transform="rotate(-0 352.90177 340.638125)">150</text>
     </g>
    </g>
    <g id="xtick_5">
     <g id="line2d_5">
      <g>
       <use xlink:href="#m3b35403861" x="449.959432" y="324.52" style="stroke: #000000; stroke-width: 0.8"/>
      </g>
     </g>
     <g id="text_5">
      <text style="font: 12px 'DejaVu Sans', 'Bitstream Vera Sans', 'Computer Modern Sans Serif', 'Lucida Grande', 'Verdana', 'Geneva', 'Lucid', 'Arial', 'Helvetica', 'Avant Garde', sans-serif; text-anchor: middle" x="449.959432" y="340.638125" transform="rotate(-0 449.959432 340.638125)">200</text>
     </g>
    </g>
    <g id="xtick_6">
     <g id="line2d_6">
      <g>
       <use xlink:href="#m3b35403861" x="547.017093" y="324.52" style="stroke: #000000; stroke-width: 0.8"/>
      </g>
     </g>
     <g id="text_6">
      <text style="font: 12px 'DejaVu Sans', 'Bitstream Vera Sans', 'Computer Modern Sans Serif', 'Lucida Grande', 'Verdana', 'Geneva', 'Lucid', 'Arial', 'Helvetica', 'Avant Garde', sans-serif; text-anchor: middle" x="547.017093" y="340.638125" transform="rotate(-0 547.017093 340.638125)">250</text>
     </g>
    </g>
    <g id="text_7">
     <text style="font: 12px 'DejaVu Sans', 'Bitstream Vera Sans', 'Computer Modern Sans Serif', 'Lucida Grande', 'Verdana', 'Geneva', 'Lucid', 'Arial', 'Helvetica', 'Avant Garde', sans-serif; text-anchor: middle" x="325.725625" y="356.251875" transform="rotate(-0 325.725625 356.251875)">Paired-access byte offset</text>
    </g>
   </g>
   <g id="matplotlib.axis_2">
    <g id="ytick_1">
     <g id="line2d_7">
      <defs>
       <path id="me04dc4bbee" d="M 0 0 
L -3.5 0 
" style="stroke: #000000; stroke-width: 0.8"/>
      </defs>
      <g>
       <use xlink:href="#me04dc4bbee" x="52.41125" y="305.111056" style="stroke: #000000; stroke-width: 0.8"/>
      </g>
     </g>
     <g id="text_8">
      <text style="font: 12px 'DejaVu Sans', 'Bitstream Vera Sans', 'Computer Modern Sans Serif', 'Lucida Grande', 'Verdana', 'Geneva', 'Lucid', 'Arial', 'Helvetica', 'Avant Garde', sans-serif; text-anchor: end" x="45.41125" y="309.670119" transform="rotate(-0 45.41125 309.670119)">16</text>
     </g>
    </g>
    <g id="ytick_2">
     <g id="line2d_8">
      <g>
       <use xlink:href="#me04dc4bbee" x="52.41125" y="272.019551" style="stroke: #000000; stroke-width: 0.8"/>
      </g>
     </g>
     <g id="text_9">
      <text style="font: 12px 'DejaVu Sans', 'Bitstream Vera Sans', 'Computer Modern Sans Serif', 'Lucida Grande', 'Verdana', 'Geneva', 'Lucid', 'Arial', 'Helvetica', 'Avant Garde', sans-serif; text-anchor: end" x="45.41125" y="276.578613" transform="rotate(-0 45.41125 276.578613)">18</text>
     </g>
    </g>
    <g id="ytick_3">
     <g id="line2d_9">
      <g>
       <use xlink:href="#me04dc4bbee" x="52.41125" y="238.928045" style="stroke: #000000; stroke-width: 0.8"/>
      </g>
     </g>
     <g id="text_10">
      <text style="font: 12px 'DejaVu Sans', 'Bitstream Vera Sans', 'Computer Modern Sans Serif', 'Lucida Grande', 'Verdana', 'Geneva', 'Lucid', 'Arial', 'Helvetica', 'Avant Garde', sans-serif; text-anchor: end" x="45.41125" y="243.487108" transform="rotate(-0 45.41125 243.487108)">20</text>
     </g>
    </g>
    <g id="ytick_4">
     <g id="line2d_10">
      <g>
       <use xlink:href="#me04dc4bbee" x="52.41125" y="205.83654" style="stroke: #000000; stroke-width: 0.8"/>
      </g>
     </g>
     <g id="text_11">
      <text style="font: 12px 'DejaVu Sans', 'Bitstream Vera Sans', 'Computer Modern Sans Serif', 'Lucida Grande', 'Verdana', 'Geneva', 'Lucid', 'Arial', 'Helvetica', 'Avant Garde', sans-serif; text-anchor: end" x="45.41125" y="210.395602" transform="rotate(-0 45.41125 210.395602)">22</text>
     </g>
    </g>
    <g id="ytick_5">
     <g id="line2d_11">
      <g>
       <use xlink:href="#me04dc4bbee" x="52.41125" y="172.745034" style="stroke: #000000; stroke-width: 0.8"/>
      </g>
     </g>
     <g id="text_12">
      <text style="font: 12px 'DejaVu Sans', 'Bitstream Vera Sans', 'Computer Modern Sans Serif', 'Lucida Grande', 'Verdana', 'Geneva', 'Lucid', 'Arial', 'Helvetica', 'Avant Garde', sans-serif; text-anchor: end" x="45.41125" y="177.304097" transform="rotate(-0 45.41125 177.304097)">24</text>
     </g>
    </g>
    <g id="ytick_6">
     <g id="line2d_12">
      <g>
       <use xlink:href="#me04dc4bbee" x="52.41125" y="139.653529" style="stroke: #000000; stroke-width: 0.8"/>
      </g>
     </g>
     <g id="text_13">
      <text style="font: 12px 'DejaVu Sans', 'Bitstream Vera Sans', 'Computer Modern Sans Serif', 'Lucida Grande', 'Verdana', 'Geneva', 'Lucid', 'Arial', 'Helvetica', 'Avant Garde', sans-serif; text-anchor: end" x="45.41125" y="144.212591" transform="rotate(-0 45.41125 144.212591)">26</text>
     </g>
    </g>
    <g id="ytick_7">
     <g id="line2d_13">
      <g>
       <use xlink:href="#me04dc4bbee" x="52.41125" y="106.562023" style="stroke: #000000; stroke-width: 0.8"/>
      </g>
     </g>
     <g id="text_14">
      <text style="font: 12px 'DejaVu Sans', 'Bitstream Vera Sans', 'Computer Modern Sans Serif', 'Lucida Grande', 'Verdana', 'Geneva', 'Lucid', 'Arial', 'Helvetica', 'Avant Garde', sans-serif; text-anchor: end" x="45.41125" y="111.121086" transform="rotate(-0 45.41125 111.121086)">28</text>
     </g>
    </g>
    <g id="ytick_8">
     <g id="line2d_14">
      <g>
       <use xlink:href="#me04dc4bbee" x="52.41125" y="73.470518" style="stroke: #000000; stroke-width: 0.8"/>
      </g>
     </g>
     <g id="text_15">
      <text style="font: 12px 'DejaVu Sans', 'Bitstream Vera Sans', 'Computer Modern Sans Serif', 'Lucida Grande', 'Verdana', 'Geneva', 'Lucid', 'Arial', 'Helvetica', 'Avant Garde', sans-serif; text-anchor: end" x="45.41125" y="78.02958" transform="rotate(-0 45.41125 78.02958)">30</text>
     </g>
    </g>
    <g id="ytick_9">
     <g id="line2d_15">
      <g>
       <use xlink:href="#me04dc4bbee" x="52.41125" y="40.379012" style="stroke: #000000; stroke-width: 0.8"/>
      </g>
     </g>
     <g id="text_16">
      <text style="font: 12px 'DejaVu Sans', 'Bitstream Vera Sans', 'Computer Modern Sans Serif', 'Lucida Grande', 'Verdana', 'Geneva', 'Lucid', 'Arial', 'Helvetica', 'Avant Garde', sans-serif; text-anchor: end" x="45.41125" y="44.938075" transform="rotate(-0 45.41125 44.938075)">32</text>
     </g>
    </g>
    <g id="text_17">
     <text style="font: 12px 'DejaVu Sans', 'Bitstream Vera Sans', 'Computer Modern Sans Serif', 'Lucida Grande', 'Verdana', 'Geneva', 'Lucid', 'Arial', 'Helvetica', 'Avant Garde', sans-serif; text-anchor: middle" x="23.311875" y="177.14" transform="rotate(-90 23.311875 177.14)">TSC_ticks/access (batch averages)</text>
    </g>
   </g>
   <g id="line2d_16">
    <path d="M 77.258011 278.030313 
L 92.787237 263.552779 
L 108.316463 262.777197 
L 123.845689 275.83283 
L 139.374915 277.771785 
L 154.904141 277.610206 
L 170.433366 262.777197 
L 185.962592 182.116652 
L 201.491818 183.280025 
L 217.021044 183.603185 
L 232.55027 183.08613 
L 248.079496 183.409289 
L 263.608722 194.752178 
L 279.137947 184.281819 
L 294.667173 182.989182 
L 310.196399 56.827817 
L 325.725625 86.946258 
L 418.90098 85.685937 
L 434.430206 53.434645 
L 449.959432 80.870864 
L 543.134787 48.942732 
L 558.664013 55.922972 
L 574.193239 55.050442 
" clip-path="url(#p3d64248608)" style="fill: none; stroke: #000000; stroke-width: 1.7; stroke-linecap: square"/>
    <defs>
     <path id="m4ab830b8c4" d="M 0 3 
C 0.795609 3 1.55874 2.683901 2.12132 2.12132 
C 2.683901 1.55874 3 0.795609 3 0 
C 3 -0.795609 2.683901 -1.55874 2.12132 -2.12132 
C 1.55874 -2.683901 0.795609 -3 0 -3 
C -0.795609 -3 -1.55874 -2.683901 -2.12132 -2.12132 
C -2.683901 -1.55874 -3 -0.795609 -3 0 
C -3 0.795609 -2.683901 1.55874 -2.12132 2.12132 
C -1.55874 2.683901 -0.795609 3 0 3 
z
" style="stroke: #000000"/>
    </defs>
    <g clip-path="url(#p3d64248608)">
     <use xlink:href="#m4ab830b8c4" x="77.258011" y="278.030313" style="stroke: #000000"/>
     <use xlink:href="#m4ab830b8c4" x="92.787237" y="263.552779" style="stroke: #000000"/>
     <use xlink:href="#m4ab830b8c4" x="108.316463" y="262.777197" style="stroke: #000000"/>
     <use xlink:href="#m4ab830b8c4" x="123.845689" y="275.83283" style="stroke: #000000"/>
     <use xlink:href="#m4ab830b8c4" x="139.374915" y="277.771785" style="stroke: #000000"/>
     <use xlink:href="#m4ab830b8c4" x="154.904141" y="277.610206" style="stroke: #000000"/>
     <use xlink:href="#m4ab830b8c4" x="170.433366" y="262.777197" style="stroke: #000000"/>
     <use xlink:href="#m4ab830b8c4" x="185.962592" y="182.116652" style="stroke: #000000"/>
     <use xlink:href="#m4ab830b8c4" x="201.491818" y="183.280025" style="stroke: #000000"/>
     <use xlink:href="#m4ab830b8c4" x="217.021044" y="183.603185" style="stroke: #000000"/>
     <use xlink:href="#m4ab830b8c4" x="232.55027" y="183.08613" style="stroke: #000000"/>
     <use xlink:href="#m4ab830b8c4" x="248.079496" y="183.409289" style="stroke: #000000"/>
     <use xlink:href="#m4ab830b8c4" x="263.608722" y="194.752178" style="stroke: #000000"/>
     <use xlink:href="#m4ab830b8c4" x="279.137947" y="184.281819" style="stroke: #000000"/>
     <use xlink:href="#m4ab830b8c4" x="294.667173" y="182.989182" style="stroke: #000000"/>
     <use xlink:href="#m4ab830b8c4" x="310.196399" y="56.827817" style="stroke: #000000"/>
     <use xlink:href="#m4ab830b8c4" x="325.725625" y="86.946258" style="stroke: #000000"/>
     <use xlink:href="#m4ab830b8c4" x="418.90098" y="85.685937" style="stroke: #000000"/>
     <use xlink:href="#m4ab830b8c4" x="434.430206" y="53.434645" style="stroke: #000000"/>
     <use xlink:href="#m4ab830b8c4" x="449.959432" y="80.870864" style="stroke: #000000"/>
     <use xlink:href="#m4ab830b8c4" x="543.134787" y="48.942732" style="stroke: #000000"/>
     <use xlink:href="#m4ab830b8c4" x="558.664013" y="55.922972" style="stroke: #000000"/>
     <use xlink:href="#m4ab830b8c4" x="574.193239" y="55.050442" style="stroke: #000000"/>
    </g>
   </g>
   <g id="line2d_17">
    <path d="M 77.258011 283.039281 
L 92.787237 307.987174 
L 108.316463 309.926129 
L 123.845689 295.351648 
L 139.374915 296.224178 
L 154.904141 301.717884 
L 170.433366 292.927953 
L 185.962592 208.13097 
L 201.491818 220.89576 
L 217.021044 224.612091 
L 232.55027 228.683898 
L 248.079496 219.506176 
L 263.608722 202.314104 
L 279.137947 221.089656 
L 294.667173 212.299725 
L 310.196399 146.019766 
L 325.725625 112.734365 
L 418.90098 120.813346 
L 434.430206 126.533264 
L 449.959432 110.827725 
L 543.134787 102.813376 
L 558.664013 102.878008 
L 574.193239 96.899562 
" clip-path="url(#p3d64248608)" style="fill: none; stroke: #2e2e2e; stroke-width: 1.7; stroke-linecap: square"/>
    <defs>
     <path id="mb98eac2447" d="M -3 3 
L 3 3 
L 3 -3 
L -3 -3 
z
" style="stroke: #2e2e2e; stroke-linejoin: miter"/>
    </defs>
    <g clip-path="url(#p3d64248608)">
     <use xlink:href="#mb98eac2447" x="77.258011" y="283.039281" style="fill: #2e2e2e; stroke: #2e2e2e; stroke-linejoin: miter"/>
     <use xlink:href="#mb98eac2447" x="92.787237" y="307.987174" style="fill: #2e2e2e; stroke: #2e2e2e; stroke-linejoin: miter"/>
     <use xlink:href="#mb98eac2447" x="108.316463" y="309.926129" style="fill: #2e2e2e; stroke: #2e2e2e; stroke-linejoin: miter"/>
     <use xlink:href="#mb98eac2447" x="123.845689" y="295.351648" style="fill: #2e2e2e; stroke: #2e2e2e; stroke-linejoin: miter"/>
     <use xlink:href="#mb98eac2447" x="139.374915" y="296.224178" style="fill: #2e2e2e; stroke: #2e2e2e; stroke-linejoin: miter"/>
     <use xlink:href="#mb98eac2447" x="154.904141" y="301.717884" style="fill: #2e2e2e; stroke: #2e2e2e; stroke-linejoin: miter"/>
     <use xlink:href="#mb98eac2447" x="170.433366" y="292.927953" style="fill: #2e2e2e; stroke: #2e2e2e; stroke-linejoin: miter"/>
     <use xlink:href="#mb98eac2447" x="185.962592" y="208.13097" style="fill: #2e2e2e; stroke: #2e2e2e; stroke-linejoin: miter"/>
     <use xlink:href="#mb98eac2447" x="201.491818" y="220.89576" style="fill: #2e2e2e; stroke: #2e2e2e; stroke-linejoin: miter"/>
     <use xlink:href="#mb98eac2447" x="217.021044" y="224.612091" style="fill: #2e2e2e; stroke: #2e2e2e; stroke-linejoin: miter"/>
     <use xlink:href="#mb98eac2447" x="232.55027" y="228.683898" style="fill: #2e2e2e; stroke: #2e2e2e; stroke-linejoin: miter"/>
     <use xlink:href="#mb98eac2447" x="248.079496" y="219.506176" style="fill: #2e2e2e; stroke: #2e2e2e; stroke-linejoin: miter"/>
     <use xlink:href="#mb98eac2447" x="263.608722" y="202.314104" style="fill: #2e2e2e; stroke: #2e2e2e; stroke-linejoin: miter"/>
     <use xlink:href="#mb98eac2447" x="279.137947" y="221.089656" style="fill: #2e2e2e; stroke: #2e2e2e; stroke-linejoin: miter"/>
     <use xlink:href="#mb98eac2447" x="294.667173" y="212.299725" style="fill: #2e2e2e; stroke: #2e2e2e; stroke-linejoin: miter"/>
     <use xlink:href="#mb98eac2447" x="310.196399" y="146.019766" style="fill: #2e2e2e; stroke: #2e2e2e; stroke-linejoin: miter"/>
     <use xlink:href="#mb98eac2447" x="325.725625" y="112.734365" style="fill: #2e2e2e; stroke: #2e2e2e; stroke-linejoin: miter"/>
     <use xlink:href="#mb98eac2447" x="418.90098" y="120.813346" style="fill: #2e2e2e; stroke: #2e2e2e; stroke-linejoin: miter"/>
     <use xlink:href="#mb98eac2447" x="434.430206" y="126.533264" style="fill: #2e2e2e; stroke: #2e2e2e; stroke-linejoin: miter"/>
     <use xlink:href="#mb98eac2447" x="449.959432" y="110.827725" style="fill: #2e2e2e; stroke: #2e2e2e; stroke-linejoin: miter"/>
     <use xlink:href="#mb98eac2447" x="543.134787" y="102.813376" style="fill: #2e2e2e; stroke: #2e2e2e; stroke-linejoin: miter"/>
     <use xlink:href="#mb98eac2447" x="558.664013" y="102.878008" style="fill: #2e2e2e; stroke: #2e2e2e; stroke-linejoin: miter"/>
     <use xlink:href="#mb98eac2447" x="574.193239" y="96.899562" style="fill: #2e2e2e; stroke: #2e2e2e; stroke-linejoin: miter"/>
    </g>
   </g>
   <g id="patch_3">
    <path d="M 52.41125 324.52 
L 52.41125 29.76 
" style="fill: none; stroke: #000000; stroke-width: 0.8; stroke-linejoin: miter; stroke-linecap: square"/>
   </g>
   <g id="patch_4">
    <path d="M 52.41125 324.52 
L 599.04 324.52 
" style="fill: none; stroke: #000000; stroke-width: 0.8; stroke-linejoin: miter; stroke-linecap: square"/>
   </g>
   <g id="text_18">
    <text style="font: 14.4px 'DejaVu Sans', 'Bitstream Vera Sans', 'Computer Modern Sans Serif', 'Lucida Grande', 'Verdana', 'Geneva', 'Lucid', 'Arial', 'Helvetica', 'Avant Garde', sans-serif; text-anchor: middle" x="325.725625" y="23.76" transform="rotate(-0 325.725625 23.76)">crux — line size</text>
   </g>
   <g id="legend_1">
    <g id="patch_5">
     <path d="M 58.71125 63.380625 
L 183.216406 63.380625 
Q 185.016406 63.380625 185.016406 61.580625 
L 185.016406 36.06 
Q 185.016406 34.26 183.216406 34.26 
L 58.71125 34.26 
Q 56.91125 34.26 56.91125 36.06 
L 56.91125 61.580625 
Q 56.91125 63.380625 58.71125 63.380625 
z
" style="fill: #ffffff; opacity: 0.8; stroke: #cccccc; stroke-linejoin: miter"/>
    </g>
    <g id="line2d_18">
     <path d="M 60.51125 41.548594 
L 69.51125 41.548594 
L 78.51125 41.548594 
" style="fill: none; stroke: #000000; stroke-width: 1.7; stroke-linecap: square"/>
     <g>
      <use xlink:href="#m4ab830b8c4" x="69.51125" y="41.548594" style="stroke: #000000"/>
     </g>
    </g>
    <g id="text_19">
     <text style="font: 9px 'DejaVu Sans', 'Bitstream Vera Sans', 'Computer Modern Sans Serif', 'Lucida Grande', 'Verdana', 'Geneva', 'Lucid', 'Arial', 'Helvetica', 'Avant Garde', sans-serif; text-anchor: start" x="85.71125" y="44.698594" transform="rotate(-0 85.71125 44.698594)">allocation 2097152 B</text>
    </g>
    <g id="line2d_19">
     <path d="M 60.51125 54.758906 
L 69.51125 54.758906 
L 78.51125 54.758906 
" style="fill: none; stroke: #2e2e2e; stroke-width: 1.7; stroke-linecap: square"/>
     <g>
      <use xlink:href="#mb98eac2447" x="69.51125" y="54.758906" style="fill: #2e2e2e; stroke: #2e2e2e; stroke-linejoin: miter"/>
     </g>
    </g>
    <g id="text_20">
     <text style="font: 9px 'DejaVu Sans', 'Bitstream Vera Sans', 'Computer Modern Sans Serif', 'Lucida Grande', 'Verdana', 'Geneva', 'Lucid', 'Arial', 'Helvetica', 'Avant Garde', sans-serif; text-anchor: start" x="85.71125" y="57.908906" transform="rotate(-0 85.71125 57.908906)">allocation 524288 B</text>
    </g>
   </g>
  </g>
 </g>
 <defs>
  <clipPath id="p3d64248608">
   <rect x="52.41125" y="29.76" width="546.62875" height="294.76"/>
  </clipPath>
 </defs>
</svg>
