<?xml version="1.0" encoding="utf-8" standalone="no"?>
<!DOCTYPE svg PUBLIC "-//W3C//DTD SVG 1.1//EN"
  "http://www.w3.org/Graphics/SVG/1.1/DTD/svg11.dtd">
<svg xmlns:xlink="http://www.w3.org/1999/xlink" width="612pt" height="374.4pt" viewBox="0 0 612 374.4" xmlns="http://www.w3.org/2000/svg" version="1.1">
 <metadata>
  <rdf:RDF xmlns:dc="http://purl.org/dc/elements/1.1/" xmlns:cc="http://creativecommons.org/ns#" xmlns:rdf="http://www.w3.org/1999/02/22-rdf-syntax-ns#">
   <cc:Work>
    <dc:type rdf:resource="http://purl.org/dc/dcmitype/StillImage"/>
    <dc:date>2026-09-08T02:55:19.099396</dc:date>
    <dc:format>image/svg+xml</dc:format>
    <dc:creator>
     <cc:Agent>
      <dc:title>Matplotlib v3.9.4, https://matplotlib.org/</dc:title>
     </cc:Agent>
    </dc:creator>
   </cc:Work>
  </rdf:RDF>
 </metadata>
 <defs>
  <style type="text/css">*{stroke-linejoin: round; stroke-linecap: butt}</style>
 </defs>
 <g id="figure_1">
  <g id="patch_1">
   <path d="M 0 374.4 
L 612 374.4 
L 612 0 
L 0 0 
z
" style="fill: #ffffff"/>
  </g>
  <g id="axes_1">
   <g id="patch_2">
    <path d="M 52.32125 324.52 
L 593.394917 324.52 
L 593.394917 29.76 
L 52.32125 29.76 
z
" style="fill: #ffffff"/>
   </g>
   <g id="PolyCollection_1">
    <defs>
     <path id="m4a22813ff8" d="M 76.915508 -63.346592 
L 76.915508 -63.278182 
L 99.273924 -63.278182 
L 121.63234 -63.278182 
L 143.990756 -63.278182 
L 166.349172 -63.278182 
L 188.707588 -63.278182 
L 211.066004 -64.235928 
L 233.42442 -124.813359 
L 255.782836 -124.847565 
L 278.141252 -124.847565 
L 300.499668 -124.847565 
L 322.858084 -124.847565 
L 345.2165 -124.847565 
L 367.574916 -125.394848 
L 389.933332 -124.88177 
L 412.291748 -145.268077 
L 434.650164 -163.328429 
L 457.00858 -179.5417 
L 479.366996 -194.147326 
L 501.725412 -194.147326 
L 524.083828 -194.147326 
L 546.442244 -217.919948 
L 568.80066 -194.147326 
L 568.80066 -194.523583 
L 568.80066 -194.523583 
L 546.442244 -218.638258 
L 524.083828 -194.557788 
L 501.725412 -194.557788 
L 479.366996 -194.557788 
L 457.00858 -179.952162 
L 434.650164 -163.841507 
L 412.291748 -145.644334 
L 389.933332 -125.326438 
L 367.574916 -125.66849 
L 345.2165 -125.121206 
L 322.858084 -125.087001 
L 300.499668 -125.052796 
L 278.141252 -125.052796 
L 255.782836 -125.087001 
L 233.42442 -125.052796 
L 211.066004 -64.304338 
L 188.707588 -63.346592 
L 166.349172 -63.346592 
L 143.990756 -63.346592 
L 121.63234 -63.346592 
L 99.273924 -63.346592 
L 76.915508 -63.346592 
z
" style="stroke: #b2b2b2; stroke-opacity: 0.25"/>
    </defs>
    <g clip-path="url(#p43c571d2f5)">
     <use xlink:href="#m4a22813ff8" x="0" y="374.4" style="fill: #b2b2b2; fill-opacity: 0.25; stroke: #b2b2b2; stroke-opacity: 0.25"/>
    </g>
   </g>
   <g id="PolyCollection_2">
    <defs>
     <path id="m9fb8c5a59a" d="M 76.915508 -63.346592 
L 76.915508 -63.278182 
L 99.273924 -63.278182 
L 121.63234 -63.278182 
L 143.990756 -132.543738 
L 166.349172 -132.543738 
L 188.707588 -132.543738 
L 211.066004 -132.543738 
L 233.42442 -194.147326 
L 255.782836 -194.11312 
L 278.141252 -194.11312 
L 300.499668 -194.147326 
L 322.858084 -194.11312 
L 345.2165 -194.11312 
L 367.574916 -247.610073 
L 389.933332 -194.11312 
L 412.291748 -194.147326 
L 434.650164 -194.11312 
L 457.00858 -194.147326 
L 479.366996 -194.147326 
L 501.725412 -220.62216 
L 524.083828 -231.704649 
L 546.442244 -267.585917 
L 568.80066 -215.115121 
L 568.80066 -215.867636 
L 568.80066 -215.867636 
L 546.442244 -268.509458 
L 524.083828 -249.799207 
L 501.725412 -221.443085 
L 479.366996 -194.523583 
L 457.00858 -194.557788 
L 434.650164 -194.523583 
L 412.291748 -194.557788 
L 389.933332 -194.557788 
L 367.574916 -275.726758 
L 345.2165 -194.523583 
L 322.858084 -194.523583 
L 300.499668 -194.557788 
L 278.141252 -194.523583 
L 255.782836 -194.523583 
L 233.42442 -194.557788 
L 211.066004 -132.817379 
L 188.707588 -132.783174 
L 166.349172 -132.817379 
L 143.990756 -132.817379 
L 121.63234 -63.346592 
L 99.273924 -63.346592 
L 76.915508 -63.346592 
z
" style="stroke: #b2b2b2; stroke-opacity: 0.25"/>
    </defs>
    <g clip-path="url(#p43c571d2f5)">
     <use xlink:href="#m9fb8c5a59a" x="0" y="374.4" style="fill: #b2b2b2; fill-opacity: 0.25; stroke: #b2b2b2; stroke-opacity: 0.25"/>
    </g>
   </g>
   <g id="PolyCollection_3">
    <defs>
     <path id="m39ec31f84f" d="M 76.915508 -63.346592 
L 76.915508 -63.278182 
L 99.273924 -63.278182 
L 121.63234 -63.278182 
L 143.990756 -63.278182 
L 166.349172 -63.278182 
L 188.707588 -63.278182 
L 211.066004 -63.278182 
L 233.42442 -124.813359 
L 255.782836 -124.847565 
L 278.141252 -124.847565 
L 300.499668 -124.847565 
L 322.858084 -124.915975 
L 345.2165 -124.847565 
L 367.574916 -124.847565 
L 389.933332 -124.847565 
L 412.291748 -124.847565 
L 434.650164 -124.847565 
L 457.00858 -124.847565 
L 479.366996 -164.149354 
L 501.725412 -124.847565 
L 524.083828 -149.270087 
L 546.442244 -124.847565 
L 568.80066 -124.847565 
L 568.80066 -125.087001 
L 568.80066 -125.087001 
L 546.442244 -125.087001 
L 524.083828 -150.501474 
L 501.725412 -125.087001 
L 479.366996 -182.620169 
L 457.00858 -125.087001 
L 434.650164 -125.087001 
L 412.291748 -125.087001 
L 389.933332 -125.087001 
L 367.574916 -125.087001 
L 345.2165 -125.087001 
L 322.858084 -125.155412 
L 300.499668 -125.087001 
L 278.141252 -125.087001 
L 255.782836 -125.087001 
L 233.42442 -125.052796 
L 211.066004 -63.346592 
L 188.707588 -63.380797 
L 166.349172 -63.346592 
L 143.990756 -63.346592 
L 121.63234 -63.346592 
L 99.273924 -63.346592 
L 76.915508 -63.346592 
z
" style="stroke: #b2b2b2; stroke-opacity: 0.25"/>
    </defs>
    <g clip-path="url(#p43c571d2f5)">
     <use xlink:href="#m39ec31f84f" x="0" y="374.4" style="fill: #b2b2b2; fill-opacity: 0.25; stroke: #b2b2b2; stroke-opacity: 0.25"/>
    </g>
   </g>
   <g id="PolyCollection_4">
    <defs>
     <path id="m506b0a0d01" d="M 76.915508 -63.346592 
L 76.915508 -63.278182 
L 99.273924 -63.278182 
L 121.63234 -63.278182 
L 143.990756 -132.543738 
L 166.349172 -132.543738 
L 188.707588 -132.543738 
L 211.066004 -132.543738 
L 233.42442 -194.147326 
L 255.782836 -194.147326 
L 278.141252 -194.147326 
L 300.499668 -194.147326 
L 322.858084 -258.760972 
L 345.2165 -194.11312 
L 367.574916 -194.147326 
L 389.933332 -226.060789 
L 412.291748 -261.018516 
L 434.650164 -225.889763 
L 457.00858 -194.147326 
L 479.366996 -328.642222 
L 501.725412 -194.147326 
L 524.083828 -252.125161 
L 546.442244 -217.543691 
L 568.80066 -218.364616 
L 568.80066 -219.04872 
L 568.80066 -219.04872 
L 546.442244 -218.227795 
L 524.083828 -253.664396 
L 501.725412 -194.557788 
L 479.366996 -331.241818 
L 457.00858 -194.557788 
L 434.650164 -226.608073 
L 412.291748 -261.839442 
L 389.933332 -226.676483 
L 367.574916 -194.557788 
L 345.2165 -194.523583 
L 322.858084 -290.058742 
L 300.499668 -194.557788 
L 278.141252 -194.523583 
L 255.782836 -194.557788 
L 233.42442 -194.557788 
L 211.066004 -132.817379 
L 188.707588 -132.817379 
L 166.349172 -132.817379 
L 143.990756 -132.817379 
L 121.63234 -63.346592 
L 99.273924 -63.346592 
L 76.915508 -63.346592 
z
" style="stroke: #b2b2b2; stroke-opacity: 0.25"/>
    </defs>
    <g clip-path="url(#p43c571d2f5)">
     <use xlink:href="#m506b0a0d01" x="0" y="374.4" style="fill: #b2b2b2; fill-opacity: 0.25; stroke: #b2b2b2; stroke-opacity: 0.25"/>
    </g>
   </g>
   <g id="matplotlib.axis_1">
    <g id="xtick_1">
     <g id="line2d_1">
      <defs>
       <path id="ma02953bdbe" d="M 0 0 
L 0 3.5 
" style="stroke: #000000; stroke-width: 0.8"/>
      </defs>
      <g>
       <use xlink:href="#ma02953bdbe" x="143.990756" y="324.52" style="stroke: #000000; stroke-width: 0.8"/>
      </g>
     </g>
     <g id="text_1">
      <text style="font: 12px 'DejaVu Sans', 'Bitstream Vera Sans', 'Computer Modern Sans Serif', 'Lucida Grande', 'Verdana', 'Geneva', 'Lucid', 'Arial', 'Helvetica', 'Avant Garde', sans-serif; text-anchor: middle" x="143.990756" y="340.638125" transform="rotate(-0 143.990756 340.638125)">5</text>
     </g>
    </g>
    <g id="xtick_2">
     <g id="line2d_2">
      <g>
       <use xlink:href="#ma02953bdbe" x="255.782836" y="324.52" style="stroke: #000000; stroke-width: 0.8"/>
      </g>
     </g>
     <g id="text_2">
      <text style="font: 12px 'DejaVu Sans', 'Bitstream Vera Sans', 'Computer Modern Sans Serif', 'Lucida Grande', 'Verdana', 'Geneva', 'Lucid', 'Arial', 'Helvetica', 'Avant Garde', sans-serif; text-anchor: middle" x="255.782836" y="340.638125" transform="rotate(-0 255.782836 340.638125)">10</text>
     </g>
    </g>
    <g id="xtick_3">
     <g id="line2d_3">
      <g>
       <use xlink:href="#ma02953bdbe" x="367.574916" y="324.52" style="stroke: #000000; stroke-width: 0.8"/>
      </g>
     </g>
     <g id="text_3">
      <text style="font: 12px 'DejaVu Sans', 'Bitstream Vera Sans', 'Computer Modern Sans Serif', 'Lucida Grande', 'Verdana', 'Geneva', 'Lucid', 'Arial', 'Helvetica', 'Avant Garde', sans-serif; text-anchor: middle" x="367.574916" y="340.638125" transform="rotate(-0 367.574916 340.638125)">15</text>
     </g>
    </g>
    <g id="xtick_4">
     <g id="line2d_4">
      <g>
       <use xlink:href="#ma02953bdbe" x="479.366996" y="324.52" style="stroke: #000000; stroke-width: 0.8"/>
      </g>
     </g>
     <g id="text_4">
      <text style="font: 12px 'DejaVu Sans', 'Bitstream Vera Sans', 'Computer Modern Sans Serif', 'Lucida Grande', 'Verdana', 'Geneva', 'Lucid', 'Arial', 'Helvetica', 'Avant Garde', sans-serif; text-anchor: middle" x="479.366996" y="340.638125" transform="rotate(-0 479.366996 340.638125)">20</text>
     </g>
    </g>
    <g id="xtick_5">
     <g id="line2d_5">
      <g>
       <use xlink:href="#ma02953bdbe" x="591.159076" y="324.52" style="stroke: #000000; stroke-width: 0.8"/>
      </g>
     </g>
     <g id="text_5">
      <text style="font: 12px 'DejaVu Sans', 'Bitstream Vera Sans', 'Computer Modern Sans Serif', 'Lucida Grande', 'Verdana', 'Geneva', 'Lucid', 'Arial', 'Helvetica', 'Avant Garde', sans-serif; text-anchor: middle" x="591.159076" y="340.638125" transform="rotate(-0 591.159076 340.638125)">25</text>
     </g>
    </g>
    <g id="text_6">
     <text style="font: 12px 'DejaVu Sans', 'Bitstream Vera Sans', 'Computer Modern Sans Serif', 'Lucida Grande', 'Verdana', 'Geneva', 'Lucid', 'Arial', 'Helvetica', 'Avant Garde', sans-serif; text-anchor: middle" x="322.858084" y="356.251875" transform="rotate(-0 322.858084 356.251875)">Addresses in conflict candidate group</text>
    </g>
   </g>
   <g id="matplotlib.axis_2">
    <g id="ytick_1">
     <g id="line2d_6">
      <defs>
       <path id="me11369f732" d="M 0 0 
L -3.5 0 
" style="stroke: #000000; stroke-width: 0.8"/>
      </defs>
      <g>
       <use xlink:href="#me11369f732" x="52.32125" y="299.184199" style="stroke: #000000; stroke-width: 0.8"/>
      </g>
     </g>
     <g id="text_7">
      <text style="font: 12px 'DejaVu Sans', 'Bitstream Vera Sans', 'Computer Modern Sans Serif', 'Lucida Grande', 'Verdana', 'Geneva', 'Lucid', 'Arial', 'Helvetica', 'Avant Garde', sans-serif; text-anchor: end" x="45.32125" y="303.743261" transform="rotate(-0 45.32125 303.743261)">5</text>
     </g>
    </g>
    <g id="ytick_2">
     <g id="line2d_7">
      <g>
       <use xlink:href="#me11369f732" x="52.32125" y="255.401527" style="stroke: #000000; stroke-width: 0.8"/>
      </g>
     </g>
     <g id="text_8">
      <text style="font: 12px 'DejaVu Sans', 'Bitstream Vera Sans', 'Computer Modern Sans Serif', 'Lucida Grande', 'Verdana', 'Geneva', 'Lucid', 'Arial', 'Helvetica', 'Avant Garde', sans-serif; text-anchor: end" x="45.32125" y="259.960589" transform="rotate(-0 45.32125 259.960589)">10</text>
     </g>
    </g>
    <g id="ytick_3">
     <g id="line2d_8">
      <g>
       <use xlink:href="#me11369f732" x="52.32125" y="211.618854" style="stroke: #000000; stroke-width: 0.8"/>
      </g>
     </g>
     <g id="text_9">
      <text style="font: 12px 'DejaVu Sans', 'Bitstream Vera Sans', 'Computer Modern Sans Serif', 'Lucida Grande', 'Verdana', 'Geneva', 'Lucid', 'Arial', 'Helvetica', 'Avant Garde', sans-serif; text-anchor: end" x="45.32125" y="216.177917" transform="rotate(-0 45.32125 216.177917)">15</text>
     </g>
    </g>
    <g id="ytick_4">
     <g id="line2d_9">
      <g>
       <use xlink:href="#me11369f732" x="52.32125" y="167.836182" style="stroke: #000000; stroke-width: 0.8"/>
      </g>
     </g>
     <g id="text_10">
      <text style="font: 12px 'DejaVu Sans', 'Bitstream Vera Sans', 'Computer Modern Sans Serif', 'Lucida Grande', 'Verdana', 'Geneva', 'Lucid', 'Arial', 'Helvetica', 'Avant Garde', sans-serif; text-anchor: end" x="45.32125" y="172.395245" transform="rotate(-0 45.32125 172.395245)">20</text>
     </g>
    </g>
    <g id="ytick_5">
     <g id="line2d_10">
      <g>
       <use xlink:href="#me11369f732" x="52.32125" y="124.05351" style="stroke: #000000; stroke-width: 0.8"/>
      </g>
     </g>
     <g id="text_11">
      <text style="font: 12px 'DejaVu Sans', 'Bitstream Vera Sans', 'Computer Modern Sans Serif', 'Lucida Grande', 'Verdana', 'Geneva', 'Lucid', 'Arial', 'Helvetica', 'Avant Garde', sans-serif; text-anchor: end" x="45.32125" y="128.612572" transform="rotate(-0 45.32125 128.612572)">25</text>
     </g>
    </g>
    <g id="ytick_6">
     <g id="line2d_11">
      <g>
       <use xlink:href="#me11369f732" x="52.32125" y="80.270838" style="stroke: #000000; stroke-width: 0.8"/>
      </g>
     </g>
     <g id="text_12">
      <text style="font: 12px 'DejaVu Sans', 'Bitstream Vera Sans', 'Computer Modern Sans Serif', 'Lucida Grande', 'Verdana', 'Geneva', 'Lucid', 'Arial', 'Helvetica', 'Avant Garde', sans-serif; text-anchor: end" x="45.32125" y="84.8299" transform="rotate(-0 45.32125 84.8299)">30</text>
     </g>
    </g>
    <g id="ytick_7">
     <g id="line2d_12">
      <g>
       <use xlink:href="#me11369f732" x="52.32125" y="36.488165" style="stroke: #000000; stroke-width: 0.8"/>
      </g>
     </g>
     <g id="text_13">
      <text style="font: 12px 'DejaVu Sans', 'Bitstream Vera Sans', 'Computer Modern Sans Serif', 'Lucida Grande', 'Verdana', 'Geneva', 'Lucid', 'Arial', 'Helvetica', 'Avant Garde', sans-serif; text-anchor: end" x="45.32125" y="41.047228" transform="rotate(-0 45.32125 41.047228)">35</text>
     </g>
    </g>
    <g id="text_14">
     <text style="font: 12px 'DejaVu Sans', 'Bitstream Vera Sans', 'Computer Modern Sans Serif', 'Lucida Grande', 'Verdana', 'Geneva', 'Lucid', 'Arial', 'Helvetica', 'Avant Garde', sans-serif; text-anchor: middle" x="23.221875" y="177.14" transform="rotate(-90 23.221875 177.14)">TSC_ticks/access (batch averages)</text>
    </g>
   </g>
   <g id="line2d_13">
    <path d="M 76.915508 311.087613 
L 99.273924 311.087613 
L 121.63234 311.087613 
L 143.990756 311.087613 
L 166.349172 311.087613 
L 188.707588 311.087613 
L 211.066004 310.129867 
L 233.42442 249.44982 
L 255.782836 249.44982 
L 278.141252 249.44982 
L 300.499668 249.44982 
L 322.858084 249.415614 
L 345.2165 249.415614 
L 367.574916 248.868331 
L 389.933332 249.381409 
L 412.291748 228.960897 
L 434.650164 210.832135 
L 457.00858 194.653069 
L 479.366996 180.047443 
L 501.725412 180.047443 
L 524.083828 180.047443 
L 546.442244 156.172205 
L 568.80066 180.081648 
" clip-path="url(#p43c571d2f5)" style="fill: none; stroke: #000000; stroke-width: 1.7; stroke-linecap: square"/>
    <defs>
     <path id="m3412a5df52" d="M 0 3 
C 0.795609 3 1.55874 2.683901 2.12132 2.12132 
C 2.683901 1.55874 3 0.795609 3 0 
C 3 -0.795609 2.683901 -1.55874 2.12132 -2.12132 
C 1.55874 -2.683901 0.795609 -3 0 -3 
C -0.795609 -3 -1.55874 -2.683901 -2.12132 -2.12132 
C -2.683901 -1.55874 -3 -0.795609 -3 0 
C -3 0.795609 -2.683901 1.55874 -2.12132 2.12132 
C -1.55874 2.683901 -0.795609 3 0 3 
z
" style="stroke: #000000"/>
    </defs>
    <g clip-path="url(#p43c571d2f5)">
     <use xlink:href="#m3412a5df52" x="76.915508" y="311.087613" style="stroke: #000000"/>
     <use xlink:href="#m3412a5df52" x="99.273924" y="311.087613" style="stroke: #000000"/>
     <use xlink:href="#m3412a5df52" x="121.63234" y="311.087613" style="stroke: #000000"/>
     <use xlink:href="#m3412a5df52" x="143.990756" y="311.087613" style="stroke: #000000"/>
     <use xlink:href="#m3412a5df52" x="166.349172" y="311.087613" style="stroke: #000000"/>
     <use xlink:href="#m3412a5df52" x="188.707588" y="311.087613" style="stroke: #000000"/>
     <use xlink:href="#m3412a5df52" x="211.066004" y="310.129867" style="stroke: #000000"/>
     <use xlink:href="#m3412a5df52" x="233.42442" y="249.44982" style="stroke: #000000"/>
     <use xlink:href="#m3412a5df52" x="255.782836" y="249.44982" style="stroke: #000000"/>
     <use xlink:href="#m3412a5df52" x="278.141252" y="249.44982" style="stroke: #000000"/>
     <use xlink:href="#m3412a5df52" x="300.499668" y="249.44982" style="stroke: #000000"/>
     <use xlink:href="#m3412a5df52" x="322.858084" y="249.415614" style="stroke: #000000"/>
     <use xlink:href="#m3412a5df52" x="345.2165" y="249.415614" style="stroke: #000000"/>
     <use xlink:href="#m3412a5df52" x="367.574916" y="248.868331" style="stroke: #000000"/>
     <use xlink:href="#m3412a5df52" x="389.933332" y="249.381409" style="stroke: #000000"/>
     <use xlink:href="#m3412a5df52" x="412.291748" y="228.960897" style="stroke: #000000"/>
     <use xlink:href="#m3412a5df52" x="434.650164" y="210.832135" style="stroke: #000000"/>
     <use xlink:href="#m3412a5df52" x="457.00858" y="194.653069" style="stroke: #000000"/>
     <use xlink:href="#m3412a5df52" x="479.366996" y="180.047443" style="stroke: #000000"/>
     <use xlink:href="#m3412a5df52" x="501.725412" y="180.047443" style="stroke: #000000"/>
     <use xlink:href="#m3412a5df52" x="524.083828" y="180.047443" style="stroke: #000000"/>
     <use xlink:href="#m3412a5df52" x="546.442244" y="156.172205" style="stroke: #000000"/>
     <use xlink:href="#m3412a5df52" x="568.80066" y="180.081648" style="stroke: #000000"/>
    </g>
   </g>
   <g id="line2d_14">
    <path d="M 76.915508 311.087613 
L 99.273924 311.087613 
L 121.63234 311.087613 
L 143.990756 241.719442 
L 166.349172 241.719442 
L 188.707588 241.719442 
L 211.066004 241.719442 
L 233.42442 180.047443 
L 255.782836 180.081648 
L 278.141252 180.081648 
L 300.499668 180.047443 
L 322.858084 180.081648 
L 345.2165 180.081648 
L 367.574916 122.069608 
L 389.933332 180.047443 
L 412.291748 180.047443 
L 434.650164 180.081648 
L 457.00858 180.047443 
L 479.366996 180.081648 
L 501.725412 153.435788 
L 524.083828 125.421718 
L 546.442244 106.33521 
L 568.80066 158.942827 
" clip-path="url(#p43c571d2f5)" style="fill: none; stroke: #2e2e2e; stroke-width: 1.7; stroke-linecap: square"/>
    <defs>
     <path id="m87d2e0b6f5" d="M -3 3 
L 3 3 
L 3 -3 
L -3 -3 
z
" style="stroke: #2e2e2e; stroke-linejoin: miter"/>
    </defs>
    <g clip-path="url(#p43c571d2f5)">
     <use xlink:href="#m87d2e0b6f5" x="76.915508" y="311.087613" style="fill: #2e2e2e; stroke: #2e2e2e; stroke-linejoin: miter"/>
     <use xlink:href="#m87d2e0b6f5" x="99.273924" y="311.087613" style="fill: #2e2e2e; stroke: #2e2e2e; stroke-linejoin: miter"/>
     <use xlink:href="#m87d2e0b6f5" x="121.63234" y="311.087613" style="fill: #2e2e2e; stroke: #2e2e2e; stroke-linejoin: miter"/>
     <use xlink:href="#m87d2e0b6f5" x="143.990756" y="241.719442" style="fill: #2e2e2e; stroke: #2e2e2e; stroke-linejoin: miter"/>
     <use xlink:href="#m87d2e0b6f5" x="166.349172" y="241.719442" style="fill: #2e2e2e; stroke: #2e2e2e; stroke-linejoin: miter"/>
     <use xlink:href="#m87d2e0b6f5" x="188.707588" y="241.719442" style="fill: #2e2e2e; stroke: #2e2e2e; stroke-linejoin: miter"/>
     <use xlink:href="#m87d2e0b6f5" x="211.066004" y="241.719442" style="fill: #2e2e2e; stroke: #2e2e2e; stroke-linejoin: miter"/>
     <use xlink:href="#m87d2e0b6f5" x="233.42442" y="180.047443" style="fill: #2e2e2e; stroke: #2e2e2e; stroke-linejoin: miter"/>
     <use xlink:href="#m87d2e0b6f5" x="255.782836" y="180.081648" style="fill: #2e2e2e; stroke: #2e2e2e; stroke-linejoin: miter"/>
     <use xlink:href="#m87d2e0b6f5" x="278.141252" y="180.081648" style="fill: #2e2e2e; stroke: #2e2e2e; stroke-linejoin: miter"/>
     <use xlink:href="#m87d2e0b6f5" x="300.499668" y="180.047443" style="fill: #2e2e2e; stroke: #2e2e2e; stroke-linejoin: miter"/>
     <use xlink:href="#m87d2e0b6f5" x="322.858084" y="180.081648" style="fill: #2e2e2e; stroke: #2e2e2e; stroke-linejoin: miter"/>
     <use xlink:href="#m87d2e0b6f5" x="345.2165" y="180.081648" style="fill: #2e2e2e; stroke: #2e2e2e; stroke-linejoin: miter"/>
     <use xlink:href="#m87d2e0b6f5" x="367.574916" y="122.069608" style="fill: #2e2e2e; stroke: #2e2e2e; stroke-linejoin: miter"/>
     <use xlink:href="#m87d2e0b6f5" x="389.933332" y="180.047443" style="fill: #2e2e2e; stroke: #2e2e2e; stroke-linejoin: miter"/>
     <use xlink:href="#m87d2e0b6f5" x="412.291748" y="180.047443" style="fill: #2e2e2e; stroke: #2e2e2e; stroke-linejoin: miter"/>
     <use xlink:href="#m87d2e0b6f5" x="434.650164" y="180.081648" style="fill: #2e2e2e; stroke: #2e2e2e; stroke-linejoin: miter"/>
     <use xlink:href="#m87d2e0b6f5" x="457.00858" y="180.047443" style="fill: #2e2e2e; stroke: #2e2e2e; stroke-linejoin: miter"/>
     <use xlink:href="#m87d2e0b6f5" x="479.366996" y="180.081648" style="fill: #2e2e2e; stroke: #2e2e2e; stroke-linejoin: miter"/>
     <use xlink:href="#m87d2e0b6f5" x="501.725412" y="153.435788" style="fill: #2e2e2e; stroke: #2e2e2e; stroke-linejoin: miter"/>
     <use xlink:href="#m87d2e0b6f5" x="524.083828" y="125.421718" style="fill: #2e2e2e; stroke: #2e2e2e; stroke-linejoin: miter"/>
     <use xlink:href="#m87d2e0b6f5" x="546.442244" y="106.33521" style="fill: #2e2e2e; stroke: #2e2e2e; stroke-linejoin: miter"/>
     <use xlink:href="#m87d2e0b6f5" x="568.80066" y="158.942827" style="fill: #2e2e2e; stroke: #2e2e2e; stroke-linejoin: miter"/>
    </g>
   </g>
   <g id="line2d_15">
    <path d="M 76.915508 311.087613 
L 99.273924 311.087613 
L 121.63234 311.087613 
L 143.990756 311.087613 
L 166.349172 311.087613 
L 188.707588 311.087613 
L 211.066004 311.087613 
L 233.42442 249.44982 
L 255.782836 249.44982 
L 278.141252 249.44982 
L 300.499668 249.44982 
L 322.858084 249.347204 
L 345.2165 249.44982 
L 367.574916 249.44982 
L 389.933332 249.44982 
L 412.291748 249.44982 
L 434.650164 249.44982 
L 457.00858 249.44982 
L 479.366996 192.292909 
L 501.725412 249.44982 
L 524.083828 224.787861 
L 546.442244 249.44982 
L 568.80066 249.44982 
" clip-path="url(#p43c571d2f5)" style="fill: none; stroke: #5c5c5c; stroke-width: 1.7; stroke-linecap: square"/>
    <defs>
     <path id="m765d7954fe" d="M 0 -3 
L -3 3 
L 3 3 
z
" style="stroke: #5c5c5c; stroke-linejoin: miter"/>
    </defs>
    <g clip-path="url(#p43c571d2f5)">
     <use xlink:href="#m765d7954fe" x="76.915508" y="311.087613" style="fill: #5c5c5c; stroke: #5c5c5c; stroke-linejoin: miter"/>
     <use xlink:href="#m765d7954fe" x="99.273924" y="311.087613" style="fill: #5c5c5c; stroke: #5c5c5c; stroke-linejoin: miter"/>
     <use xlink:href="#m765d7954fe" x="121.63234" y="311.087613" style="fill: #5c5c5c; stroke: #5c5c5c; stroke-linejoin: miter"/>
     <use xlink:href="#m765d7954fe" x="143.990756" y="311.087613" style="fill: #5c5c5c; stroke: #5c5c5c; stroke-linejoin: miter"/>
     <use xlink:href="#m765d7954fe" x="166.349172" y="311.087613" style="fill: #5c5c5c; stroke: #5c5c5c; stroke-linejoin: miter"/>
     <use xlink:href="#m765d7954fe" x="188.707588" y="311.087613" style="fill: #5c5c5c; stroke: #5c5c5c; stroke-linejoin: miter"/>
     <use xlink:href="#m765d7954fe" x="211.066004" y="311.087613" style="fill: #5c5c5c; stroke: #5c5c5c; stroke-linejoin: miter"/>
     <use xlink:href="#m765d7954fe" x="233.42442" y="249.44982" style="fill: #5c5c5c; stroke: #5c5c5c; stroke-linejoin: miter"/>
     <use xlink:href="#m765d7954fe" x="255.782836" y="249.44982" style="fill: #5c5c5c; stroke: #5c5c5c; stroke-linejoin: miter"/>
     <use xlink:href="#m765d7954fe" x="278.141252" y="249.44982" style="fill: #5c5c5c; stroke: #5c5c5c; stroke-linejoin: miter"/>
     <use xlink:href="#m765d7954fe" x="300.499668" y="249.44982" style="fill: #5c5c5c; stroke: #5c5c5c; stroke-linejoin: miter"/>
     <use xlink:href="#m765d7954fe" x="322.858084" y="249.347204" style="fill: #5c5c5c; stroke: #5c5c5c; stroke-linejoin: miter"/>
     <use xlink:href="#m765d7954fe" x="345.2165" y="249.44982" style="fill: #5c5c5c; stroke: #5c5c5c; stroke-linejoin: miter"/>
     <use xlink:href="#m765d7954fe" x="367.574916" y="249.44982" style="fill: #5c5c5c; stroke: #5c5c5c; stroke-linejoin: miter"/>
     <use xlink:href="#m765d7954fe" x="389.933332" y="249.44982" style="fill: #5c5c5c; stroke: #5c5c5c; stroke-linejoin: miter"/>
     <use xlink:href="#m765d7954fe" x="412.291748" y="249.44982" style="fill: #5c5c5c; stroke: #5c5c5c; stroke-linejoin: miter"/>
     <use xlink:href="#m765d7954fe" x="434.650164" y="249.44982" style="fill: #5c5c5c; stroke: #5c5c5c; stroke-linejoin: miter"/>
     <use xlink:href="#m765d7954fe" x="457.00858" y="249.44982" style="fill: #5c5c5c; stroke: #5c5c5c; stroke-linejoin: miter"/>
     <use xlink:href="#m765d7954fe" x="479.366996" y="192.292909" style="fill: #5c5c5c; stroke: #5c5c5c; stroke-linejoin: miter"/>
     <use xlink:href="#m765d7954fe" x="501.725412" y="249.44982" style="fill: #5c5c5c; stroke: #5c5c5c; stroke-linejoin: miter"/>
     <use xlink:href="#m765d7954fe" x="524.083828" y="224.787861" style="fill: #5c5c5c; stroke: #5c5c5c; stroke-linejoin: miter"/>
     <use xlink:href="#m765d7954fe" x="546.442244" y="249.44982" style="fill: #5c5c5c; stroke: #5c5c5c; stroke-linejoin: miter"/>
     <use xlink:href="#m765d7954fe" x="568.80066" y="249.44982" style="fill: #5c5c5c; stroke: #5c5c5c; stroke-linejoin: miter"/>
    </g>
   </g>
   <g id="line2d_16">
    <path d="M 76.915508 311.087613 
L 99.273924 311.087613 
L 121.63234 311.087613 
L 143.990756 241.719442 
L 166.349172 241.719442 
L 188.707588 241.719442 
L 211.066004 241.719442 
L 233.42442 180.047443 
L 255.782836 180.047443 
L 278.141252 180.081648 
L 300.499668 180.047443 
L 322.858084 85.093773 
L 345.2165 180.081648 
L 367.574916 180.047443 
L 389.933332 148.031364 
L 412.291748 112.971021 
L 434.650164 148.168185 
L 457.00858 180.047443 
L 479.366996 44.150133 
L 501.725412 180.047443 
L 524.083828 121.659145 
L 546.442244 156.548462 
L 568.80066 155.693332 
" clip-path="url(#p43c571d2f5)" style="fill: none; stroke: #8a8a8a; stroke-width: 1.7; stroke-linecap: square"/>
    <defs>
     <path id="md8cdabee29" d="M -0 4.242641 
L 4.242641 0 
L 0 -4.242641 
L -4.242641 -0 
z
" style="stroke: #8a8a8a; stroke-linejoin: miter"/>
    </defs>
    <g clip-path="url(#p43c571d2f5)">
     <use xlink:href="#md8cdabee29" x="76.915508" y="311.087613" style="fill: #8a8a8a; stroke: #8a8a8a; stroke-linejoin: miter"/>
     <use xlink:href="#md8cdabee29" x="99.273924" y="311.087613" style="fill: #8a8a8a; stroke: #8a8a8a; stroke-linejoin: miter"/>
     <use xlink:href="#md8cdabee29" x="121.63234" y="311.087613" style="fill: #8a8a8a; stroke: #8a8a8a; stroke-linejoin: miter"/>
     <use xlink:href="#md8cdabee29" x="143.990756" y="241.719442" style="fill: #8a8a8a; stroke: #8a8a8a; stroke-linejoin: miter"/>
     <use xlink:href="#md8cdabee29" x="166.349172" y="241.719442" style="fill: #8a8a8a; stroke: #8a8a8a; stroke-linejoin: miter"/>
     <use xlink:href="#md8cdabee29" x="188.707588" y="241.719442" style="fill: #8a8a8a; stroke: #8a8a8a; stroke-linejoin: miter"/>
     <use xlink:href="#md8cdabee29" x="211.066004" y="241.719442" style="fill: #8a8a8a; stroke: #8a8a8a; stroke-linejoin: miter"/>
     <use xlink:href="#md8cdabee29" x="233.42442" y="180.047443" style="fill: #8a8a8a; stroke: #8a8a8a; stroke-linejoin: miter"/>
     <use xlink:href="#md8cdabee29" x="255.782836" y="180.047443" style="fill: #8a8a8a; stroke: #8a8a8a; stroke-linejoin: miter"/>
     <use xlink:href="#md8cdabee29" x="278.141252" y="180.081648" style="fill: #8a8a8a; stroke: #8a8a8a; stroke-linejoin: miter"/>
     <use xlink:href="#md8cdabee29" x="300.499668" y="180.047443" style="fill: #8a8a8a; stroke: #8a8a8a; stroke-linejoin: miter"/>
     <use xlink:href="#md8cdabee29" x="322.858084" y="85.093773" style="fill: #8a8a8a; stroke: #8a8a8a; stroke-linejoin: miter"/>
     <use xlink:href="#md8cdabee29" x="345.2165" y="180.081648" style="fill: #8a8a8a; stroke: #8a8a8a; stroke-linejoin: miter"/>
     <use xlink:href="#md8cdabee29" x="367.574916" y="180.047443" style="fill: #8a8a8a; stroke: #8a8a8a; stroke-linejoin: miter"/>
     <use xlink:href="#md8cdabee29" x="389.933332" y="148.031364" style="fill: #8a8a8a; stroke: #8a8a8a; stroke-linejoin: miter"/>
     <use xlink:href="#md8cdabee29" x="412.291748" y="112.971021" style="fill: #8a8a8a; stroke: #8a8a8a; stroke-linejoin: miter"/>
     <use xlink:href="#md8cdabee29" x="434.650164" y="148.168185" style="fill: #8a8a8a; stroke: #8a8a8a; stroke-linejoin: miter"/>
     <use xlink:href="#md8cdabee29" x="457.00858" y="180.047443" style="fill: #8a8a8a; stroke: #8a8a8a; stroke-linejoin: miter"/>
     <use xlink:href="#md8cdabee29" x="479.366996" y="44.150133" style="fill: #8a8a8a; stroke: #8a8a8a; stroke-linejoin: miter"/>
     <use xlink:href="#md8cdabee29" x="501.725412" y="180.047443" style="fill: #8a8a8a; stroke: #8a8a8a; stroke-linejoin: miter"/>
     <use xlink:href="#md8cdabee29" x="524.083828" y="121.659145" style="fill: #8a8a8a; stroke: #8a8a8a; stroke-linejoin: miter"/>
     <use xlink:href="#md8cdabee29" x="546.442244" y="156.548462" style="fill: #8a8a8a; stroke: #8a8a8a; stroke-linejoin: miter"/>
     <use xlink:href="#md8cdabee29" x="568.80066" y="155.693332" style="fill: #8a8a8a; stroke: #8a8a8a; stroke-linejoin: miter"/>
    </g>
   </g>
   <g id="patch_3">
    <path d="M 52.32125 324.52 
L 52.32125 29.76 
" style="fill: none; stroke: #000000; stroke-width: 0.8; stroke-linejoin: miter; stroke-linecap: square"/>
   </g>
   <g id="patch_4">
    <path d="M 52.32125 324.52 
L 593.394917 324.52 
" style="fill: none; stroke: #000000; stroke-width: 0.8; stroke-linejoin: miter; stroke-linecap: square"/>
   </g>
   <g id="text_15">
    <text style="font: 14.4px 'DejaVu Sans', 'Bitstream Vera Sans', 'Computer Modern Sans Serif', 'Lucida Grande', 'Verdana', 'Geneva', 'Lucid', 'Arial', 'Helvetica', 'Avant Garde', sans-serif; text-anchor: middle" x="322.858084" y="23.76" transform="rotate(-0 322.858084 23.76)">ookay — associativity</text>
   </g>
   <g id="legend_1">
    <g id="patch_5">
     <path d="M 58.62125 89.80125 
L 159.3425 89.80125 
Q 161.1425 89.80125 161.1425 88.00125 
L 161.1425 36.06 
Q 161.1425 34.26 159.3425 34.26 
L 58.62125 34.26 
Q 56.82125 34.26 56.82125 36.06 
L 56.82125 88.00125 
Q 56.82125 89.80125 58.62125 89.80125 
z
" style="fill: #ffffff; opacity: 0.8; stroke: #cccccc; stroke-linejoin: miter"/>
    </g>
    <g id="line2d_17">
     <path d="M 60.42125 41.548594 
L 69.42125 41.548594 
L 78.42125 41.548594 
" style="fill: none; stroke: #000000; stroke-width: 1.7; stroke-linecap: square"/>
     <g>
      <use xlink:href="#m3412a5df52" x="69.42125" y="41.548594" style="stroke: #000000"/>
     </g>
    </g>
    <g id="text_16">
     <text style="font: 9px 'DejaVu Sans', 'Bitstream Vera Sans', 'Computer Modern Sans Serif', 'Lucida Grande', 'Verdana', 'Geneva', 'Lucid', 'Arial', 'Helvetica', 'Avant Garde', sans-serif; text-anchor: start" x="85.62125" y="44.698594" transform="rotate(-0 85.62125 44.698594)">stride 16384 B</text>
    </g>
    <g id="line2d_18">
     <path d="M 60.42125 54.758906 
L 69.42125 54.758906 
L 78.42125 54.758906 
" style="fill: none; stroke: #2e2e2e; stroke-width: 1.7; stroke-linecap: square"/>
     <g>
      <use xlink:href="#m87d2e0b6f5" x="69.42125" y="54.758906" style="fill: #2e2e2e; stroke: #2e2e2e; stroke-linejoin: miter"/>
     </g>
    </g>
    <g id="text_17">
     <text style="font: 9px 'DejaVu Sans', 'Bitstream Vera Sans', 'Computer Modern Sans Serif', 'Lucida Grande', 'Verdana', 'Geneva', 'Lucid', 'Arial', 'Helvetica', 'Avant Garde', sans-serif; text-anchor: start" x="85.62125" y="57.908906" transform="rotate(-0 85.62125 57.908906)">stride 262144 B</text>
    </g>
    <g id="line2d_19">
     <path d="M 60.42125 67.969219 
L 69.42125 67.969219 
L 78.42125 67.969219 
" style="fill: none; stroke: #5c5c5c; stroke-width: 1.7; stroke-linecap: square"/>
     <g>
      <use xlink:href="#m765d7954fe" x="69.42125" y="67.969219" style="fill: #5c5c5c; stroke: #5c5c5c; stroke-linejoin: miter"/>
     </g>
    </g>
    <g id="text_18">
     <text style="font: 9px 'DejaVu Sans', 'Bitstream Vera Sans', 'Computer Modern Sans Serif', 'Lucida Grande', 'Verdana', 'Geneva', 'Lucid', 'Arial', 'Helvetica', 'Avant Garde', sans-serif; text-anchor: start" x="85.62125" y="71.119219" transform="rotate(-0 85.62125 71.119219)">stride 4096 B</text>
    </g>
    <g id="line2d_20">
     <path d="M 60.42125 81.179531 
L 69.42125 81.179531 
L 78.42125 81.179531 
" style="fill: none; stroke: #8a8a8a; stroke-width: 1.7; stroke-linecap: square"/>
     <g>
      <use xlink:href="#md8cdabee29" x="69.42125" y="81.179531" style="fill: #8a8a8a; stroke: #8a8a8a; stroke-linejoin: miter"/>
     </g>
    </g>
    <g id="text_19">
     <text style="font: 9px 'DejaVu Sans', 'Bitstream Vera Sans', 'Computer Modern Sans Serif', 'Lucida Grande', 'Verdana', 'Geneva', 'Lucid', 'Arial', 'Helvetica', 'Avant Garde', sans-serif; text-anchor: start" x="85.62125" y="84.329531" transform="rotate(-0 85.62125 84.329531)">stride 65536 B</text>
    </g>
   </g>
  </g>
 </g>
 <defs>
  <clipPath id="p43c571d2f5">
   <rect x="52.32125" y="29.76" width="541.073667" height="294.76"/>
  </clipPath>
 </defs>
</svg>
