<?xml version="1.0" encoding="utf-8" standalone="no"?>
<!DOCTYPE svg PUBLIC "-//W3C//DTD SVG 1.1//EN"
  "http://www.w3.org/Graphics/SVG/1.1/DTD/svg11.dtd">
<svg xmlns:xlink="http://www.w3.org/1999/xlink" width="612pt" height="374.4pt" viewBox="0 0 612 374.4" xmlns="http://www.w3.org/2000/svg" version="1.1">
 <metadata>
  <rdf:RDF xmlns:dc="http://purl.org/dc/elements/1.1/" xmlns:cc="http://creativecommons.org/ns#" xmlns:rdf="http://www.w3.org/1999/02/22-rdf-syntax-ns#">
   <cc:Work>
    <dc:type rdf:resource="http://purl.org/dc/dcmitype/StillImage"/>
    <dc:date>2026-09-08T02:54:12.968401</dc:date>
    <dc:format>image/svg+xml</dc:format>
    <dc:creator>
     <cc:Agent>
      <dc:title>Matplotlib v3.9.4, https://matplotlib.org/</dc:title>
     </cc:Agent>
    </dc:creator>
   </cc:Work>
  </rdf:RDF>
 </metadata>
 <defs>
  <style type="text/css">*{stroke-linejoin: round; stroke-linecap: butt}</style>
 </defs>
 <g id="figure_1">
  <g id="patch_1">
   <path d="M 0 374.4 
L 612 374.4 
L 612 0 
L 0 0 
z
" style="fill: #ffffff"/>
  </g>
  <g id="axes_1">
   <g id="patch_2">
    <path d="M 52.41125 324.52 
L 593.394917 324.52 
L 593.394917 29.76 
L 52.41125 29.76 
z
" style="fill: #ffffff"/>
   </g>
   <g id="PolyCollection_1">
    <defs>
     <path id="m41e281806b" d="M 77.001417 -63.409569 
L 77.001417 -63.278182 
L 99.356114 -63.278182 
L 121.710811 -63.278182 
L 144.065508 -63.278182 
L 166.420205 -63.278182 
L 188.774902 -63.278182 
L 211.129599 -63.278182 
L 233.484296 -151.077495 
L 255.838993 -151.110342 
L 278.19369 -151.110342 
L 300.548387 -151.110342 
L 322.903084 -152.555598 
L 345.257781 -151.143189 
L 367.612478 -151.176036 
L 389.967175 -151.176036 
L 412.321872 -180.245393 
L 434.676569 -262.723536 
L 457.031266 -273.661498 
L 479.385963 -305.457134 
L 501.74066 -249.946157 
L 524.095357 -300.431584 
L 546.450054 -249.979004 
L 568.804751 -325.723567 
L 568.804751 -327.464444 
L 568.804751 -327.464444 
L 546.450054 -250.537399 
L 524.095357 -301.87684 
L 501.74066 -250.537399 
L 479.385963 -306.771003 
L 457.031266 -274.581206 
L 434.676569 -263.741785 
L 412.321872 -180.770941 
L 389.967175 -151.767277 
L 367.612478 -151.83297 
L 345.257781 -151.53735 
L 322.903084 -152.949759 
L 300.548387 -151.438809 
L 278.19369 -151.438809 
L 255.838993 -151.438809 
L 233.484296 -151.438809 
L 211.129599 -63.409569 
L 188.774902 -63.409569 
L 166.420205 -63.409569 
L 144.065508 -63.409569 
L 121.710811 -63.409569 
L 99.356114 -63.409569 
L 77.001417 -63.409569 
z
" style="stroke: #b2b2b2; stroke-opacity: 0.25"/>
    </defs>
    <g clip-path="url(#p55c5aa4f02)">
     <use xlink:href="#m41e281806b" x="0" y="374.4" style="fill: #b2b2b2; fill-opacity: 0.25; stroke: #b2b2b2; stroke-opacity: 0.25"/>
    </g>
   </g>
   <g id="PolyCollection_2">
    <defs>
     <path id="m911e12c7a6" d="M 77.001417 -63.409569 
L 77.001417 -63.278182 
L 99.356114 -63.278182 
L 121.710811 -63.278182 
L 144.065508 -161.949764 
L 166.420205 -162.146844 
L 188.774902 -162.113997 
L 211.129599 -162.146844 
L 233.484296 -249.946157 
L 255.838993 -249.946157 
L 278.19369 -249.946157 
L 300.548387 -249.946157 
L 322.903084 -249.946157 
L 345.257781 -249.946157 
L 367.612478 -249.946157 
L 389.967175 -249.946157 
L 412.321872 -249.946157 
L 434.676569 -249.946157 
L 457.031266 -249.979004 
L 479.385963 -249.946157 
L 501.74066 -249.946157 
L 524.095357 -287.752746 
L 546.450054 -249.946157 
L 568.804751 -328.975394 
L 568.804751 -331.241818 
L 568.804751 -331.241818 
L 546.450054 -250.537399 
L 524.095357 -288.836688 
L 501.74066 -250.537399 
L 479.385963 -250.504552 
L 457.031266 -250.537399 
L 434.676569 -250.537399 
L 412.321872 -250.537399 
L 389.967175 -250.537399 
L 367.612478 -250.537399 
L 345.257781 -250.537399 
L 322.903084 -250.537399 
L 300.548387 -250.537399 
L 278.19369 -250.504552 
L 255.838993 -250.537399 
L 233.484296 -250.537399 
L 211.129599 -162.475311 
L 188.774902 -162.475311 
L 166.420205 -162.475311 
L 144.065508 -162.376771 
L 121.710811 -63.409569 
L 99.356114 -63.409569 
L 77.001417 -63.409569 
z
" style="stroke: #b2b2b2; stroke-opacity: 0.25"/>
    </defs>
    <g clip-path="url(#p55c5aa4f02)">
     <use xlink:href="#m911e12c7a6" x="0" y="374.4" style="fill: #b2b2b2; fill-opacity: 0.25; stroke: #b2b2b2; stroke-opacity: 0.25"/>
    </g>
   </g>
   <g id="PolyCollection_3">
    <defs>
     <path id="me2041aabaa" d="M 77.001417 -63.409569 
L 77.001417 -63.278182 
L 99.356114 -63.278182 
L 121.710811 -63.278182 
L 144.065508 -63.278182 
L 166.420205 -63.278182 
L 188.774902 -63.278182 
L 211.129599 -63.278182 
L 233.484296 -112.088425 
L 255.838993 -151.110342 
L 278.19369 -151.110342 
L 300.548387 -151.110342 
L 322.903084 -151.110342 
L 345.257781 -151.110342 
L 367.612478 -151.110342 
L 389.967175 -151.110342 
L 412.321872 -151.110342 
L 434.676569 -151.110342 
L 457.031266 -151.110342 
L 479.385963 -151.110342 
L 501.74066 -151.110342 
L 524.095357 -197.424234 
L 546.450054 -151.110342 
L 568.804751 -195.124962 
L 568.804751 -196.307445 
L 568.804751 -196.307445 
L 546.450054 -151.438809 
L 524.095357 -198.442482 
L 501.74066 -151.438809 
L 479.385963 -151.438809 
L 457.031266 -151.438809 
L 434.676569 -151.438809 
L 412.321872 -151.438809 
L 389.967175 -151.438809 
L 367.612478 -151.438809 
L 345.257781 -151.438809 
L 322.903084 -151.438809 
L 300.548387 -151.438809 
L 278.19369 -151.438809 
L 255.838993 -151.438809 
L 233.484296 -112.285505 
L 211.129599 -63.409569 
L 188.774902 -63.475262 
L 166.420205 -63.409569 
L 144.065508 -63.409569 
L 121.710811 -63.409569 
L 99.356114 -63.409569 
L 77.001417 -63.409569 
z
" style="stroke: #b2b2b2; stroke-opacity: 0.25"/>
    </defs>
    <g clip-path="url(#p55c5aa4f02)">
     <use xlink:href="#me2041aabaa" x="0" y="374.4" style="fill: #b2b2b2; fill-opacity: 0.25; stroke: #b2b2b2; stroke-opacity: 0.25"/>
    </g>
   </g>
   <g id="PolyCollection_4">
    <defs>
     <path id="m99348fcb95" d="M 77.001417 -63.409569 
L 77.001417 -63.278182 
L 99.356114 -63.278182 
L 121.710811 -63.278182 
L 144.065508 -162.146844 
L 166.420205 -162.146844 
L 188.774902 -162.146844 
L 211.129599 -162.146844 
L 233.484296 -249.946157 
L 255.838993 -249.946157 
L 278.19369 -249.946157 
L 300.548387 -249.979004 
L 322.903084 -249.946157 
L 345.257781 -249.946157 
L 367.612478 -249.946157 
L 389.967175 -249.946157 
L 412.321872 -250.011851 
L 434.676569 -249.946157 
L 457.031266 -249.979004 
L 479.385963 -249.946157 
L 501.74066 -249.946157 
L 524.095357 -249.946157 
L 546.450054 -249.979004 
L 568.804751 -249.946157 
L 568.804751 -250.537399 
L 568.804751 -250.537399 
L 546.450054 -250.570245 
L 524.095357 -250.504552 
L 501.74066 -250.537399 
L 479.385963 -250.537399 
L 457.031266 -250.603092 
L 434.676569 -250.504552 
L 412.321872 -250.668786 
L 389.967175 -250.537399 
L 367.612478 -250.537399 
L 345.257781 -250.504552 
L 322.903084 -250.537399 
L 300.548387 -250.570245 
L 278.19369 -250.537399 
L 255.838993 -250.570245 
L 233.484296 -250.537399 
L 211.129599 -162.475311 
L 188.774902 -162.475311 
L 166.420205 -162.475311 
L 144.065508 -162.475311 
L 121.710811 -63.409569 
L 99.356114 -63.409569 
L 77.001417 -63.409569 
z
" style="stroke: #b2b2b2; stroke-opacity: 0.25"/>
    </defs>
    <g clip-path="url(#p55c5aa4f02)">
     <use xlink:href="#m99348fcb95" x="0" y="374.4" style="fill: #b2b2b2; fill-opacity: 0.25; stroke: #b2b2b2; stroke-opacity: 0.25"/>
    </g>
   </g>
   <g id="matplotlib.axis_1">
    <g id="xtick_1">
     <g id="line2d_1">
      <defs>
       <path id="m56a784663b" d="M 0 0 
L 0 3.5 
" style="stroke: #000000; stroke-width: 0.8"/>
      </defs>
      <g>
       <use xlink:href="#m56a784663b" x="144.065508" y="324.52" style="stroke: #000000; stroke-width: 0.8"/>
      </g>
     </g>
     <g id="text_1">
      <text style="font: 12px 'DejaVu Sans', 'Bitstream Vera Sans', 'Computer Modern Sans Serif', 'Lucida Grande', 'Verdana', 'Geneva', 'Lucid', 'Arial', 'Helvetica', 'Avant Garde', sans-serif; text-anchor: middle" x="144.065508" y="340.638125" transform="rotate(-0 144.065508 340.638125)">5</text>
     </g>
    </g>
    <g id="xtick_2">
     <g id="line2d_2">
      <g>
       <use xlink:href="#m56a784663b" x="255.838993" y="324.52" style="stroke: #000000; stroke-width: 0.8"/>
      </g>
     </g>
     <g id="text_2">
      <text style="font: 12px 'DejaVu Sans', 'Bitstream Vera Sans', 'Computer Modern Sans Serif', 'Lucida Grande', 'Verdana', 'Geneva', 'Lucid', 'Arial', 'Helvetica', 'Avant Garde', sans-serif; text-anchor: middle" x="255.838993" y="340.638125" transform="rotate(-0 255.838993 340.638125)">10</text>
     </g>
    </g>
    <g id="xtick_3">
     <g id="line2d_3">
      <g>
       <use xlink:href="#m56a784663b" x="367.612478" y="324.52" style="stroke: #000000; stroke-width: 0.8"/>
      </g>
     </g>
     <g id="text_3">
      <text style="font: 12px 'DejaVu Sans', 'Bitstream Vera Sans', 'Computer Modern Sans Serif', 'Lucida Grande', 'Verdana', 'Geneva', 'Lucid', 'Arial', 'Helvetica', 'Avant Garde', sans-serif; text-anchor: middle" x="367.612478" y="340.638125" transform="rotate(-0 367.612478 340.638125)">15</text>
     </g>
    </g>
    <g id="xtick_4">
     <g id="line2d_4">
      <g>
       <use xlink:href="#m56a784663b" x="479.385963" y="324.52" style="stroke: #000000; stroke-width: 0.8"/>
      </g>
     </g>
     <g id="text_4">
      <text style="font: 12px 'DejaVu Sans', 'Bitstream Vera Sans', 'Computer Modern Sans Serif', 'Lucida Grande', 'Verdana', 'Geneva', 'Lucid', 'Arial', 'Helvetica', 'Avant Garde', sans-serif; text-anchor: middle" x="479.385963" y="340.638125" transform="rotate(-0 479.385963 340.638125)">20</text>
     </g>
    </g>
    <g id="xtick_5">
     <g id="line2d_5">
      <g>
       <use xlink:href="#m56a784663b" x="591.159448" y="324.52" style="stroke: #000000; stroke-width: 0.8"/>
      </g>
     </g>
     <g id="text_5">
      <text style="font: 12px 'DejaVu Sans', 'Bitstream Vera Sans', 'Computer Modern Sans Serif', 'Lucida Grande', 'Verdana', 'Geneva', 'Lucid', 'Arial', 'Helvetica', 'Avant Garde', sans-serif; text-anchor: middle" x="591.159448" y="340.638125" transform="rotate(-0 591.159448 340.638125)">25</text>
     </g>
    </g>
    <g id="text_6">
     <text style="font: 12px 'DejaVu Sans', 'Bitstream Vera Sans', 'Computer Modern Sans Serif', 'Lucida Grande', 'Verdana', 'Geneva', 'Lucid', 'Arial', 'Helvetica', 'Avant Garde', sans-serif; text-anchor: middle" x="322.903084" y="356.251875" transform="rotate(-0 322.903084 356.251875)">Addresses in conflict candidate group</text>
    </g>
   </g>
   <g id="matplotlib.axis_2">
    <g id="ytick_1">
     <g id="line2d_6">
      <defs>
       <path id="m842d990b1b" d="M 0 0 
L -3.5 0 
" style="stroke: #000000; stroke-width: 0.8"/>
      </defs>
      <g>
       <use xlink:href="#m842d990b1b" x="52.41125" y="322.913795" style="stroke: #000000; stroke-width: 0.8"/>
      </g>
     </g>
     <g id="text_7">
      <text style="font: 12px 'DejaVu Sans', 'Bitstream Vera Sans', 'Computer Modern Sans Serif', 'Lucida Grande', 'Verdana', 'Geneva', 'Lucid', 'Arial', 'Helvetica', 'Avant Garde', sans-serif; text-anchor: end" x="45.41125" y="327.472857" transform="rotate(-0 45.41125 327.472857)">2</text>
     </g>
    </g>
    <g id="ytick_2">
     <g id="line2d_7">
      <g>
       <use xlink:href="#m842d990b1b" x="52.41125" y="289.278742" style="stroke: #000000; stroke-width: 0.8"/>
      </g>
     </g>
     <g id="text_8">
      <text style="font: 12px 'DejaVu Sans', 'Bitstream Vera Sans', 'Computer Modern Sans Serif', 'Lucida Grande', 'Verdana', 'Geneva', 'Lucid', 'Arial', 'Helvetica', 'Avant Garde', sans-serif; text-anchor: end" x="45.41125" y="293.837804" transform="rotate(-0 45.41125 293.837804)">4</text>
     </g>
    </g>
    <g id="ytick_3">
     <g id="line2d_8">
      <g>
       <use xlink:href="#m842d990b1b" x="52.41125" y="255.643689" style="stroke: #000000; stroke-width: 0.8"/>
      </g>
     </g>
     <g id="text_9">
      <text style="font: 12px 'DejaVu Sans', 'Bitstream Vera Sans', 'Computer Modern Sans Serif', 'Lucida Grande', 'Verdana', 'Geneva', 'Lucid', 'Arial', 'Helvetica', 'Avant Garde', sans-serif; text-anchor: end" x="45.41125" y="260.202751" transform="rotate(-0 45.41125 260.202751)">6</text>
     </g>
    </g>
    <g id="ytick_4">
     <g id="line2d_9">
      <g>
       <use xlink:href="#m842d990b1b" x="52.41125" y="222.008635" style="stroke: #000000; stroke-width: 0.8"/>
      </g>
     </g>
     <g id="text_10">
      <text style="font: 12px 'DejaVu Sans', 'Bitstream Vera Sans', 'Computer Modern Sans Serif', 'Lucida Grande', 'Verdana', 'Geneva', 'Lucid', 'Arial', 'Helvetica', 'Avant Garde', sans-serif; text-anchor: end" x="45.41125" y="226.567698" transform="rotate(-0 45.41125 226.567698)">8</text>
     </g>
    </g>
    <g id="ytick_5">
     <g id="line2d_10">
      <g>
       <use xlink:href="#m842d990b1b" x="52.41125" y="188.373582" style="stroke: #000000; stroke-width: 0.8"/>
      </g>
     </g>
     <g id="text_11">
      <text style="font: 12px 'DejaVu Sans', 'Bitstream Vera Sans', 'Computer Modern Sans Serif', 'Lucida Grande', 'Verdana', 'Geneva', 'Lucid', 'Arial', 'Helvetica', 'Avant Garde', sans-serif; text-anchor: end" x="45.41125" y="192.932645" transform="rotate(-0 45.41125 192.932645)">10</text>
     </g>
    </g>
    <g id="ytick_6">
     <g id="line2d_11">
      <g>
       <use xlink:href="#m842d990b1b" x="52.41125" y="154.738529" style="stroke: #000000; stroke-width: 0.8"/>
      </g>
     </g>
     <g id="text_12">
      <text style="font: 12px 'DejaVu Sans', 'Bitstream Vera Sans', 'Computer Modern Sans Serif', 'Lucida Grande', 'Verdana', 'Geneva', 'Lucid', 'Arial', 'Helvetica', 'Avant Garde', sans-serif; text-anchor: end" x="45.41125" y="159.297592" transform="rotate(-0 45.41125 159.297592)">12</text>
     </g>
    </g>
    <g id="ytick_7">
     <g id="line2d_12">
      <g>
       <use xlink:href="#m842d990b1b" x="52.41125" y="121.103476" style="stroke: #000000; stroke-width: 0.8"/>
      </g>
     </g>
     <g id="text_13">
      <text style="font: 12px 'DejaVu Sans', 'Bitstream Vera Sans', 'Computer Modern Sans Serif', 'Lucida Grande', 'Verdana', 'Geneva', 'Lucid', 'Arial', 'Helvetica', 'Avant Garde', sans-serif; text-anchor: end" x="45.41125" y="125.662538" transform="rotate(-0 45.41125 125.662538)">14</text>
     </g>
    </g>
    <g id="ytick_8">
     <g id="line2d_13">
      <g>
       <use xlink:href="#m842d990b1b" x="52.41125" y="87.468423" style="stroke: #000000; stroke-width: 0.8"/>
      </g>
     </g>
     <g id="text_14">
      <text style="font: 12px 'DejaVu Sans', 'Bitstream Vera Sans', 'Computer Modern Sans Serif', 'Lucida Grande', 'Verdana', 'Geneva', 'Lucid', 'Arial', 'Helvetica', 'Avant Garde', sans-serif; text-anchor: end" x="45.41125" y="92.027485" transform="rotate(-0 45.41125 92.027485)">16</text>
     </g>
    </g>
    <g id="ytick_9">
     <g id="line2d_14">
      <g>
       <use xlink:href="#m842d990b1b" x="52.41125" y="53.83337" style="stroke: #000000; stroke-width: 0.8"/>
      </g>
     </g>
     <g id="text_15">
      <text style="font: 12px 'DejaVu Sans', 'Bitstream Vera Sans', 'Computer Modern Sans Serif', 'Lucida Grande', 'Verdana', 'Geneva', 'Lucid', 'Arial', 'Helvetica', 'Avant Garde', sans-serif; text-anchor: end" x="45.41125" y="58.392432" transform="rotate(-0 45.41125 58.392432)">18</text>
     </g>
    </g>
    <g id="text_16">
     <text style="font: 12px 'DejaVu Sans', 'Bitstream Vera Sans', 'Computer Modern Sans Serif', 'Lucida Grande', 'Verdana', 'Geneva', 'Lucid', 'Arial', 'Helvetica', 'Avant Garde', sans-serif; text-anchor: middle" x="23.311875" y="177.14" transform="rotate(-90 23.311875 177.14)">TSC_ticks/access (batch averages)</text>
    </g>
   </g>
   <g id="line2d_15">
    <path d="M 77.001417 311.056125 
L 99.356114 311.056125 
L 121.710811 311.056125 
L 144.065508 311.056125 
L 166.420205 311.056125 
L 188.774902 311.056125 
L 211.129599 311.056125 
L 233.484296 223.125424 
L 255.838993 223.125424 
L 278.19369 223.125424 
L 300.548387 223.125424 
L 322.903084 221.647321 
L 345.257781 223.059731 
L 367.612478 223.026884 
L 389.967175 223.026884 
L 412.321872 193.92468 
L 434.676569 111.21661 
L 457.031266 100.278648 
L 479.385963 68.285931 
L 501.74066 124.158222 
L 524.095357 73.377175 
L 546.450054 124.158222 
L 568.804751 47.953805 
" clip-path="url(#p55c5aa4f02)" style="fill: none; stroke: #000000; stroke-width: 1.7; stroke-linecap: square"/>
    <defs>
     <path id="m957dd0bb67" d="M 0 3 
C 0.795609 3 1.55874 2.683901 2.12132 2.12132 
C 2.683901 1.55874 3 0.795609 3 0 
C 3 -0.795609 2.683901 -1.55874 2.12132 -2.12132 
C 1.55874 -2.683901 0.795609 -3 0 -3 
C -0.795609 -3 -1.55874 -2.683901 -2.12132 -2.12132 
C -2.683901 -1.55874 -3 -0.795609 -3 0 
C -3 0.795609 -2.683901 1.55874 -2.12132 2.12132 
C -1.55874 2.683901 -0.795609 3 0 3 
z
" style="stroke: #000000"/>
    </defs>
    <g clip-path="url(#p55c5aa4f02)">
     <use xlink:href="#m957dd0bb67" x="77.001417" y="311.056125" style="stroke: #000000"/>
     <use xlink:href="#m957dd0bb67" x="99.356114" y="311.056125" style="stroke: #000000"/>
     <use xlink:href="#m957dd0bb67" x="121.710811" y="311.056125" style="stroke: #000000"/>
     <use xlink:href="#m957dd0bb67" x="144.065508" y="311.056125" style="stroke: #000000"/>
     <use xlink:href="#m957dd0bb67" x="166.420205" y="311.056125" style="stroke: #000000"/>
     <use xlink:href="#m957dd0bb67" x="188.774902" y="311.056125" style="stroke: #000000"/>
     <use xlink:href="#m957dd0bb67" x="211.129599" y="311.056125" style="stroke: #000000"/>
     <use xlink:href="#m957dd0bb67" x="233.484296" y="223.125424" style="stroke: #000000"/>
     <use xlink:href="#m957dd0bb67" x="255.838993" y="223.125424" style="stroke: #000000"/>
     <use xlink:href="#m957dd0bb67" x="278.19369" y="223.125424" style="stroke: #000000"/>
     <use xlink:href="#m957dd0bb67" x="300.548387" y="223.125424" style="stroke: #000000"/>
     <use xlink:href="#m957dd0bb67" x="322.903084" y="221.647321" style="stroke: #000000"/>
     <use xlink:href="#m957dd0bb67" x="345.257781" y="223.059731" style="stroke: #000000"/>
     <use xlink:href="#m957dd0bb67" x="367.612478" y="223.026884" style="stroke: #000000"/>
     <use xlink:href="#m957dd0bb67" x="389.967175" y="223.026884" style="stroke: #000000"/>
     <use xlink:href="#m957dd0bb67" x="412.321872" y="193.92468" style="stroke: #000000"/>
     <use xlink:href="#m957dd0bb67" x="434.676569" y="111.21661" style="stroke: #000000"/>
     <use xlink:href="#m957dd0bb67" x="457.031266" y="100.278648" style="stroke: #000000"/>
     <use xlink:href="#m957dd0bb67" x="479.385963" y="68.285931" style="stroke: #000000"/>
     <use xlink:href="#m957dd0bb67" x="501.74066" y="124.158222" style="stroke: #000000"/>
     <use xlink:href="#m957dd0bb67" x="524.095357" y="73.377175" style="stroke: #000000"/>
     <use xlink:href="#m957dd0bb67" x="546.450054" y="124.158222" style="stroke: #000000"/>
     <use xlink:href="#m957dd0bb67" x="568.804751" y="47.953805" style="stroke: #000000"/>
    </g>
   </g>
   <g id="line2d_16">
    <path d="M 77.001417 311.056125 
L 99.356114 311.056125 
L 121.710811 311.056125 
L 144.065508 212.253156 
L 166.420205 212.121769 
L 188.774902 212.121769 
L 211.129599 212.121769 
L 233.484296 124.158222 
L 255.838993 124.158222 
L 278.19369 124.158222 
L 300.548387 124.158222 
L 322.903084 124.158222 
L 345.257781 124.158222 
L 367.612478 124.158222 
L 389.967175 124.158222 
L 412.321872 124.158222 
L 434.676569 124.158222 
L 457.031266 124.158222 
L 479.385963 124.158222 
L 501.74066 124.158222 
L 524.095357 86.154553 
L 546.450054 124.158222 
L 568.804751 44.373511 
" clip-path="url(#p55c5aa4f02)" style="fill: none; stroke: #2e2e2e; stroke-width: 1.7; stroke-linecap: square"/>
    <defs>
     <path id="m1f191a44de" d="M -3 3 
L 3 3 
L 3 -3 
L -3 -3 
z
" style="stroke: #2e2e2e; stroke-linejoin: miter"/>
    </defs>
    <g clip-path="url(#p55c5aa4f02)">
     <use xlink:href="#m1f191a44de" x="77.001417" y="311.056125" style="fill: #2e2e2e; stroke: #2e2e2e; stroke-linejoin: miter"/>
     <use xlink:href="#m1f191a44de" x="99.356114" y="311.056125" style="fill: #2e2e2e; stroke: #2e2e2e; stroke-linejoin: miter"/>
     <use xlink:href="#m1f191a44de" x="121.710811" y="311.056125" style="fill: #2e2e2e; stroke: #2e2e2e; stroke-linejoin: miter"/>
     <use xlink:href="#m1f191a44de" x="144.065508" y="212.253156" style="fill: #2e2e2e; stroke: #2e2e2e; stroke-linejoin: miter"/>
     <use xlink:href="#m1f191a44de" x="166.420205" y="212.121769" style="fill: #2e2e2e; stroke: #2e2e2e; stroke-linejoin: miter"/>
     <use xlink:href="#m1f191a44de" x="188.774902" y="212.121769" style="fill: #2e2e2e; stroke: #2e2e2e; stroke-linejoin: miter"/>
     <use xlink:href="#m1f191a44de" x="211.129599" y="212.121769" style="fill: #2e2e2e; stroke: #2e2e2e; stroke-linejoin: miter"/>
     <use xlink:href="#m1f191a44de" x="233.484296" y="124.158222" style="fill: #2e2e2e; stroke: #2e2e2e; stroke-linejoin: miter"/>
     <use xlink:href="#m1f191a44de" x="255.838993" y="124.158222" style="fill: #2e2e2e; stroke: #2e2e2e; stroke-linejoin: miter"/>
     <use xlink:href="#m1f191a44de" x="278.19369" y="124.158222" style="fill: #2e2e2e; stroke: #2e2e2e; stroke-linejoin: miter"/>
     <use xlink:href="#m1f191a44de" x="300.548387" y="124.158222" style="fill: #2e2e2e; stroke: #2e2e2e; stroke-linejoin: miter"/>
     <use xlink:href="#m1f191a44de" x="322.903084" y="124.158222" style="fill: #2e2e2e; stroke: #2e2e2e; stroke-linejoin: miter"/>
     <use xlink:href="#m1f191a44de" x="345.257781" y="124.158222" style="fill: #2e2e2e; stroke: #2e2e2e; stroke-linejoin: miter"/>
     <use xlink:href="#m1f191a44de" x="367.612478" y="124.158222" style="fill: #2e2e2e; stroke: #2e2e2e; stroke-linejoin: miter"/>
     <use xlink:href="#m1f191a44de" x="389.967175" y="124.158222" style="fill: #2e2e2e; stroke: #2e2e2e; stroke-linejoin: miter"/>
     <use xlink:href="#m1f191a44de" x="412.321872" y="124.158222" style="fill: #2e2e2e; stroke: #2e2e2e; stroke-linejoin: miter"/>
     <use xlink:href="#m1f191a44de" x="434.676569" y="124.158222" style="fill: #2e2e2e; stroke: #2e2e2e; stroke-linejoin: miter"/>
     <use xlink:href="#m1f191a44de" x="457.031266" y="124.158222" style="fill: #2e2e2e; stroke: #2e2e2e; stroke-linejoin: miter"/>
     <use xlink:href="#m1f191a44de" x="479.385963" y="124.158222" style="fill: #2e2e2e; stroke: #2e2e2e; stroke-linejoin: miter"/>
     <use xlink:href="#m1f191a44de" x="501.74066" y="124.158222" style="fill: #2e2e2e; stroke: #2e2e2e; stroke-linejoin: miter"/>
     <use xlink:href="#m1f191a44de" x="524.095357" y="86.154553" style="fill: #2e2e2e; stroke: #2e2e2e; stroke-linejoin: miter"/>
     <use xlink:href="#m1f191a44de" x="546.450054" y="124.158222" style="fill: #2e2e2e; stroke: #2e2e2e; stroke-linejoin: miter"/>
     <use xlink:href="#m1f191a44de" x="568.804751" y="44.373511" style="fill: #2e2e2e; stroke: #2e2e2e; stroke-linejoin: miter"/>
    </g>
   </g>
   <g id="line2d_17">
    <path d="M 77.001417 311.056125 
L 99.356114 311.056125 
L 121.710811 311.056125 
L 144.065508 311.056125 
L 166.420205 311.056125 
L 188.774902 311.056125 
L 211.129599 311.056125 
L 233.484296 262.180188 
L 255.838993 223.125424 
L 278.19369 223.125424 
L 300.548387 223.125424 
L 322.903084 223.125424 
L 345.257781 223.125424 
L 367.612478 223.125424 
L 389.967175 223.125424 
L 412.321872 223.125424 
L 434.676569 223.125424 
L 457.031266 223.125424 
L 479.385963 223.125424 
L 501.74066 223.125424 
L 524.095357 176.483065 
L 546.450054 223.125424 
L 568.804751 178.683796 
" clip-path="url(#p55c5aa4f02)" style="fill: none; stroke: #5c5c5c; stroke-width: 1.7; stroke-linecap: square"/>
    <defs>
     <path id="m3c02e5b182" d="M 0 -3 
L -3 3 
L 3 3 
z
" style="stroke: #5c5c5c; stroke-linejoin: miter"/>
    </defs>
    <g clip-path="url(#p55c5aa4f02)">
     <use xlink:href="#m3c02e5b182" x="77.001417" y="311.056125" style="fill: #5c5c5c; stroke: #5c5c5c; stroke-linejoin: miter"/>
     <use xlink:href="#m3c02e5b182" x="99.356114" y="311.056125" style="fill: #5c5c5c; stroke: #5c5c5c; stroke-linejoin: miter"/>
     <use xlink:href="#m3c02e5b182" x="121.710811" y="311.056125" style="fill: #5c5c5c; stroke: #5c5c5c; stroke-linejoin: miter"/>
     <use xlink:href="#m3c02e5b182" x="144.065508" y="311.056125" style="fill: #5c5c5c; stroke: #5c5c5c; stroke-linejoin: miter"/>
     <use xlink:href="#m3c02e5b182" x="166.420205" y="311.056125" style="fill: #5c5c5c; stroke: #5c5c5c; stroke-linejoin: miter"/>
     <use xlink:href="#m3c02e5b182" x="188.774902" y="311.056125" style="fill: #5c5c5c; stroke: #5c5c5c; stroke-linejoin: miter"/>
     <use xlink:href="#m3c02e5b182" x="211.129599" y="311.056125" style="fill: #5c5c5c; stroke: #5c5c5c; stroke-linejoin: miter"/>
     <use xlink:href="#m3c02e5b182" x="233.484296" y="262.180188" style="fill: #5c5c5c; stroke: #5c5c5c; stroke-linejoin: miter"/>
     <use xlink:href="#m3c02e5b182" x="255.838993" y="223.125424" style="fill: #5c5c5c; stroke: #5c5c5c; stroke-linejoin: miter"/>
     <use xlink:href="#m3c02e5b182" x="278.19369" y="223.125424" style="fill: #5c5c5c; stroke: #5c5c5c; stroke-linejoin: miter"/>
     <use xlink:href="#m3c02e5b182" x="300.548387" y="223.125424" style="fill: #5c5c5c; stroke: #5c5c5c; stroke-linejoin: miter"/>
     <use xlink:href="#m3c02e5b182" x="322.903084" y="223.125424" style="fill: #5c5c5c; stroke: #5c5c5c; stroke-linejoin: miter"/>
     <use xlink:href="#m3c02e5b182" x="345.257781" y="223.125424" style="fill: #5c5c5c; stroke: #5c5c5c; stroke-linejoin: miter"/>
     <use xlink:href="#m3c02e5b182" x="367.612478" y="223.125424" style="fill: #5c5c5c; stroke: #5c5c5c; stroke-linejoin: miter"/>
     <use xlink:href="#m3c02e5b182" x="389.967175" y="223.125424" style="fill: #5c5c5c; stroke: #5c5c5c; stroke-linejoin: miter"/>
     <use xlink:href="#m3c02e5b182" x="412.321872" y="223.125424" style="fill: #5c5c5c; stroke: #5c5c5c; stroke-linejoin: miter"/>
     <use xlink:href="#m3c02e5b182" x="434.676569" y="223.125424" style="fill: #5c5c5c; stroke: #5c5c5c; stroke-linejoin: miter"/>
     <use xlink:href="#m3c02e5b182" x="457.031266" y="223.125424" style="fill: #5c5c5c; stroke: #5c5c5c; stroke-linejoin: miter"/>
     <use xlink:href="#m3c02e5b182" x="479.385963" y="223.125424" style="fill: #5c5c5c; stroke: #5c5c5c; stroke-linejoin: miter"/>
     <use xlink:href="#m3c02e5b182" x="501.74066" y="223.125424" style="fill: #5c5c5c; stroke: #5c5c5c; stroke-linejoin: miter"/>
     <use xlink:href="#m3c02e5b182" x="524.095357" y="176.483065" style="fill: #5c5c5c; stroke: #5c5c5c; stroke-linejoin: miter"/>
     <use xlink:href="#m3c02e5b182" x="546.450054" y="223.125424" style="fill: #5c5c5c; stroke: #5c5c5c; stroke-linejoin: miter"/>
     <use xlink:href="#m3c02e5b182" x="568.804751" y="178.683796" style="fill: #5c5c5c; stroke: #5c5c5c; stroke-linejoin: miter"/>
    </g>
   </g>
   <g id="line2d_18">
    <path d="M 77.001417 311.056125 
L 99.356114 311.056125 
L 121.710811 311.056125 
L 144.065508 212.121769 
L 166.420205 212.121769 
L 188.774902 212.121769 
L 211.129599 212.121769 
L 233.484296 124.158222 
L 255.838993 124.158222 
L 278.19369 124.158222 
L 300.548387 124.125375 
L 322.903084 124.158222 
L 345.257781 124.158222 
L 367.612478 124.158222 
L 389.967175 124.158222 
L 412.321872 124.059682 
L 434.676569 124.158222 
L 457.031266 124.125375 
L 479.385963 124.158222 
L 501.74066 124.158222 
L 524.095357 124.158222 
L 546.450054 124.158222 
L 568.804751 124.158222 
" clip-path="url(#p55c5aa4f02)" style="fill: none; stroke: #8a8a8a; stroke-width: 1.7; stroke-linecap: square"/>
    <defs>
     <path id="m6df74df169" d="M -0 4.242641 
L 4.242641 0 
L 0 -4.242641 
L -4.242641 -0 
z
" style="stroke: #8a8a8a; stroke-linejoin: miter"/>
    </defs>
    <g clip-path="url(#p55c5aa4f02)">
     <use xlink:href="#m6df74df169" x="77.001417" y="311.056125" style="fill: #8a8a8a; stroke: #8a8a8a; stroke-linejoin: miter"/>
     <use xlink:href="#m6df74df169" x="99.356114" y="311.056125" style="fill: #8a8a8a; stroke: #8a8a8a; stroke-linejoin: miter"/>
     <use xlink:href="#m6df74df169" x="121.710811" y="311.056125" style="fill: #8a8a8a; stroke: #8a8a8a; stroke-linejoin: miter"/>
     <use xlink:href="#m6df74df169" x="144.065508" y="212.121769" style="fill: #8a8a8a; stroke: #8a8a8a; stroke-linejoin: miter"/>
     <use xlink:href="#m6df74df169" x="166.420205" y="212.121769" style="fill: #8a8a8a; stroke: #8a8a8a; stroke-linejoin: miter"/>
     <use xlink:href="#m6df74df169" x="188.774902" y="212.121769" style="fill: #8a8a8a; stroke: #8a8a8a; stroke-linejoin: miter"/>
     <use xlink:href="#m6df74df169" x="211.129599" y="212.121769" style="fill: #8a8a8a; stroke: #8a8a8a; stroke-linejoin: miter"/>
     <use xlink:href="#m6df74df169" x="233.484296" y="124.158222" style="fill: #8a8a8a; stroke: #8a8a8a; stroke-linejoin: miter"/>
     <use xlink:href="#m6df74df169" x="255.838993" y="124.158222" style="fill: #8a8a8a; stroke: #8a8a8a; stroke-linejoin: miter"/>
     <use xlink:href="#m6df74df169" x="278.19369" y="124.158222" style="fill: #8a8a8a; stroke: #8a8a8a; stroke-linejoin: miter"/>
     <use xlink:href="#m6df74df169" x="300.548387" y="124.125375" style="fill: #8a8a8a; stroke: #8a8a8a; stroke-linejoin: miter"/>
     <use xlink:href="#m6df74df169" x="322.903084" y="124.158222" style="fill: #8a8a8a; stroke: #8a8a8a; stroke-linejoin: miter"/>
     <use xlink:href="#m6df74df169" x="345.257781" y="124.158222" style="fill: #8a8a8a; stroke: #8a8a8a; stroke-linejoin: miter"/>
     <use xlink:href="#m6df74df169" x="367.612478" y="124.158222" style="fill: #8a8a8a; stroke: #8a8a8a; stroke-linejoin: miter"/>
     <use xlink:href="#m6df74df169" x="389.967175" y="124.158222" style="fill: #8a8a8a; stroke: #8a8a8a; stroke-linejoin: miter"/>
     <use xlink:href="#m6df74df169" x="412.321872" y="124.059682" style="fill: #8a8a8a; stroke: #8a8a8a; stroke-linejoin: miter"/>
     <use xlink:href="#m6df74df169" x="434.676569" y="124.158222" style="fill: #8a8a8a; stroke: #8a8a8a; stroke-linejoin: miter"/>
     <use xlink:href="#m6df74df169" x="457.031266" y="124.125375" style="fill: #8a8a8a; stroke: #8a8a8a; stroke-linejoin: miter"/>
     <use xlink:href="#m6df74df169" x="479.385963" y="124.158222" style="fill: #8a8a8a; stroke: #8a8a8a; stroke-linejoin: miter"/>
     <use xlink:href="#m6df74df169" x="501.74066" y="124.158222" style="fill: #8a8a8a; stroke: #8a8a8a; stroke-linejoin: miter"/>
     <use xlink:href="#m6df74df169" x="524.095357" y="124.158222" style="fill: #8a8a8a; stroke: #8a8a8a; stroke-linejoin: miter"/>
     <use xlink:href="#m6df74df169" x="546.450054" y="124.158222" style="fill: #8a8a8a; stroke: #8a8a8a; stroke-linejoin: miter"/>
     <use xlink:href="#m6df74df169" x="568.804751" y="124.158222" style="fill: #8a8a8a; stroke: #8a8a8a; stroke-linejoin: miter"/>
    </g>
   </g>
   <g id="patch_3">
    <path d="M 52.41125 324.52 
L 52.41125 29.76 
" style="fill: none; stroke: #000000; stroke-width: 0.8; stroke-linejoin: miter; stroke-linecap: square"/>
   </g>
   <g id="patch_4">
    <path d="M 52.41125 324.52 
L 593.394917 324.52 
" style="fill: none; stroke: #000000; stroke-width: 0.8; stroke-linejoin: miter; stroke-linecap: square"/>
   </g>
   <g id="text_17">
    <text style="font: 14.4px 'DejaVu Sans', 'Bitstream Vera Sans', 'Computer Modern Sans Serif', 'Lucida Grande', 'Verdana', 'Geneva', 'Lucid', 'Arial', 'Helvetica', 'Avant Garde', sans-serif; text-anchor: middle" x="322.903084" y="23.76" transform="rotate(-0 322.903084 23.76)">crux — associativity</text>
   </g>
   <g id="legend_1">
    <g id="patch_5">
     <path d="M 58.71125 89.80125 
L 159.4325 89.80125 
Q 161.2325 89.80125 161.2325 88.00125 
L 161.2325 36.06 
Q 161.2325 34.26 159.4325 34.26 
L 58.71125 34.26 
Q 56.91125 34.26 56.91125 36.06 
L 56.91125 88.00125 
Q 56.91125 89.80125 58.71125 89.80125 
z
" style="fill: #ffffff; opacity: 0.8; stroke: #cccccc; stroke-linejoin: miter"/>
    </g>
    <g id="line2d_19">
     <path d="M 60.51125 41.548594 
L 69.51125 41.548594 
L 78.51125 41.548594 
" style="fill: none; stroke: #000000; stroke-width: 1.7; stroke-linecap: square"/>
     <g>
      <use xlink:href="#m957dd0bb67" x="69.51125" y="41.548594" style="stroke: #000000"/>
     </g>
    </g>
    <g id="text_18">
     <text style="font: 9px 'DejaVu Sans', 'Bitstream Vera Sans', 'Computer Modern Sans Serif', 'Lucida Grande', 'Verdana', 'Geneva', 'Lucid', 'Arial', 'Helvetica', 'Avant Garde', sans-serif; text-anchor: start" x="85.71125" y="44.698594" transform="rotate(-0 85.71125 44.698594)">stride 16384 B</text>
    </g>
    <g id="line2d_20">
     <path d="M 60.51125 54.758906 
L 69.51125 54.758906 
L 78.51125 54.758906 
" style="fill: none; stroke: #2e2e2e; stroke-width: 1.7; stroke-linecap: square"/>
     <g>
      <use xlink:href="#m1f191a44de" x="69.51125" y="54.758906" style="fill: #2e2e2e; stroke: #2e2e2e; stroke-linejoin: miter"/>
     </g>
    </g>
    <g id="text_19">
     <text style="font: 9px 'DejaVu Sans', 'Bitstream Vera Sans', 'Computer Modern Sans Serif', 'Lucida Grande', 'Verdana', 'Geneva', 'Lucid', 'Arial', 'Helvetica', 'Avant Garde', sans-serif; text-anchor: start" x="85.71125" y="57.908906" transform="rotate(-0 85.71125 57.908906)">stride 262144 B</text>
    </g>
    <g id="line2d_21">
     <path d="M 60.51125 67.969219 
L 69.51125 67.969219 
L 78.51125 67.969219 
" style="fill: none; stroke: #5c5c5c; stroke-width: 1.7; stroke-linecap: square"/>
     <g>
      <use xlink:href="#m3c02e5b182" x="69.51125" y="67.969219" style="fill: #5c5c5c; stroke: #5c5c5c; stroke-linejoin: miter"/>
     </g>
    </g>
    <g id="text_20">
     <text style="font: 9px 'DejaVu Sans', 'Bitstream Vera Sans', 'Computer Modern Sans Serif', 'Lucida Grande', 'Verdana', 'Geneva', 'Lucid', 'Arial', 'Helvetica', 'Avant Garde', sans-serif; text-anchor: start" x="85.71125" y="71.119219" transform="rotate(-0 85.71125 71.119219)">stride 4096 B</text>
    </g>
    <g id="line2d_22">
     <path d="M 60.51125 81.179531 
L 69.51125 81.179531 
L 78.51125 81.179531 
" style="fill: none; stroke: #8a8a8a; stroke-width: 1.7; stroke-linecap: square"/>
     <g>
      <use xlink:href="#m6df74df169" x="69.51125" y="81.179531" style="fill: #8a8a8a; stroke: #8a8a8a; stroke-linejoin: miter"/>
     </g>
    </g>
    <g id="text_21">
     <text style="font: 9px 'DejaVu Sans', 'Bitstream Vera Sans', 'Computer Modern Sans Serif', 'Lucida Grande', 'Verdana', 'Geneva', 'Lucid', 'Arial', 'Helvetica', 'Avant Garde', sans-serif; text-anchor: start" x="85.71125" y="84.329531" transform="rotate(-0 85.71125 84.329531)">stride 65536 B</text>
    </g>
   </g>
  </g>
 </g>
 <defs>
  <clipPath id="p55c5aa4f02">
   <rect x="52.41125" y="29.76" width="540.983667" height="294.76"/>
  </clipPath>
 </defs>
</svg>
