<?xml version="1.0" encoding="utf-8" standalone="no"?>
<!DOCTYPE svg PUBLIC "-//W3C//DTD SVG 1.1//EN"
  "http://www.w3.org/Graphics/SVG/1.1/DTD/svg11.dtd">
<svg xmlns:xlink="http://www.w3.org/1999/xlink" width="576pt" height="230.4pt" viewBox="0 0 576 230.4" xmlns="http://www.w3.org/2000/svg" version="1.1">
 <metadata>
  <rdf:RDF xmlns:dc="http://purl.org/dc/elements/1.1/" xmlns:cc="http://creativecommons.org/ns#" xmlns:rdf="http://www.w3.org/1999/02/22-rdf-syntax-ns#">
   <cc:Work>
    <dc:type rdf:resource="http://purl.org/dc/dcmitype/StillImage"/>
    <dc:date>2026-09-08T17:01:01.461702</dc:date>
    <dc:format>image/svg+xml</dc:format>
    <dc:creator>
     <cc:Agent>
      <dc:title>Matplotlib v3.9.4, https://matplotlib.org/</dc:title>
     </cc:Agent>
    </dc:creator>
   </cc:Work>
  </rdf:RDF>
 </metadata>
 <defs>
  <style type="text/css">*{stroke-linejoin: round; stroke-linecap: butt}</style>
 </defs>
 <g id="figure_1">
  <g id="patch_1">
   <path d="M 0 230.4 
L 576 230.4 
L 576 0 
L 0 0 
z
" style="fill: #ffffff"/>
  </g>
  <g id="axes_1">
   <g id="patch_2">
    <path d="M 55.997054 185.02675 
L 565.2 185.02675 
L 565.2 56.04 
L 55.997054 56.04 
z
" style="fill: #ffffff"/>
   </g>
   <g id="matplotlib.axis_1">
    <g id="xtick_1">
     <g id="line2d_1">
      <defs>
       <path id="m855d0579c0" d="M 0 0 
L 0 3.5 
" style="stroke: #000000; stroke-width: 0.8"/>
      </defs>
      <g>
       <use xlink:href="#m855d0579c0" x="106.019277" y="185.02675" style="stroke: #000000; stroke-width: 0.8"/>
      </g>
     </g>
     <g id="text_1">
      <!-- $\mathdefault{10^{-1}}$ -->
      <g transform="translate(94.269277 199.625188) scale(0.1 -0.1)">
       <defs>
        <path id="DejaVuSans-31" d="M 794 531 
L 1825 531 
L 1825 4091 
L 703 3866 
L 703 4441 
L 1819 4666 
L 2450 4666 
L 2450 531 
L 3481 531 
L 3481 0 
L 794 0 
L 794 531 
z
" transform="scale(0.015625)"/>
        <path id="DejaVuSans-30" d="M 2034 4250 
Q 1547 4250 1301 3770 
Q 1056 3291 1056 2328 
Q 1056 1369 1301 889 
Q 1547 409 2034 409 
Q 2525 409 2770 889 
Q 3016 1369 3016 2328 
Q 3016 3291 2770 3770 
Q 2525 4250 2034 4250 
z
M 2034 4750 
Q 2819 4750 3233 4129 
Q 3647 3509 3647 2328 
Q 3647 1150 3233 529 
Q 2819 -91 2034 -91 
Q 1250 -91 836 529 
Q 422 1150 422 2328 
Q 422 3509 836 4129 
Q 1250 4750 2034 4750 
z
" transform="scale(0.015625)"/>
        <path id="DejaVuSans-2212" d="M 678 2272 
L 4684 2272 
L 4684 1741 
L 678 1741 
L 678 2272 
z
" transform="scale(0.015625)"/>
       </defs>
       <use xlink:href="#DejaVuSans-31" transform="translate(0 0.684375)"/>
       <use xlink:href="#DejaVuSans-30" transform="translate(63.623047 0.684375)"/>
       <use xlink:href="#DejaVuSans-2212" transform="translate(128.203125 38.965625) scale(0.7)"/>
       <use xlink:href="#DejaVuSans-31" transform="translate(186.855469 38.965625) scale(0.7)"/>
      </g>
     </g>
    </g>
    <g id="xtick_2">
     <g id="line2d_2">
      <g>
       <use xlink:href="#m855d0579c0" x="384.573741" y="185.02675" style="stroke: #000000; stroke-width: 0.8"/>
      </g>
     </g>
     <g id="text_2">
      <!-- $\mathdefault{10^{0}}$ -->
      <g transform="translate(375.773741 199.625188) scale(0.1 -0.1)">
       <use xlink:href="#DejaVuSans-31" transform="translate(0 0.765625)"/>
       <use xlink:href="#DejaVuSans-30" transform="translate(63.623047 0.765625)"/>
       <use xlink:href="#DejaVuSans-30" transform="translate(128.203125 39.046875) scale(0.7)"/>
      </g>
     </g>
    </g>
    <g id="xtick_3">
     <g id="line2d_3">
      <defs>
       <path id="mc0fe3edb6b" d="M 0 0 
L 0 2 
" style="stroke: #000000; stroke-width: 0.6"/>
      </defs>
      <g>
       <use xlink:href="#mc0fe3edb6b" x="62.870645" y="185.02675" style="stroke: #000000; stroke-width: 0.6"/>
      </g>
     </g>
    </g>
    <g id="xtick_4">
     <g id="line2d_4">
      <g>
       <use xlink:href="#mc0fe3edb6b" x="79.024561" y="185.02675" style="stroke: #000000; stroke-width: 0.6"/>
      </g>
     </g>
    </g>
    <g id="xtick_5">
     <g id="line2d_5">
      <g>
       <use xlink:href="#mc0fe3edb6b" x="93.273324" y="185.02675" style="stroke: #000000; stroke-width: 0.6"/>
      </g>
     </g>
    </g>
    <g id="xtick_6">
     <g id="line2d_6">
      <g>
       <use xlink:href="#mc0fe3edb6b" x="189.872526" y="185.02675" style="stroke: #000000; stroke-width: 0.6"/>
      </g>
     </g>
    </g>
    <g id="xtick_7">
     <g id="line2d_7">
      <g>
       <use xlink:href="#mc0fe3edb6b" x="238.923532" y="185.02675" style="stroke: #000000; stroke-width: 0.6"/>
      </g>
     </g>
    </g>
    <g id="xtick_8">
     <g id="line2d_8">
      <g>
       <use xlink:href="#mc0fe3edb6b" x="273.725775" y="185.02675" style="stroke: #000000; stroke-width: 0.6"/>
      </g>
     </g>
    </g>
    <g id="xtick_9">
     <g id="line2d_9">
      <g>
       <use xlink:href="#mc0fe3edb6b" x="300.720492" y="185.02675" style="stroke: #000000; stroke-width: 0.6"/>
      </g>
     </g>
    </g>
    <g id="xtick_10">
     <g id="line2d_10">
      <g>
       <use xlink:href="#mc0fe3edb6b" x="322.776781" y="185.02675" style="stroke: #000000; stroke-width: 0.6"/>
      </g>
     </g>
    </g>
    <g id="xtick_11">
     <g id="line2d_11">
      <g>
       <use xlink:href="#mc0fe3edb6b" x="341.425108" y="185.02675" style="stroke: #000000; stroke-width: 0.6"/>
      </g>
     </g>
    </g>
    <g id="xtick_12">
     <g id="line2d_12">
      <g>
       <use xlink:href="#mc0fe3edb6b" x="357.579024" y="185.02675" style="stroke: #000000; stroke-width: 0.6"/>
      </g>
     </g>
    </g>
    <g id="xtick_13">
     <g id="line2d_13">
      <g>
       <use xlink:href="#mc0fe3edb6b" x="371.827788" y="185.02675" style="stroke: #000000; stroke-width: 0.6"/>
      </g>
     </g>
    </g>
    <g id="xtick_14">
     <g id="line2d_14">
      <g>
       <use xlink:href="#mc0fe3edb6b" x="468.42699" y="185.02675" style="stroke: #000000; stroke-width: 0.6"/>
      </g>
     </g>
    </g>
    <g id="xtick_15">
     <g id="line2d_15">
      <g>
       <use xlink:href="#mc0fe3edb6b" x="517.477996" y="185.02675" style="stroke: #000000; stroke-width: 0.6"/>
      </g>
     </g>
    </g>
    <g id="xtick_16">
     <g id="line2d_16">
      <g>
       <use xlink:href="#mc0fe3edb6b" x="552.280239" y="185.02675" style="stroke: #000000; stroke-width: 0.6"/>
      </g>
     </g>
    </g>
    <g id="text_3">
     <!-- CNTVCT_ticks/access -->
     <g transform="translate(257.715714 213.303313) scale(0.1 -0.1)">
      <defs>
       <path id="DejaVuSans-43" d="M 4122 4306 
L 4122 3641 
Q 3803 3938 3442 4084 
Q 3081 4231 2675 4231 
Q 1875 4231 1450 3742 
Q 1025 3253 1025 2328 
Q 1025 1406 1450 917 
Q 1875 428 2675 428 
Q 3081 428 3442 575 
Q 3803 722 4122 1019 
L 4122 359 
Q 3791 134 3420 21 
Q 3050 -91 2638 -91 
Q 1578 -91 968 557 
Q 359 1206 359 2328 
Q 359 3453 968 4101 
Q 1578 4750 2638 4750 
Q 3056 4750 3426 4639 
Q 3797 4528 4122 4306 
z
" transform="scale(0.015625)"/>
       <path id="DejaVuSans-4e" d="M 628 4666 
L 1478 4666 
L 3547 763 
L 3547 4666 
L 4159 4666 
L 4159 0 
L 3309 0 
L 1241 3903 
L 1241 0 
L 628 0 
L 628 4666 
z
" transform="scale(0.015625)"/>
       <path id="DejaVuSans-54" d="M -19 4666 
L 3928 4666 
L 3928 4134 
L 2272 4134 
L 2272 0 
L 1638 0 
L 1638 4134 
L -19 4134 
L -19 4666 
z
" transform="scale(0.015625)"/>
       <path id="DejaVuSans-56" d="M 1831 0 
L 50 4666 
L 709 4666 
L 2188 738 
L 3669 4666 
L 4325 4666 
L 2547 0 
L 1831 0 
z
" transform="scale(0.015625)"/>
       <path id="DejaVuSans-5f" d="M 3263 -1063 
L 3263 -1509 
L -63 -1509 
L -63 -1063 
L 3263 -1063 
z
" transform="scale(0.015625)"/>
       <path id="DejaVuSans-74" d="M 1172 4494 
L 1172 3500 
L 2356 3500 
L 2356 3053 
L 1172 3053 
L 1172 1153 
Q 1172 725 1289 603 
Q 1406 481 1766 481 
L 2356 481 
L 2356 0 
L 1766 0 
Q 1100 0 847 248 
Q 594 497 594 1153 
L 594 3053 
L 172 3053 
L 172 3500 
L 594 3500 
L 594 4494 
L 1172 4494 
z
" transform="scale(0.015625)"/>
       <path id="DejaVuSans-69" d="M 603 3500 
L 1178 3500 
L 1178 0 
L 603 0 
L 603 3500 
z
M 603 4863 
L 1178 4863 
L 1178 4134 
L 603 4134 
L 603 4863 
z
" transform="scale(0.015625)"/>
       <path id="DejaVuSans-63" d="M 3122 3366 
L 3122 2828 
Q 2878 2963 2633 3030 
Q 2388 3097 2138 3097 
Q 1578 3097 1268 2742 
Q 959 2388 959 1747 
Q 959 1106 1268 751 
Q 1578 397 2138 397 
Q 2388 397 2633 464 
Q 2878 531 3122 666 
L 3122 134 
Q 2881 22 2623 -34 
Q 2366 -91 2075 -91 
Q 1284 -91 818 406 
Q 353 903 353 1747 
Q 353 2603 823 3093 
Q 1294 3584 2113 3584 
Q 2378 3584 2631 3529 
Q 2884 3475 3122 3366 
z
" transform="scale(0.015625)"/>
       <path id="DejaVuSans-6b" d="M 581 4863 
L 1159 4863 
L 1159 1991 
L 2875 3500 
L 3609 3500 
L 1753 1863 
L 3688 0 
L 2938 0 
L 1159 1709 
L 1159 0 
L 581 0 
L 581 4863 
z
" transform="scale(0.015625)"/>
       <path id="DejaVuSans-73" d="M 2834 3397 
L 2834 2853 
Q 2591 2978 2328 3040 
Q 2066 3103 1784 3103 
Q 1356 3103 1142 2972 
Q 928 2841 928 2578 
Q 928 2378 1081 2264 
Q 1234 2150 1697 2047 
L 1894 2003 
Q 2506 1872 2764 1633 
Q 3022 1394 3022 966 
Q 3022 478 2636 193 
Q 2250 -91 1575 -91 
Q 1294 -91 989 -36 
Q 684 19 347 128 
L 347 722 
Q 666 556 975 473 
Q 1284 391 1588 391 
Q 1994 391 2212 530 
Q 2431 669 2431 922 
Q 2431 1156 2273 1281 
Q 2116 1406 1581 1522 
L 1381 1569 
Q 847 1681 609 1914 
Q 372 2147 372 2553 
Q 372 3047 722 3315 
Q 1072 3584 1716 3584 
Q 2034 3584 2315 3537 
Q 2597 3491 2834 3397 
z
" transform="scale(0.015625)"/>
       <path id="DejaVuSans-2f" d="M 1625 4666 
L 2156 4666 
L 531 -594 
L 0 -594 
L 1625 4666 
z
" transform="scale(0.015625)"/>
       <path id="DejaVuSans-61" d="M 2194 1759 
Q 1497 1759 1228 1600 
Q 959 1441 959 1056 
Q 959 750 1161 570 
Q 1363 391 1709 391 
Q 2188 391 2477 730 
Q 2766 1069 2766 1631 
L 2766 1759 
L 2194 1759 
z
M 3341 1997 
L 3341 0 
L 2766 0 
L 2766 531 
Q 2569 213 2275 61 
Q 1981 -91 1556 -91 
Q 1019 -91 701 211 
Q 384 513 384 1019 
Q 384 1609 779 1909 
Q 1175 2209 1959 2209 
L 2766 2209 
L 2766 2266 
Q 2766 2663 2505 2880 
Q 2244 3097 1772 3097 
Q 1472 3097 1187 3025 
Q 903 2953 641 2809 
L 641 3341 
Q 956 3463 1253 3523 
Q 1550 3584 1831 3584 
Q 2591 3584 2966 3190 
Q 3341 2797 3341 1997 
z
" transform="scale(0.015625)"/>
       <path id="DejaVuSans-65" d="M 3597 1894 
L 3597 1613 
L 953 1613 
Q 991 1019 1311 708 
Q 1631 397 2203 397 
Q 2534 397 2845 478 
Q 3156 559 3463 722 
L 3463 178 
Q 3153 47 2828 -22 
Q 2503 -91 2169 -91 
Q 1331 -91 842 396 
Q 353 884 353 1716 
Q 353 2575 817 3079 
Q 1281 3584 2069 3584 
Q 2775 3584 3186 3129 
Q 3597 2675 3597 1894 
z
M 3022 2063 
Q 3016 2534 2758 2815 
Q 2500 3097 2075 3097 
Q 1594 3097 1305 2825 
Q 1016 2553 972 2059 
L 3022 2063 
z
" transform="scale(0.015625)"/>
      </defs>
      <use xlink:href="#DejaVuSans-43"/>
      <use xlink:href="#DejaVuSans-4e" x="69.824219"/>
      <use xlink:href="#DejaVuSans-54" x="144.628906"/>
      <use xlink:href="#DejaVuSans-56" x="205.712891"/>
      <use xlink:href="#DejaVuSans-43" x="274.121094"/>
      <use xlink:href="#DejaVuSans-54" x="343.945312"/>
      <use xlink:href="#DejaVuSans-5f" x="405.029297"/>
      <use xlink:href="#DejaVuSans-74" x="455.029297"/>
      <use xlink:href="#DejaVuSans-69" x="494.238281"/>
      <use xlink:href="#DejaVuSans-63" x="522.021484"/>
      <use xlink:href="#DejaVuSans-6b" x="577.001953"/>
      <use xlink:href="#DejaVuSans-73" x="634.912109"/>
      <use xlink:href="#DejaVuSans-2f" x="687.011719"/>
      <use xlink:href="#DejaVuSans-61" x="720.703125"/>
      <use xlink:href="#DejaVuSans-63" x="781.982422"/>
      <use xlink:href="#DejaVuSans-63" x="836.962891"/>
      <use xlink:href="#DejaVuSans-65" x="891.943359"/>
      <use xlink:href="#DejaVuSans-73" x="953.466797"/>
      <use xlink:href="#DejaVuSans-73" x="1005.566406"/>
     </g>
    </g>
   </g>
   <g id="matplotlib.axis_2">
    <g id="ytick_1">
     <g id="line2d_17">
      <defs>
       <path id="ma7423b1299" d="M 0 0 
L -3.5 0 
" style="stroke: #000000; stroke-width: 0.8"/>
      </defs>
      <g>
       <use xlink:href="#ma7423b1299" x="55.997054" y="159.620269" style="stroke: #000000; stroke-width: 0.8"/>
      </g>
     </g>
     <g id="text_4">
      <!-- $\mathdefault{10^{-5}}$ -->
      <g transform="translate(25.497054 163.419488) scale(0.1 -0.1)">
       <defs>
        <path id="DejaVuSans-35" d="M 691 4666 
L 3169 4666 
L 3169 4134 
L 1269 4134 
L 1269 2991 
Q 1406 3038 1543 3061 
Q 1681 3084 1819 3084 
Q 2600 3084 3056 2656 
Q 3513 2228 3513 1497 
Q 3513 744 3044 326 
Q 2575 -91 1722 -91 
Q 1428 -91 1123 -41 
Q 819 9 494 109 
L 494 744 
Q 775 591 1075 516 
Q 1375 441 1709 441 
Q 2250 441 2565 725 
Q 2881 1009 2881 1497 
Q 2881 1984 2565 2268 
Q 2250 2553 1709 2553 
Q 1456 2553 1204 2497 
Q 953 2441 691 2322 
L 691 4666 
z
" transform="scale(0.015625)"/>
       </defs>
       <use xlink:href="#DejaVuSans-31" transform="translate(0 0.684375)"/>
       <use xlink:href="#DejaVuSans-30" transform="translate(63.623047 0.684375)"/>
       <use xlink:href="#DejaVuSans-2212" transform="translate(128.203125 38.965625) scale(0.7)"/>
       <use xlink:href="#DejaVuSans-35" transform="translate(186.855469 38.965625) scale(0.7)"/>
      </g>
     </g>
    </g>
    <g id="ytick_2">
     <g id="line2d_18">
      <g>
       <use xlink:href="#ma7423b1299" x="55.997054" y="120.533375" style="stroke: #000000; stroke-width: 0.8"/>
      </g>
     </g>
     <g id="text_5">
      <!-- $\mathdefault{10^{-3}}$ -->
      <g transform="translate(25.497054 124.332594) scale(0.1 -0.1)">
       <defs>
        <path id="DejaVuSans-33" d="M 2597 2516 
Q 3050 2419 3304 2112 
Q 3559 1806 3559 1356 
Q 3559 666 3084 287 
Q 2609 -91 1734 -91 
Q 1441 -91 1130 -33 
Q 819 25 488 141 
L 488 750 
Q 750 597 1062 519 
Q 1375 441 1716 441 
Q 2309 441 2620 675 
Q 2931 909 2931 1356 
Q 2931 1769 2642 2001 
Q 2353 2234 1838 2234 
L 1294 2234 
L 1294 2753 
L 1863 2753 
Q 2328 2753 2575 2939 
Q 2822 3125 2822 3475 
Q 2822 3834 2567 4026 
Q 2313 4219 1838 4219 
Q 1578 4219 1281 4162 
Q 984 4106 628 3988 
L 628 4550 
Q 988 4650 1302 4700 
Q 1616 4750 1894 4750 
Q 2613 4750 3031 4423 
Q 3450 4097 3450 3541 
Q 3450 3153 3228 2886 
Q 3006 2619 2597 2516 
z
" transform="scale(0.015625)"/>
       </defs>
       <use xlink:href="#DejaVuSans-31" transform="translate(0 0.765625)"/>
       <use xlink:href="#DejaVuSans-30" transform="translate(63.623047 0.765625)"/>
       <use xlink:href="#DejaVuSans-2212" transform="translate(128.203125 39.046875) scale(0.7)"/>
       <use xlink:href="#DejaVuSans-33" transform="translate(186.855469 39.046875) scale(0.7)"/>
      </g>
     </g>
    </g>
    <g id="ytick_3">
     <g id="line2d_19">
      <g>
       <use xlink:href="#ma7423b1299" x="55.997054" y="81.446481" style="stroke: #000000; stroke-width: 0.8"/>
      </g>
     </g>
     <g id="text_6">
      <!-- $\mathdefault{10^{-1}}$ -->
      <g transform="translate(25.497054 85.2457) scale(0.1 -0.1)">
       <use xlink:href="#DejaVuSans-31" transform="translate(0 0.684375)"/>
       <use xlink:href="#DejaVuSans-30" transform="translate(63.623047 0.684375)"/>
       <use xlink:href="#DejaVuSans-2212" transform="translate(128.203125 38.965625) scale(0.7)"/>
       <use xlink:href="#DejaVuSans-31" transform="translate(186.855469 38.965625) scale(0.7)"/>
      </g>
     </g>
    </g>
    <g id="text_7">
     <!-- Empirical fraction &gt;= observed time -->
     <g transform="translate(19.417366 212.191969) rotate(-90) scale(0.1 -0.1)">
      <defs>
       <path id="DejaVuSans-45" d="M 628 4666 
L 3578 4666 
L 3578 4134 
L 1259 4134 
L 1259 2753 
L 3481 2753 
L 3481 2222 
L 1259 2222 
L 1259 531 
L 3634 531 
L 3634 0 
L 628 0 
L 628 4666 
z
" transform="scale(0.015625)"/>
       <path id="DejaVuSans-6d" d="M 3328 2828 
Q 3544 3216 3844 3400 
Q 4144 3584 4550 3584 
Q 5097 3584 5394 3201 
Q 5691 2819 5691 2113 
L 5691 0 
L 5113 0 
L 5113 2094 
Q 5113 2597 4934 2840 
Q 4756 3084 4391 3084 
Q 3944 3084 3684 2787 
Q 3425 2491 3425 1978 
L 3425 0 
L 2847 0 
L 2847 2094 
Q 2847 2600 2669 2842 
Q 2491 3084 2119 3084 
Q 1678 3084 1418 2786 
Q 1159 2488 1159 1978 
L 1159 0 
L 581 0 
L 581 3500 
L 1159 3500 
L 1159 2956 
Q 1356 3278 1631 3431 
Q 1906 3584 2284 3584 
Q 2666 3584 2933 3390 
Q 3200 3197 3328 2828 
z
" transform="scale(0.015625)"/>
       <path id="DejaVuSans-70" d="M 1159 525 
L 1159 -1331 
L 581 -1331 
L 581 3500 
L 1159 3500 
L 1159 2969 
Q 1341 3281 1617 3432 
Q 1894 3584 2278 3584 
Q 2916 3584 3314 3078 
Q 3713 2572 3713 1747 
Q 3713 922 3314 415 
Q 2916 -91 2278 -91 
Q 1894 -91 1617 61 
Q 1341 213 1159 525 
z
M 3116 1747 
Q 3116 2381 2855 2742 
Q 2594 3103 2138 3103 
Q 1681 3103 1420 2742 
Q 1159 2381 1159 1747 
Q 1159 1113 1420 752 
Q 1681 391 2138 391 
Q 2594 391 2855 752 
Q 3116 1113 3116 1747 
z
" transform="scale(0.015625)"/>
       <path id="DejaVuSans-72" d="M 2631 2963 
Q 2534 3019 2420 3045 
Q 2306 3072 2169 3072 
Q 1681 3072 1420 2755 
Q 1159 2438 1159 1844 
L 1159 0 
L 581 0 
L 581 3500 
L 1159 3500 
L 1159 2956 
Q 1341 3275 1631 3429 
Q 1922 3584 2338 3584 
Q 2397 3584 2469 3576 
Q 2541 3569 2628 3553 
L 2631 2963 
z
" transform="scale(0.015625)"/>
       <path id="DejaVuSans-6c" d="M 603 4863 
L 1178 4863 
L 1178 0 
L 603 0 
L 603 4863 
z
" transform="scale(0.015625)"/>
       <path id="DejaVuSans-20" transform="scale(0.015625)"/>
       <path id="DejaVuSans-66" d="M 2375 4863 
L 2375 4384 
L 1825 4384 
Q 1516 4384 1395 4259 
Q 1275 4134 1275 3809 
L 1275 3500 
L 2222 3500 
L 2222 3053 
L 1275 3053 
L 1275 0 
L 697 0 
L 697 3053 
L 147 3053 
L 147 3500 
L 697 3500 
L 697 3744 
Q 697 4328 969 4595 
Q 1241 4863 1831 4863 
L 2375 4863 
z
" transform="scale(0.015625)"/>
       <path id="DejaVuSans-6f" d="M 1959 3097 
Q 1497 3097 1228 2736 
Q 959 2375 959 1747 
Q 959 1119 1226 758 
Q 1494 397 1959 397 
Q 2419 397 2687 759 
Q 2956 1122 2956 1747 
Q 2956 2369 2687 2733 
Q 2419 3097 1959 3097 
z
M 1959 3584 
Q 2709 3584 3137 3096 
Q 3566 2609 3566 1747 
Q 3566 888 3137 398 
Q 2709 -91 1959 -91 
Q 1206 -91 779 398 
Q 353 888 353 1747 
Q 353 2609 779 3096 
Q 1206 3584 1959 3584 
z
" transform="scale(0.015625)"/>
       <path id="DejaVuSans-6e" d="M 3513 2113 
L 3513 0 
L 2938 0 
L 2938 2094 
Q 2938 2591 2744 2837 
Q 2550 3084 2163 3084 
Q 1697 3084 1428 2787 
Q 1159 2491 1159 1978 
L 1159 0 
L 581 0 
L 581 3500 
L 1159 3500 
L 1159 2956 
Q 1366 3272 1645 3428 
Q 1925 3584 2291 3584 
Q 2894 3584 3203 3211 
Q 3513 2838 3513 2113 
z
" transform="scale(0.015625)"/>
       <path id="DejaVuSans-3e" d="M 678 3150 
L 678 3719 
L 4684 2266 
L 4684 1747 
L 678 294 
L 678 863 
L 3897 2003 
L 678 3150 
z
" transform="scale(0.015625)"/>
       <path id="DejaVuSans-3d" d="M 678 2906 
L 4684 2906 
L 4684 2381 
L 678 2381 
L 678 2906 
z
M 678 1631 
L 4684 1631 
L 4684 1100 
L 678 1100 
L 678 1631 
z
" transform="scale(0.015625)"/>
       <path id="DejaVuSans-62" d="M 3116 1747 
Q 3116 2381 2855 2742 
Q 2594 3103 2138 3103 
Q 1681 3103 1420 2742 
Q 1159 2381 1159 1747 
Q 1159 1113 1420 752 
Q 1681 391 2138 391 
Q 2594 391 2855 752 
Q 3116 1113 3116 1747 
z
M 1159 2969 
Q 1341 3281 1617 3432 
Q 1894 3584 2278 3584 
Q 2916 3584 3314 3078 
Q 3713 2572 3713 1747 
Q 3713 922 3314 415 
Q 2916 -91 2278 -91 
Q 1894 -91 1617 61 
Q 1341 213 1159 525 
L 1159 0 
L 581 0 
L 581 4863 
L 1159 4863 
L 1159 2969 
z
" transform="scale(0.015625)"/>
       <path id="DejaVuSans-76" d="M 191 3500 
L 800 3500 
L 1894 563 
L 2988 3500 
L 3597 3500 
L 2284 0 
L 1503 0 
L 191 3500 
z
" transform="scale(0.015625)"/>
       <path id="DejaVuSans-64" d="M 2906 2969 
L 2906 4863 
L 3481 4863 
L 3481 0 
L 2906 0 
L 2906 525 
Q 2725 213 2448 61 
Q 2172 -91 1784 -91 
Q 1150 -91 751 415 
Q 353 922 353 1747 
Q 353 2572 751 3078 
Q 1150 3584 1784 3584 
Q 2172 3584 2448 3432 
Q 2725 3281 2906 2969 
z
M 947 1747 
Q 947 1113 1208 752 
Q 1469 391 1925 391 
Q 2381 391 2643 752 
Q 2906 1113 2906 1747 
Q 2906 2381 2643 2742 
Q 2381 3103 1925 3103 
Q 1469 3103 1208 2742 
Q 947 2381 947 1747 
z
" transform="scale(0.015625)"/>
      </defs>
      <use xlink:href="#DejaVuSans-45"/>
      <use xlink:href="#DejaVuSans-6d" x="63.183594"/>
      <use xlink:href="#DejaVuSans-70" x="160.595703"/>
      <use xlink:href="#DejaVuSans-69" x="224.072266"/>
      <use xlink:href="#DejaVuSans-72" x="251.855469"/>
      <use xlink:href="#DejaVuSans-69" x="292.96875"/>
      <use xlink:href="#DejaVuSans-63" x="320.751953"/>
      <use xlink:href="#DejaVuSans-61" x="375.732422"/>
      <use xlink:href="#DejaVuSans-6c" x="437.011719"/>
      <use xlink:href="#DejaVuSans-20" x="464.794922"/>
      <use xlink:href="#DejaVuSans-66" x="496.582031"/>
      <use xlink:href="#DejaVuSans-72" x="531.787109"/>
      <use xlink:href="#DejaVuSans-61" x="572.900391"/>
      <use xlink:href="#DejaVuSans-63" x="634.179688"/>
      <use xlink:href="#DejaVuSans-74" x="689.160156"/>
      <use xlink:href="#DejaVuSans-69" x="728.369141"/>
      <use xlink:href="#DejaVuSans-6f" x="756.152344"/>
      <use xlink:href="#DejaVuSans-6e" x="817.333984"/>
      <use xlink:href="#DejaVuSans-20" x="880.712891"/>
      <use xlink:href="#DejaVuSans-3e" x="912.5"/>
      <use xlink:href="#DejaVuSans-3d" x="996.289062"/>
      <use xlink:href="#DejaVuSans-20" x="1080.078125"/>
      <use xlink:href="#DejaVuSans-6f" x="1111.865234"/>
      <use xlink:href="#DejaVuSans-62" x="1173.046875"/>
      <use xlink:href="#DejaVuSans-73" x="1236.523438"/>
      <use xlink:href="#DejaVuSans-65" x="1288.623047"/>
      <use xlink:href="#DejaVuSans-72" x="1350.146484"/>
      <use xlink:href="#DejaVuSans-76" x="1391.259766"/>
      <use xlink:href="#DejaVuSans-65" x="1450.439453"/>
      <use xlink:href="#DejaVuSans-64" x="1511.962891"/>
      <use xlink:href="#DejaVuSans-20" x="1575.439453"/>
      <use xlink:href="#DejaVuSans-74" x="1607.226562"/>
      <use xlink:href="#DejaVuSans-69" x="1646.435547"/>
      <use xlink:href="#DejaVuSans-6d" x="1674.21875"/>
      <use xlink:href="#DejaVuSans-65" x="1771.630859"/>
     </g>
    </g>
   </g>
   <g id="line2d_20">
    <path d="M 79.142642 61.903034 
L 87.685579 61.968017 
L 87.685579 62.063593 
L 89.052539 62.063593 
L 89.052539 62.189106 
L 90.404225 62.189106 
L 90.404225 62.382499 
L 91.740975 62.382499 
L 91.740975 62.631889 
L 93.063116 62.631889 
L 93.063116 62.876835 
L 94.370963 62.876835 
L 94.370963 63.093157 
L 95.664822 63.093157 
L 95.664822 63.421849 
L 96.944989 63.421849 
L 96.944989 64.022417 
L 98.211751 64.022417 
L 98.211751 65.055702 
L 99.465386 65.055702 
L 99.465386 66.579018 
L 100.706163 66.579018 
L 100.706163 68.519946 
L 101.934342 68.519946 
L 101.934342 70.731079 
L 103.150178 70.731079 
L 103.150178 73.288359 
L 104.353916 73.288359 
L 104.353916 75.821799 
L 105.545795 75.821799 
L 105.545795 78.180393 
L 106.726045 78.180393 
L 106.726045 80.375786 
L 107.894891 80.375786 
L 107.894891 82.399793 
L 109.052552 82.399793 
L 109.052552 84.690179 
L 110.19924 84.690179 
L 110.19924 87.370483 
L 111.335161 87.370483 
L 111.335161 90.45894 
L 112.460515 90.45894 
L 112.460515 94.353546 
L 113.575497 94.353546 
L 113.575497 99.145685 
L 114.680296 99.145685 
L 114.680296 104.305826 
L 115.775097 104.305826 
L 115.775097 109.572185 
L 116.860078 109.572185 
L 116.860078 112.976368 
L 117.935416 112.976368 
L 117.935416 114.935028 
L 119.001279 114.935028 
L 119.001279 116.119957 
L 120.057833 116.119957 
L 120.057833 117.154417 
L 121.105239 117.154417 
L 121.105239 118.061987 
L 122.143655 118.061987 
L 122.143655 119.056927 
L 123.173232 119.056927 
L 123.173232 119.75534 
L 124.194122 119.75534 
L 124.194122 120.423747 
L 125.206468 120.423747 
L 125.206468 121.022509 
L 126.210413 121.022509 
L 126.210413 121.532011 
L 127.206095 121.532011 
L 127.206095 122.013219 
L 128.193649 122.013219 
L 128.193649 122.469875 
L 129.173206 122.469875 
L 129.173206 122.873864 
L 130.144895 122.873864 
L 130.144895 123.274567 
L 131.108842 123.274567 
L 131.108842 123.572827 
L 132.065168 123.572827 
L 132.065168 123.907174 
L 133.013994 123.907174 
L 133.013994 124.124653 
L 133.955436 124.124653 
L 133.955436 124.48194 
L 134.889608 124.48194 
L 134.889608 124.812668 
L 135.816621 124.812668 
L 135.816621 125.083952 
L 136.736585 125.083952 
L 136.736585 125.289544 
L 137.649606 125.289544 
L 137.649606 125.515492 
L 138.555787 125.515492 
L 138.555787 125.794817 
L 139.455231 125.794817 
L 139.455231 126.067342 
L 140.348037 126.067342 
L 140.348037 126.315294 
L 141.234303 126.315294 
L 141.234303 126.450557 
L 142.114122 126.450557 
L 142.114122 126.640136 
L 142.987589 126.640136 
L 142.987589 126.798459 
L 144.715828 126.869784 
L 144.715828 127.014257 
L 145.570777 127.014257 
L 145.570777 127.161233 
L 147.262757 127.254402 
L 147.262757 127.405632 
L 148.9314 127.463046 
L 148.9314 127.775989 
L 149.757169 127.775989 
L 149.757169 127.916615 
L 150.577339 127.916615 
L 150.577339 128.184126 
L 151.391987 128.184126 
L 151.391987 128.590924 
L 152.201185 128.590924 
L 152.201185 129.157731 
L 153.005006 129.157731 
L 153.005006 129.866461 
L 153.803522 129.866461 
L 153.803522 130.151568 
L 154.596801 130.151568 
L 154.596801 130.584151 
L 155.384912 130.584151 
L 155.384912 131.128231 
L 156.167923 131.128231 
L 156.167923 131.677981 
L 156.945897 131.677981 
L 156.945897 132.26582 
L 157.718901 132.26582 
L 157.718901 133.11885 
L 158.486997 133.11885 
L 158.486997 133.779546 
L 159.250246 133.779546 
L 159.250246 134.278962 
L 160.008711 134.278962 
L 160.008711 134.629016 
L 160.762449 134.629016 
L 160.762449 135.135202 
L 161.511521 135.135202 
L 161.511521 135.473784 
L 162.255983 135.473784 
L 162.255983 135.826436 
L 162.995891 135.826436 
L 162.995891 136.140828 
L 163.731302 136.140828 
L 163.731302 136.302502 
L 164.462269 136.302502 
L 164.462269 136.635392 
L 165.188846 136.635392 
L 165.188846 136.981873 
L 165.911085 136.981873 
L 165.911085 137.343102 
L 166.629037 137.343102 
L 166.629037 137.467011 
L 167.342754 137.467011 
L 167.342754 137.849976 
L 168.052285 137.849976 
L 168.052285 138.182866 
L 168.757679 138.182866 
L 168.757679 138.600374 
L 169.458983 138.600374 
L 169.458983 138.817091 
L 170.156245 138.817091 
L 170.156245 138.964705 
L 170.849512 138.964705 
L 170.849512 139.114932 
L 171.538828 139.114932 
L 171.538828 139.267866 
L 172.224239 139.267866 
L 172.224239 139.582258 
L 172.905788 139.582258 
L 172.905788 139.825938 
L 173.583519 139.825938 
L 173.583519 140.076822 
L 174.257474 140.076822 
L 174.257474 140.51218 
L 174.927696 140.51218 
L 174.927696 141.065916 
L 175.594224 141.065916 
L 175.594224 141.258824 
L 176.257101 141.258824 
L 176.257101 141.86534 
L 176.916365 141.86534 
L 176.916365 142.406135 
L 177.572056 142.406135 
L 177.572056 142.518556 
L 178.224212 142.518556 
L 178.224212 142.865037 
L 178.872871 142.865037 
L 178.872871 143.350175 
L 179.518071 143.350175 
L 179.518071 143.73314 
L 180.159848 143.73314 
L 180.159848 143.998399 
L 180.798238 143.998399 
L 180.798238 144.555164 
L 181.433277 144.555164 
L 181.433277 144.998096 
L 182.065 144.998096 
L 182.065 145.15103 
L 183.318635 145.15103 
L 183.318635 145.465422 
L 183.940614 145.465422 
L 183.940614 146.131458 
L 184.559412 146.131458 
L 184.559412 146.667696 
L 185.17506 146.667696 
L 185.17506 146.854245 
L 185.787591 146.854245 
L 185.787591 147.240112 
L 186.397037 147.240112 
L 186.397037 147.439829 
L 187.003427 147.439829 
L 187.003427 147.853941 
L 187.606794 147.853941 
L 187.606794 148.515649 
L 188.207165 148.515649 
L 188.207165 149.233339 
L 188.804572 149.233339 
L 188.804572 149.486719 
L 190.579294 149.486719 
L 190.579294 149.747897 
L 193.480504 149.747897 
L 193.480504 150.295675 
L 196.872539 150.295675 
L 196.872539 151.189934 
L 197.428745 151.189934 
L 197.428745 151.843149 
L 197.982406 151.843149 
L 197.982406 152.189631 
L 198.533545 152.189631 
L 198.533545 152.55086 
L 204.435918 152.55086 
L 204.435918 152.928149 
L 208.047371 152.928149 
L 208.047371 153.322993 
L 208.554603 153.322993 
L 208.554603 153.737105 
L 213.513275 153.737105 
L 213.513275 154.172463 
L 222.859594 154.172463 
L 222.859594 154.631364 
L 225.528261 154.631364 
L 225.528261 155.116503 
L 229.849244 155.116503 
L 229.849244 155.631061 
L 233.198238 155.631061 
L 233.198238 156.178839 
L 235.245235 156.178839 
L 235.245235 156.764423 
L 238.05406 156.764423 
L 238.05406 157.393423 
L 240.021171 157.393423 
L 240.021171 158.072794 
L 241.956807 158.072794 
L 241.956807 158.811313 
L 243.103495 158.811313 
L 243.103495 159.620269 
L 244.990814 159.620269 
L 244.990814 160.514528 
L 249.764333 160.514528 
L 249.764333 161.514225 
L 258.110723 161.514225 
L 258.110723 162.647587 
L 275.601389 162.647587 
L 275.601389 163.955958 
L 281.559142 163.955958 
L 281.559142 165.503433 
L 285.373974 165.503433 
L 285.373974 167.397388 
L 310.039579 167.397388 
L 310.039579 169.839122 
L 535.347477 169.839122 
L 535.347477 173.280552 
L 538.167997 173.280552 
L 538.167997 179.163716 
L 538.167997 179.163716 
" clip-path="url(#p888cdf3599)" style="fill: none; stroke: #000000; stroke-width: 1.5; stroke-linecap: square"/>
   </g>
   <g id="line2d_21">
    <defs>
     <path id="m1676f373de" d="M 0 1.5 
C 0.397805 1.5 0.77937 1.341951 1.06066 1.06066 
C 1.341951 0.77937 1.5 0.397805 1.5 0 
C 1.5 -0.397805 1.341951 -0.77937 1.06066 -1.06066 
C 0.77937 -1.341951 0.397805 -1.5 0 -1.5 
C -0.397805 -1.5 -0.77937 -1.341951 -1.06066 -1.06066 
C -1.341951 -0.77937 -1.5 -0.397805 -1.5 0 
C -1.5 0.397805 -1.341951 0.77937 -1.06066 1.06066 
C -0.77937 1.341951 -0.397805 1.5 0 1.5 
z
" style="stroke: #000000"/>
    </defs>
    <g clip-path="url(#p888cdf3599)">
     <use xlink:href="#m1676f373de" x="538.167997" y="179.163716" style="stroke: #000000"/>
    </g>
   </g>
   <g id="line2d_22">
    <path d="M 125.206468 61.903034 
L 126.210413 61.903034 
L 126.210413 69.453635 
L 129.173206 69.453635 
L 129.173206 126.657582 
L 148.099956 126.675065 
L 148.099956 126.798459 
L 148.9314 126.798459 
L 148.9314 127.998032 
L 149.757169 127.998032 
L 149.757169 129.443857 
L 150.577339 129.443857 
L 150.577339 130.419338 
L 151.391987 130.419338 
L 151.391987 131.709592 
L 152.201185 131.709592 
L 152.201185 132.540746 
L 153.005006 132.540746 
L 153.005006 133.540443 
L 153.803522 133.540443 
L 153.803522 134.321937 
L 154.596801 134.321937 
L 154.596801 134.947623 
L 155.384912 134.947623 
L 155.384912 135.278658 
L 156.167923 135.278658 
L 156.167923 135.523275 
L 156.945897 135.523275 
L 156.945897 135.929945 
L 157.718901 135.929945 
L 157.718901 136.467315 
L 158.486997 136.467315 
L 158.486997 136.981873 
L 159.250246 136.981873 
L 159.250246 137.343102 
L 160.008711 137.343102 
L 160.008711 137.720392 
L 160.762449 137.720392 
L 160.762449 138.45891 
L 161.511521 138.45891 
L 161.511521 139.039486 
L 162.255983 139.039486 
L 162.255983 139.825938 
L 162.995891 139.825938 
L 162.995891 140.076822 
L 163.731302 140.076822 
L 163.731302 140.423303 
L 164.462269 140.423303 
L 164.462269 140.601996 
L 165.188846 140.601996 
L 165.188846 140.877294 
L 165.911085 140.877294 
L 165.911085 141.161822 
L 166.629037 141.161822 
L 166.629037 141.86534 
L 167.342754 141.86534 
L 167.342754 142.406135 
L 168.052285 142.406135 
L 168.052285 142.747964 
L 168.757679 142.747964 
L 168.757679 142.983747 
L 169.458983 142.983747 
L 169.458983 143.226266 
L 170.156245 143.226266 
L 170.156245 143.603555 
L 170.849512 143.603555 
L 170.849512 143.73314 
L 171.538828 143.73314 
L 171.538828 144.134204 
L 172.224239 144.134204 
L 172.224239 144.847869 
L 172.905788 144.847869 
L 172.905788 145.627096 
L 174.257474 145.627096 
L 174.257474 145.959986 
L 174.927696 145.959986 
L 174.927696 146.854245 
L 175.594224 146.854245 
L 175.594224 147.240112 
L 176.257101 147.240112 
L 176.257101 147.64436 
L 176.916365 147.64436 
L 176.916365 147.853941 
L 177.572056 147.853941 
L 177.572056 148.068829 
L 178.224212 148.068829 
L 178.224212 148.289299 
L 178.872871 148.289299 
L 178.872871 148.515649 
L 180.159848 148.515649 
L 180.159848 148.748201 
L 180.798238 148.748201 
L 180.798238 149.233339 
L 182.693441 149.233339 
L 182.693441 149.486719 
L 183.940614 149.486719 
L 183.940614 149.747897 
L 185.17506 149.747897 
L 185.17506 150.88126 
L 185.787591 150.88126 
L 185.787591 151.189934 
L 187.003427 151.189934 
L 187.003427 151.510259 
L 187.606794 151.510259 
L 187.606794 151.843149 
L 188.804572 151.843149 
L 188.804572 152.189631 
L 190.579294 152.189631 
L 190.579294 152.928149 
L 197.428745 152.928149 
L 197.428745 153.737105 
L 200.172053 153.737105 
L 200.172053 154.172463 
L 206.512788 154.172463 
L 206.512788 154.631364 
L 213.513275 154.631364 
L 213.513275 155.116503 
L 217.808685 155.116503 
L 217.808685 155.631061 
L 218.742857 155.631061 
L 218.742857 156.178839 
L 219.66987 156.178839 
L 219.66987 156.764423 
L 223.755707 156.764423 
L 223.755707 157.393423 
L 225.967371 157.393423 
L 225.967371 158.072794 
L 231.953205 158.072794 
L 231.953205 158.811313 
L 244.990814 158.811313 
L 244.990814 159.620269 
L 247.217404 159.620269 
L 247.217404 160.514528 
L 263.37132 160.514528 
L 263.37132 162.647587 
L 280.725788 162.647587 
L 280.725788 163.955958 
L 316.014851 163.955958 
L 316.014851 165.503433 
L 317.669231 165.503433 
L 317.669231 167.397388 
L 427.899453 167.397388 
L 427.899453 169.839122 
L 537.669131 169.839122 
L 537.669131 173.280552 
L 542.054412 173.280552 
L 542.054412 179.163716 
L 542.054412 179.163716 
" clip-path="url(#p888cdf3599)" style="fill: none; stroke-dasharray: 5.55,2.4; stroke-dashoffset: 0; stroke: #404040; stroke-width: 1.5"/>
   </g>
   <g id="line2d_23">
    <defs>
     <path id="m1e3d02a8c3" d="M 0 1.5 
C 0.397805 1.5 0.77937 1.341951 1.06066 1.06066 
C 1.341951 0.77937 1.5 0.397805 1.5 0 
C 1.5 -0.397805 1.341951 -0.77937 1.06066 -1.06066 
C 0.77937 -1.341951 0.397805 -1.5 0 -1.5 
C -0.397805 -1.5 -0.77937 -1.341951 -1.06066 -1.06066 
C -1.341951 -0.77937 -1.5 -0.397805 -1.5 0 
C -1.5 0.397805 -1.341951 0.77937 -1.06066 1.06066 
C -0.77937 1.341951 -0.397805 1.5 0 1.5 
z
" style="stroke: #404040"/>
    </defs>
    <g clip-path="url(#p888cdf3599)">
     <use xlink:href="#m1e3d02a8c3" x="542.054412" y="179.163716" style="fill: #404040; stroke: #404040"/>
    </g>
   </g>
   <g id="patch_3">
    <path d="M 55.997054 185.02675 
L 55.997054 56.04 
" style="fill: none; stroke: #000000; stroke-width: 0.8; stroke-linejoin: miter; stroke-linecap: square"/>
   </g>
   <g id="patch_4">
    <path d="M 565.2 185.02675 
L 565.2 56.04 
" style="fill: none; stroke: #000000; stroke-width: 0.8; stroke-linejoin: miter; stroke-linecap: square"/>
   </g>
   <g id="patch_5">
    <path d="M 55.997054 185.02675 
L 565.2 185.02675 
" style="fill: none; stroke: #000000; stroke-width: 0.8; stroke-linejoin: miter; stroke-linecap: square"/>
   </g>
   <g id="patch_6">
    <path d="M 55.997054 56.04 
L 565.2 56.04 
" style="fill: none; stroke: #000000; stroke-width: 0.8; stroke-linejoin: miter; stroke-linecap: square"/>
   </g>
   <g id="text_8">
    <!-- Full observed tails; first chronological clean distribution per family -->
    <g transform="translate(161.789855 39.961969) scale(0.09 -0.09)">
     <defs>
      <path id="DejaVuSans-46" d="M 628 4666 
L 3309 4666 
L 3309 4134 
L 1259 4134 
L 1259 2759 
L 3109 2759 
L 3109 2228 
L 1259 2228 
L 1259 0 
L 628 0 
L 628 4666 
z
" transform="scale(0.015625)"/>
      <path id="DejaVuSans-75" d="M 544 1381 
L 544 3500 
L 1119 3500 
L 1119 1403 
Q 1119 906 1312 657 
Q 1506 409 1894 409 
Q 2359 409 2629 706 
Q 2900 1003 2900 1516 
L 2900 3500 
L 3475 3500 
L 3475 0 
L 2900 0 
L 2900 538 
Q 2691 219 2414 64 
Q 2138 -91 1772 -91 
Q 1169 -91 856 284 
Q 544 659 544 1381 
z
M 1991 3584 
L 1991 3584 
z
" transform="scale(0.015625)"/>
      <path id="DejaVuSans-3b" d="M 750 3309 
L 1409 3309 
L 1409 2516 
L 750 2516 
L 750 3309 
z
M 750 794 
L 1409 794 
L 1409 256 
L 897 -744 
L 494 -744 
L 750 256 
L 750 794 
z
" transform="scale(0.015625)"/>
      <path id="DejaVuSans-68" d="M 3513 2113 
L 3513 0 
L 2938 0 
L 2938 2094 
Q 2938 2591 2744 2837 
Q 2550 3084 2163 3084 
Q 1697 3084 1428 2787 
Q 1159 2491 1159 1978 
L 1159 0 
L 581 0 
L 581 4863 
L 1159 4863 
L 1159 2956 
Q 1366 3272 1645 3428 
Q 1925 3584 2291 3584 
Q 2894 3584 3203 3211 
Q 3513 2838 3513 2113 
z
" transform="scale(0.015625)"/>
      <path id="DejaVuSans-67" d="M 2906 1791 
Q 2906 2416 2648 2759 
Q 2391 3103 1925 3103 
Q 1463 3103 1205 2759 
Q 947 2416 947 1791 
Q 947 1169 1205 825 
Q 1463 481 1925 481 
Q 2391 481 2648 825 
Q 2906 1169 2906 1791 
z
M 3481 434 
Q 3481 -459 3084 -895 
Q 2688 -1331 1869 -1331 
Q 1566 -1331 1297 -1286 
Q 1028 -1241 775 -1147 
L 775 -588 
Q 1028 -725 1275 -790 
Q 1522 -856 1778 -856 
Q 2344 -856 2625 -561 
Q 2906 -266 2906 331 
L 2906 616 
Q 2728 306 2450 153 
Q 2172 0 1784 0 
Q 1141 0 747 490 
Q 353 981 353 1791 
Q 353 2603 747 3093 
Q 1141 3584 1784 3584 
Q 2172 3584 2450 3431 
Q 2728 3278 2906 2969 
L 2906 3500 
L 3481 3500 
L 3481 434 
z
" transform="scale(0.015625)"/>
      <path id="DejaVuSans-79" d="M 2059 -325 
Q 1816 -950 1584 -1140 
Q 1353 -1331 966 -1331 
L 506 -1331 
L 506 -850 
L 844 -850 
Q 1081 -850 1212 -737 
Q 1344 -625 1503 -206 
L 1606 56 
L 191 3500 
L 800 3500 
L 1894 763 
L 2988 3500 
L 3597 3500 
L 2059 -325 
z
" transform="scale(0.015625)"/>
     </defs>
     <use xlink:href="#DejaVuSans-46"/>
     <use xlink:href="#DejaVuSans-75" x="52.019531"/>
     <use xlink:href="#DejaVuSans-6c" x="115.398438"/>
     <use xlink:href="#DejaVuSans-6c" x="143.181641"/>
     <use xlink:href="#DejaVuSans-20" x="170.964844"/>
     <use xlink:href="#DejaVuSans-6f" x="202.751953"/>
     <use xlink:href="#DejaVuSans-62" x="263.933594"/>
     <use xlink:href="#DejaVuSans-73" x="327.410156"/>
     <use xlink:href="#DejaVuSans-65" x="379.509766"/>
     <use xlink:href="#DejaVuSans-72" x="441.033203"/>
     <use xlink:href="#DejaVuSans-76" x="482.146484"/>
     <use xlink:href="#DejaVuSans-65" x="541.326172"/>
     <use xlink:href="#DejaVuSans-64" x="602.849609"/>
     <use xlink:href="#DejaVuSans-20" x="666.326172"/>
     <use xlink:href="#DejaVuSans-74" x="698.113281"/>
     <use xlink:href="#DejaVuSans-61" x="737.322266"/>
     <use xlink:href="#DejaVuSans-69" x="798.601562"/>
     <use xlink:href="#DejaVuSans-6c" x="826.384766"/>
     <use xlink:href="#DejaVuSans-73" x="854.167969"/>
     <use xlink:href="#DejaVuSans-3b" x="906.267578"/>
     <use xlink:href="#DejaVuSans-20" x="939.958984"/>
     <use xlink:href="#DejaVuSans-66" x="971.746094"/>
     <use xlink:href="#DejaVuSans-69" x="1006.951172"/>
     <use xlink:href="#DejaVuSans-72" x="1034.734375"/>
     <use xlink:href="#DejaVuSans-73" x="1075.847656"/>
     <use xlink:href="#DejaVuSans-74" x="1127.947266"/>
     <use xlink:href="#DejaVuSans-20" x="1167.15625"/>
     <use xlink:href="#DejaVuSans-63" x="1198.943359"/>
     <use xlink:href="#DejaVuSans-68" x="1253.923828"/>
     <use xlink:href="#DejaVuSans-72" x="1317.302734"/>
     <use xlink:href="#DejaVuSans-6f" x="1356.166016"/>
     <use xlink:href="#DejaVuSans-6e" x="1417.347656"/>
     <use xlink:href="#DejaVuSans-6f" x="1480.726562"/>
     <use xlink:href="#DejaVuSans-6c" x="1541.908203"/>
     <use xlink:href="#DejaVuSans-6f" x="1569.691406"/>
     <use xlink:href="#DejaVuSans-67" x="1630.873047"/>
     <use xlink:href="#DejaVuSans-69" x="1694.349609"/>
     <use xlink:href="#DejaVuSans-63" x="1722.132812"/>
     <use xlink:href="#DejaVuSans-61" x="1777.113281"/>
     <use xlink:href="#DejaVuSans-6c" x="1838.392578"/>
     <use xlink:href="#DejaVuSans-20" x="1866.175781"/>
     <use xlink:href="#DejaVuSans-63" x="1897.962891"/>
     <use xlink:href="#DejaVuSans-6c" x="1952.943359"/>
     <use xlink:href="#DejaVuSans-65" x="1980.726562"/>
     <use xlink:href="#DejaVuSans-61" x="2042.25"/>
     <use xlink:href="#DejaVuSans-6e" x="2103.529297"/>
     <use xlink:href="#DejaVuSans-20" x="2166.908203"/>
     <use xlink:href="#DejaVuSans-64" x="2198.695312"/>
     <use xlink:href="#DejaVuSans-69" x="2262.171875"/>
     <use xlink:href="#DejaVuSans-73" x="2289.955078"/>
     <use xlink:href="#DejaVuSans-74" x="2342.054688"/>
     <use xlink:href="#DejaVuSans-72" x="2381.263672"/>
     <use xlink:href="#DejaVuSans-69" x="2422.376953"/>
     <use xlink:href="#DejaVuSans-62" x="2450.160156"/>
     <use xlink:href="#DejaVuSans-75" x="2513.636719"/>
     <use xlink:href="#DejaVuSans-74" x="2577.015625"/>
     <use xlink:href="#DejaVuSans-69" x="2616.224609"/>
     <use xlink:href="#DejaVuSans-6f" x="2644.007812"/>
     <use xlink:href="#DejaVuSans-6e" x="2705.189453"/>
     <use xlink:href="#DejaVuSans-20" x="2768.568359"/>
     <use xlink:href="#DejaVuSans-70" x="2800.355469"/>
     <use xlink:href="#DejaVuSans-65" x="2863.832031"/>
     <use xlink:href="#DejaVuSans-72" x="2925.355469"/>
     <use xlink:href="#DejaVuSans-20" x="2966.46875"/>
     <use xlink:href="#DejaVuSans-66" x="2998.255859"/>
     <use xlink:href="#DejaVuSans-61" x="3033.460938"/>
     <use xlink:href="#DejaVuSans-6d" x="3094.740234"/>
     <use xlink:href="#DejaVuSans-69" x="3192.152344"/>
     <use xlink:href="#DejaVuSans-6c" x="3219.935547"/>
     <use xlink:href="#DejaVuSans-79" x="3247.71875"/>
    </g>
    <!-- Zero intervals (outside logarithmic x axis): spatial_residency: 0, batched_conflict: 0 -->
    <g transform="translate(123.332433 50.04) scale(0.09 -0.09)">
     <defs>
      <path id="DejaVuSans-5a" d="M 359 4666 
L 4025 4666 
L 4025 4184 
L 1075 531 
L 4097 531 
L 4097 0 
L 288 0 
L 288 481 
L 3238 4134 
L 359 4134 
L 359 4666 
z
" transform="scale(0.015625)"/>
      <path id="DejaVuSans-28" d="M 1984 4856 
Q 1566 4138 1362 3434 
Q 1159 2731 1159 2009 
Q 1159 1288 1364 580 
Q 1569 -128 1984 -844 
L 1484 -844 
Q 1016 -109 783 600 
Q 550 1309 550 2009 
Q 550 2706 781 3412 
Q 1013 4119 1484 4856 
L 1984 4856 
z
" transform="scale(0.015625)"/>
      <path id="DejaVuSans-78" d="M 3513 3500 
L 2247 1797 
L 3578 0 
L 2900 0 
L 1881 1375 
L 863 0 
L 184 0 
L 1544 1831 
L 300 3500 
L 978 3500 
L 1906 2253 
L 2834 3500 
L 3513 3500 
z
" transform="scale(0.015625)"/>
      <path id="DejaVuSans-29" d="M 513 4856 
L 1013 4856 
Q 1481 4119 1714 3412 
Q 1947 2706 1947 2009 
Q 1947 1309 1714 600 
Q 1481 -109 1013 -844 
L 513 -844 
Q 928 -128 1133 580 
Q 1338 1288 1338 2009 
Q 1338 2731 1133 3434 
Q 928 4138 513 4856 
z
" transform="scale(0.015625)"/>
      <path id="DejaVuSans-3a" d="M 750 794 
L 1409 794 
L 1409 0 
L 750 0 
L 750 794 
z
M 750 3309 
L 1409 3309 
L 1409 2516 
L 750 2516 
L 750 3309 
z
" transform="scale(0.015625)"/>
      <path id="DejaVuSans-2c" d="M 750 794 
L 1409 794 
L 1409 256 
L 897 -744 
L 494 -744 
L 750 256 
L 750 794 
z
" transform="scale(0.015625)"/>
     </defs>
     <use xlink:href="#DejaVuSans-5a"/>
     <use xlink:href="#DejaVuSans-65" x="68.505859"/>
     <use xlink:href="#DejaVuSans-72" x="130.029297"/>
     <use xlink:href="#DejaVuSans-6f" x="168.892578"/>
     <use xlink:href="#DejaVuSans-20" x="230.074219"/>
     <use xlink:href="#DejaVuSans-69" x="261.861328"/>
     <use xlink:href="#DejaVuSans-6e" x="289.644531"/>
     <use xlink:href="#DejaVuSans-74" x="353.023438"/>
     <use xlink:href="#DejaVuSans-65" x="392.232422"/>
     <use xlink:href="#DejaVuSans-72" x="453.755859"/>
     <use xlink:href="#DejaVuSans-76" x="494.869141"/>
     <use xlink:href="#DejaVuSans-61" x="554.048828"/>
     <use xlink:href="#DejaVuSans-6c" x="615.328125"/>
     <use xlink:href="#DejaVuSans-73" x="643.111328"/>
     <use xlink:href="#DejaVuSans-20" x="695.210938"/>
     <use xlink:href="#DejaVuSans-28" x="726.998047"/>
     <use xlink:href="#DejaVuSans-6f" x="766.011719"/>
     <use xlink:href="#DejaVuSans-75" x="827.193359"/>
     <use xlink:href="#DejaVuSans-74" x="890.572266"/>
     <use xlink:href="#DejaVuSans-73" x="929.78125"/>
     <use xlink:href="#DejaVuSans-69" x="981.880859"/>
     <use xlink:href="#DejaVuSans-64" x="1009.664062"/>
     <use xlink:href="#DejaVuSans-65" x="1073.140625"/>
     <use xlink:href="#DejaVuSans-20" x="1134.664062"/>
     <use xlink:href="#DejaVuSans-6c" x="1166.451172"/>
     <use xlink:href="#DejaVuSans-6f" x="1194.234375"/>
     <use xlink:href="#DejaVuSans-67" x="1255.416016"/>
     <use xlink:href="#DejaVuSans-61" x="1318.892578"/>
     <use xlink:href="#DejaVuSans-72" x="1380.171875"/>
     <use xlink:href="#DejaVuSans-69" x="1421.285156"/>
     <use xlink:href="#DejaVuSans-74" x="1449.068359"/>
     <use xlink:href="#DejaVuSans-68" x="1488.277344"/>
     <use xlink:href="#DejaVuSans-6d" x="1551.65625"/>
     <use xlink:href="#DejaVuSans-69" x="1649.068359"/>
     <use xlink:href="#DejaVuSans-63" x="1676.851562"/>
     <use xlink:href="#DejaVuSans-20" x="1731.832031"/>
     <use xlink:href="#DejaVuSans-78" x="1763.619141"/>
     <use xlink:href="#DejaVuSans-20" x="1822.798828"/>
     <use xlink:href="#DejaVuSans-61" x="1854.585938"/>
     <use xlink:href="#DejaVuSans-78" x="1915.865234"/>
     <use xlink:href="#DejaVuSans-69" x="1975.044922"/>
     <use xlink:href="#DejaVuSans-73" x="2002.828125"/>
     <use xlink:href="#DejaVuSans-29" x="2054.927734"/>
     <use xlink:href="#DejaVuSans-3a" x="2093.941406"/>
     <use xlink:href="#DejaVuSans-20" x="2127.632812"/>
     <use xlink:href="#DejaVuSans-73" x="2159.419922"/>
     <use xlink:href="#DejaVuSans-70" x="2211.519531"/>
     <use xlink:href="#DejaVuSans-61" x="2274.996094"/>
     <use xlink:href="#DejaVuSans-74" x="2336.275391"/>
     <use xlink:href="#DejaVuSans-69" x="2375.484375"/>
     <use xlink:href="#DejaVuSans-61" x="2403.267578"/>
     <use xlink:href="#DejaVuSans-6c" x="2464.546875"/>
     <use xlink:href="#DejaVuSans-5f" x="2492.330078"/>
     <use xlink:href="#DejaVuSans-72" x="2542.330078"/>
     <use xlink:href="#DejaVuSans-65" x="2581.193359"/>
     <use xlink:href="#DejaVuSans-73" x="2642.716797"/>
     <use xlink:href="#DejaVuSans-69" x="2694.816406"/>
     <use xlink:href="#DejaVuSans-64" x="2722.599609"/>
     <use xlink:href="#DejaVuSans-65" x="2786.076172"/>
     <use xlink:href="#DejaVuSans-6e" x="2847.599609"/>
     <use xlink:href="#DejaVuSans-63" x="2910.978516"/>
     <use xlink:href="#DejaVuSans-79" x="2965.958984"/>
     <use xlink:href="#DejaVuSans-3a" x="3017.888672"/>
     <use xlink:href="#DejaVuSans-20" x="3051.580078"/>
     <use xlink:href="#DejaVuSans-30" x="3083.367188"/>
     <use xlink:href="#DejaVuSans-2c" x="3146.990234"/>
     <use xlink:href="#DejaVuSans-20" x="3178.777344"/>
     <use xlink:href="#DejaVuSans-62" x="3210.564453"/>
     <use xlink:href="#DejaVuSans-61" x="3274.041016"/>
     <use xlink:href="#DejaVuSans-74" x="3335.320312"/>
     <use xlink:href="#DejaVuSans-63" x="3374.529297"/>
     <use xlink:href="#DejaVuSans-68" x="3429.509766"/>
     <use xlink:href="#DejaVuSans-65" x="3492.888672"/>
     <use xlink:href="#DejaVuSans-64" x="3554.412109"/>
     <use xlink:href="#DejaVuSans-5f" x="3617.888672"/>
     <use xlink:href="#DejaVuSans-63" x="3667.888672"/>
     <use xlink:href="#DejaVuSans-6f" x="3722.869141"/>
     <use xlink:href="#DejaVuSans-6e" x="3784.050781"/>
     <use xlink:href="#DejaVuSans-66" x="3847.429688"/>
     <use xlink:href="#DejaVuSans-6c" x="3882.634766"/>
     <use xlink:href="#DejaVuSans-69" x="3910.417969"/>
     <use xlink:href="#DejaVuSans-63" x="3938.201172"/>
     <use xlink:href="#DejaVuSans-74" x="3993.181641"/>
     <use xlink:href="#DejaVuSans-3a" x="4032.390625"/>
     <use xlink:href="#DejaVuSans-20" x="4066.082031"/>
     <use xlink:href="#DejaVuSans-30" x="4097.869141"/>
    </g>
   </g>
   <g id="legend_1">
    <g id="patch_7">
     <path d="M 464.74125 86.37 
L 559.6 86.37 
Q 561.2 86.37 561.2 84.77 
L 561.2 61.64 
Q 561.2 60.04 559.6 60.04 
L 464.74125 60.04 
Q 463.14125 60.04 463.14125 61.64 
L 463.14125 84.77 
Q 463.14125 86.37 464.74125 86.37 
z
" style="fill: #ffffff; opacity: 0.8; stroke: #cccccc; stroke-linejoin: miter"/>
    </g>
    <g id="line2d_24">
     <path d="M 466.34125 66.51875 
L 474.34125 66.51875 
L 474.34125 66.51875 
L 482.34125 66.51875 
L 482.34125 66.51875 
" style="fill: none; stroke: #000000; stroke-width: 1.5; stroke-linecap: square"/>
    </g>
    <g id="text_9">
     <!-- spatial_residency -->
     <g transform="translate(488.74125 69.31875) scale(0.08 -0.08)">
      <use xlink:href="#DejaVuSans-73"/>
      <use xlink:href="#DejaVuSans-70" x="52.099609"/>
      <use xlink:href="#DejaVuSans-61" x="115.576172"/>
      <use xlink:href="#DejaVuSans-74" x="176.855469"/>
      <use xlink:href="#DejaVuSans-69" x="216.064453"/>
      <use xlink:href="#DejaVuSans-61" x="243.847656"/>
      <use xlink:href="#DejaVuSans-6c" x="305.126953"/>
      <use xlink:href="#DejaVuSans-5f" x="332.910156"/>
      <use xlink:href="#DejaVuSans-72" x="382.910156"/>
      <use xlink:href="#DejaVuSans-65" x="421.773438"/>
      <use xlink:href="#DejaVuSans-73" x="483.296875"/>
      <use xlink:href="#DejaVuSans-69" x="535.396484"/>
      <use xlink:href="#DejaVuSans-64" x="563.179688"/>
      <use xlink:href="#DejaVuSans-65" x="626.65625"/>
      <use xlink:href="#DejaVuSans-6e" x="688.179688"/>
      <use xlink:href="#DejaVuSans-63" x="751.558594"/>
      <use xlink:href="#DejaVuSans-79" x="806.539062"/>
     </g>
    </g>
    <g id="line2d_25">
     <path d="M 466.34125 78.48375 
L 474.34125 78.48375 
L 474.34125 78.48375 
L 482.34125 78.48375 
L 482.34125 78.48375 
" style="fill: none; stroke-dasharray: 5.55,2.4; stroke-dashoffset: 0; stroke: #404040; stroke-width: 1.5"/>
    </g>
    <g id="text_10">
     <!-- batched_conflict -->
     <g transform="translate(488.74125 81.28375) scale(0.08 -0.08)">
      <use xlink:href="#DejaVuSans-62"/>
      <use xlink:href="#DejaVuSans-61" x="63.476562"/>
      <use xlink:href="#DejaVuSans-74" x="124.755859"/>
      <use xlink:href="#DejaVuSans-63" x="163.964844"/>
      <use xlink:href="#DejaVuSans-68" x="218.945312"/>
      <use xlink:href="#DejaVuSans-65" x="282.324219"/>
      <use xlink:href="#DejaVuSans-64" x="343.847656"/>
      <use xlink:href="#DejaVuSans-5f" x="407.324219"/>
      <use xlink:href="#DejaVuSans-63" x="457.324219"/>
      <use xlink:href="#DejaVuSans-6f" x="512.304688"/>
      <use xlink:href="#DejaVuSans-6e" x="573.486328"/>
      <use xlink:href="#DejaVuSans-66" x="636.865234"/>
      <use xlink:href="#DejaVuSans-6c" x="672.070312"/>
      <use xlink:href="#DejaVuSans-69" x="699.853516"/>
      <use xlink:href="#DejaVuSans-63" x="727.636719"/>
      <use xlink:href="#DejaVuSans-74" x="782.617188"/>
     </g>
    </g>
   </g>
  </g>
  <g id="text_11">
   <!-- thunderbird | full observed timing tails; no trimming -->
   <g transform="translate(157.678125 12.250188) scale(0.1 -0.1)">
    <defs>
     <path id="DejaVuSans-7c" d="M 1344 4891 
L 1344 -1509 
L 813 -1509 
L 813 4891 
L 1344 4891 
z
" transform="scale(0.015625)"/>
    </defs>
    <use xlink:href="#DejaVuSans-74"/>
    <use xlink:href="#DejaVuSans-68" x="39.208984"/>
    <use xlink:href="#DejaVuSans-75" x="102.587891"/>
    <use xlink:href="#DejaVuSans-6e" x="165.966797"/>
    <use xlink:href="#DejaVuSans-64" x="229.345703"/>
    <use xlink:href="#DejaVuSans-65" x="292.822266"/>
    <use xlink:href="#DejaVuSans-72" x="354.345703"/>
    <use xlink:href="#DejaVuSans-62" x="395.458984"/>
    <use xlink:href="#DejaVuSans-69" x="458.935547"/>
    <use xlink:href="#DejaVuSans-72" x="486.71875"/>
    <use xlink:href="#DejaVuSans-64" x="526.082031"/>
    <use xlink:href="#DejaVuSans-20" x="589.558594"/>
    <use xlink:href="#DejaVuSans-7c" x="621.345703"/>
    <use xlink:href="#DejaVuSans-20" x="655.037109"/>
    <use xlink:href="#DejaVuSans-66" x="686.824219"/>
    <use xlink:href="#DejaVuSans-75" x="722.029297"/>
    <use xlink:href="#DejaVuSans-6c" x="785.408203"/>
    <use xlink:href="#DejaVuSans-6c" x="813.191406"/>
    <use xlink:href="#DejaVuSans-20" x="840.974609"/>
    <use xlink:href="#DejaVuSans-6f" x="872.761719"/>
    <use xlink:href="#DejaVuSans-62" x="933.943359"/>
    <use xlink:href="#DejaVuSans-73" x="997.419922"/>
    <use xlink:href="#DejaVuSans-65" x="1049.519531"/>
    <use xlink:href="#DejaVuSans-72" x="1111.042969"/>
    <use xlink:href="#DejaVuSans-76" x="1152.15625"/>
    <use xlink:href="#DejaVuSans-65" x="1211.335938"/>
    <use xlink:href="#DejaVuSans-64" x="1272.859375"/>
    <use xlink:href="#DejaVuSans-20" x="1336.335938"/>
    <use xlink:href="#DejaVuSans-74" x="1368.123047"/>
    <use xlink:href="#DejaVuSans-69" x="1407.332031"/>
    <use xlink:href="#DejaVuSans-6d" x="1435.115234"/>
    <use xlink:href="#DejaVuSans-69" x="1532.527344"/>
    <use xlink:href="#DejaVuSans-6e" x="1560.310547"/>
    <use xlink:href="#DejaVuSans-67" x="1623.689453"/>
    <use xlink:href="#DejaVuSans-20" x="1687.166016"/>
    <use xlink:href="#DejaVuSans-74" x="1718.953125"/>
    <use xlink:href="#DejaVuSans-61" x="1758.162109"/>
    <use xlink:href="#DejaVuSans-69" x="1819.441406"/>
    <use xlink:href="#DejaVuSans-6c" x="1847.224609"/>
    <use xlink:href="#DejaVuSans-73" x="1875.007812"/>
    <use xlink:href="#DejaVuSans-3b" x="1927.107422"/>
    <use xlink:href="#DejaVuSans-20" x="1960.798828"/>
    <use xlink:href="#DejaVuSans-6e" x="1992.585938"/>
    <use xlink:href="#DejaVuSans-6f" x="2055.964844"/>
    <use xlink:href="#DejaVuSans-20" x="2117.146484"/>
    <use xlink:href="#DejaVuSans-74" x="2148.933594"/>
    <use xlink:href="#DejaVuSans-72" x="2188.142578"/>
    <use xlink:href="#DejaVuSans-69" x="2229.255859"/>
    <use xlink:href="#DejaVuSans-6d" x="2257.039062"/>
    <use xlink:href="#DejaVuSans-6d" x="2354.451172"/>
    <use xlink:href="#DejaVuSans-69" x="2451.863281"/>
    <use xlink:href="#DejaVuSans-6e" x="2479.646484"/>
    <use xlink:href="#DejaVuSans-67" x="2543.025391"/>
   </g>
  </g>
 </g>
 <defs>
  <clipPath id="p888cdf3599">
   <rect x="55.997054" y="56.04" width="509.202946" height="128.98675"/>
  </clipPath>
 </defs>
</svg>
